<svg width="105" height="53" viewBox="0 0 105 53" fill="none" xmlns="http://www.w3.org/2000/svg">
<g clip-path="url(#clip0_3040_12806)">
<path d="M31.465 30.0454C31.754 27.9525 32.0417 25.8596 32.332 23.7676C33.0176 18.8139 33.707 13.8611 34.3913 8.90732C34.7529 6.28601 35.1223 3.66469 35.4514 1.04131C35.5046 0.621899 35.6666 0.492375 36.1901 0.496486C38.8469 0.513962 41.5036 0.516018 44.1604 0.495458C44.7241 0.491347 44.8965 0.616759 44.8939 1.0742C44.8745 5.35775 44.8874 9.64129 44.8874 13.9248C44.8874 26.5349 44.8836 39.146 44.8823 51.7561C44.8823 52.2523 44.5643 52.5004 43.9284 52.5004C42.438 52.5014 40.9477 52.4891 39.4573 52.5137C38.9259 52.523 38.7549 52.3966 38.7549 51.9648C38.7704 44.6488 38.7665 37.3327 38.7678 30.0167C38.7678 26.5216 38.773 23.0265 38.7743 19.5303C38.7743 19.3957 38.7536 19.261 38.6667 19.1243C38.5164 20.2294 38.3661 21.3355 38.2145 22.4405C37.7686 25.692 37.3215 28.9435 36.8783 32.1959C36.4156 35.5841 35.9595 38.9723 35.4968 42.3595C35.0523 45.6109 34.6052 48.8634 34.1425 52.1139C34.1231 52.2475 33.9455 52.4747 33.8366 52.4757C32.1584 52.4994 30.4788 52.4922 28.7577 52.4922C27.2401 41.1896 25.729 29.9426 24.2179 18.6946C24.1726 18.6967 24.1285 18.6987 24.0831 18.6998C24.0831 18.8611 24.0831 19.0225 24.0831 19.1839C24.0831 30.0465 24.0857 40.91 24.0857 51.7726C24.0857 52.2585 23.7855 52.5014 23.185 52.5014C21.6946 52.5014 20.203 52.4788 18.7139 52.5117C18.1074 52.5251 17.9596 52.3678 17.9596 51.9021C17.9765 44.2602 17.9726 36.6183 17.9713 28.9774C17.9713 19.7421 17.9687 10.5068 17.9674 1.27157C17.9674 0.765129 18.2767 0.511563 18.8953 0.510878C21.5093 0.510878 24.122 0.521158 26.736 0.501626C27.257 0.497514 27.4397 0.620871 27.4915 1.03617C27.9477 4.66593 28.4272 8.29363 28.9042 11.9213C29.429 15.9068 29.9604 19.8922 30.4878 23.8776C30.7444 25.8195 31.001 27.7603 31.2589 29.7021C31.2745 29.8152 31.3069 29.9272 31.3315 30.0393C31.3756 30.0424 31.4197 30.0444 31.4637 30.0475L31.465 30.0454Z" fill="#231F20"/>
<path d="M89.9472 27.9895C90.1909 28.2465 90.3684 28.412 90.5162 28.5929C91.6696 30.0198 92.8256 31.4445 93.9518 32.8847C94.0892 33.0595 94.1592 33.3504 94.0762 33.5364C93.4243 35.0075 93.1133 36.5196 93.1185 38.0749C93.1263 40.5246 93.1133 42.9753 93.1846 45.4239C93.2014 45.9851 93.4023 46.5916 93.7315 47.0882C94.5272 48.2826 96.2224 48.2857 97.0518 47.1025C97.3563 46.6698 97.5715 46.1342 97.5792 45.6439C97.6285 42.7501 97.6609 39.8543 97.5857 36.9616C97.5365 35.102 96.8328 33.3524 95.6107 31.7539C94.7825 30.6705 93.9375 29.5942 93.0654 28.5333C91.3663 26.4692 89.6051 24.4369 87.9424 22.3552C86.4338 20.4679 85.8468 18.342 85.8066 16.135C85.7535 13.1714 85.756 10.2067 85.8066 7.24203C85.8662 3.81376 88.1562 1.25 92.0169 0.384455C94.4469 -0.160368 96.9364 -0.149061 99.3482 0.528371C102.663 1.46074 104.874 3.88572 104.944 6.79795C105.022 10.1039 105.019 13.4119 104.935 16.7178C104.886 18.6576 104.226 20.5069 102.974 22.1969C102.298 23.1098 101.602 24.0144 100.783 25.0968C100.656 24.8953 100.601 24.7843 100.522 24.6856C99.2886 23.1581 98.0419 21.6367 96.8289 20.0978C96.6928 19.9251 96.6397 19.6291 96.7252 19.4409C97.2941 18.1868 97.6246 16.8936 97.6376 15.5696C97.6661 12.7951 97.6311 10.0196 97.5935 7.24512C97.5883 6.87608 97.4652 6.49778 97.32 6.14314C97.0038 5.36599 96.4064 5.01854 95.4785 5.01443C94.4209 5.00929 93.8015 5.3259 93.4801 6.11949C93.3103 6.53787 93.1807 6.98813 93.1768 7.42501C93.1535 10.3198 93.1068 13.2166 93.1949 16.1103C93.2468 17.7859 93.7807 19.4214 94.9121 20.8523C96.7926 23.23 98.8013 25.543 100.723 27.9001C102.011 29.4801 103.364 31.0354 104.129 32.8446C104.676 34.1378 104.962 35.469 104.969 36.8311C104.983 39.8297 104.978 42.8282 104.971 45.8268C104.969 46.9175 104.715 47.9722 104.169 48.9786C103.052 51.0386 101.072 52.2948 98.3374 52.7461C96.3157 53.0802 94.2499 53.0935 92.2307 52.7091C88.7005 52.0368 86.2731 49.7999 85.9232 46.9329C85.817 46.0653 85.7871 45.1895 85.7923 44.3167C85.8105 41.4734 85.8027 38.629 85.9206 35.7877C85.9945 34.0021 86.6904 32.3214 87.8426 30.7743C88.5191 29.8656 89.2085 28.963 89.9459 27.9864L89.9472 27.9895Z" fill="#231F20"/>
<path d="M71.1102 52.5045V51.8014C71.1102 46.4734 71.0675 41.1455 71.1322 35.8185C71.1556 33.8685 70.842 31.9667 70.4298 30.0578C69.3892 25.251 68.3822 20.4391 67.3597 15.6292C66.4836 11.5112 65.6049 7.39315 64.7275 3.27511C64.5383 2.38489 64.353 1.49466 64.1508 0.536598C64.4282 0.523234 64.6329 0.503703 64.839 0.503703C66.8257 0.503703 68.8125 0.518094 70.7992 0.498563C71.2917 0.493423 71.477 0.619863 71.5379 1.00227C72.3051 5.75765 73.0866 10.511 73.8655 15.2643C74.1234 16.8402 74.389 18.4161 74.6495 19.9919C74.704 20.0002 74.7584 20.0084 74.8141 20.0166C74.866 19.8562 74.9385 19.6979 74.9645 19.5355C75.6345 15.4442 76.2993 11.3529 76.9667 7.26054C77.3128 5.13778 77.6536 3.01503 78.0255 0.896387C78.0502 0.752471 78.312 0.523234 78.4662 0.522206C80.6901 0.502675 82.914 0.513982 85.1379 0.522206C85.1949 0.522206 85.2506 0.561269 85.3621 0.602388C85.1405 1.65708 84.9176 2.71589 84.6933 3.7747C83.7628 8.1631 82.8336 12.5515 81.9005 16.9399C80.8884 21.6994 79.8516 26.4548 78.8757 31.2184C78.6243 32.4458 78.4467 33.6968 78.4364 34.9386C78.3897 40.5739 78.4079 46.2103 78.4312 51.8466C78.4338 52.3606 78.2809 52.5251 77.6082 52.5117C75.7304 52.4757 73.8512 52.5025 71.972 52.5035C71.718 52.5035 71.4627 52.5035 71.1089 52.5035L71.1102 52.5045Z" fill="#231F20"/>
<path d="M-3.06219e-06 52.4521V0.532461C0.242345 0.522181 0.471732 0.504706 0.70112 0.504706C5.32387 0.50265 9.94532 0.509846 14.5681 0.495454C15.137 0.493398 15.3651 0.590027 15.3469 1.08756C15.3016 2.35402 15.3094 3.62356 15.3444 4.89105C15.356 5.33616 15.2057 5.48316 14.6225 5.47596C12.4634 5.44821 10.303 5.46363 8.14262 5.4626C7.88731 5.4626 7.63071 5.4626 7.31708 5.4626V24.2426C7.5348 24.2539 7.7629 24.2765 7.98969 24.2765C9.65243 24.2775 11.3165 24.2744 12.9792 24.2744C13.2812 24.2744 13.5974 24.2364 13.5948 24.6167C13.5831 25.951 13.5896 27.2864 13.5896 28.706H7.29116V47.5199C7.57498 47.5301 7.82769 47.5466 8.08041 47.5466C10.478 47.5487 12.8755 47.5569 15.2718 47.5404C15.7513 47.5373 15.9107 47.6473 15.9029 48.0349C15.877 49.3712 15.8848 50.7076 15.899 52.044C15.9029 52.3575 15.8135 52.5086 15.3651 52.5076C10.3756 52.4994 5.38607 52.5045 0.396566 52.5035C0.272152 52.5035 0.149034 52.4736 -0.00389099 52.4551L-3.06219e-06 52.4521Z" fill="#231F20"/>
<path d="M61.6988 0.581827C61.5511 0.542764 61.5096 0.523233 61.4695 0.523233C58.5755 0.518093 55.6816 0.518093 52.7877 0.505757C52.4015 0.503701 52.3237 0.662008 52.2978 0.916944C52.141 2.38386 51.9725 3.85077 51.8105 5.31768C51.4412 8.67913 51.0783 12.0406 50.7038 15.401C50.2217 19.7339 49.724 24.0668 49.2432 28.3997C48.8246 32.1692 48.4255 35.9409 48.0094 39.7114C47.5584 43.8058 47.1074 47.9002 46.6305 51.9936C46.5787 52.4439 46.7886 52.5117 47.2681 52.5066C48.6717 52.4901 50.0752 52.5004 51.4801 52.5004C51.9259 52.5004 52.3717 52.5004 52.8201 52.5004C52.8538 52.3267 52.881 52.227 52.8914 52.1262C53.3281 47.8591 53.7714 43.592 54.1835 39.3229C54.2262 38.885 54.3675 38.7297 54.939 38.7482C56.0821 38.7842 57.2277 38.7616 58.3721 38.7626C59.3117 38.7626 59.3233 38.7626 59.4024 39.4894C59.856 43.6527 60.3134 47.8149 60.7372 51.9803C60.7813 52.4151 60.9653 52.5199 61.4746 52.5138C63.2449 52.4942 65.0165 52.5066 66.7868 52.5066C67.1044 52.5066 67.4219 52.5066 67.8275 52.5066C65.7773 35.1452 63.7374 17.863 61.6975 0.582855L61.6988 0.581827ZM54.7394 34.366C55.3848 28.447 56.0251 22.5618 56.6666 16.6757C56.7456 16.6706 56.8247 16.6654 56.9037 16.6593C57.5491 22.5485 58.1945 28.4377 58.8438 34.365H54.7394V34.366Z" fill="#231F20"/>
</g>
<defs>
<clipPath id="clip0_3040_12806">
<rect width="105" height="53" fill="white"/>
</clipPath>
</defs>
</svg>
