<svg width="144" height="72" viewBox="0 0 144 72" fill="none" xmlns="http://www.w3.org/2000/svg">
<g clip-path="url(#clip0_432_23760)">
<path d="M43.1515 40.8173C43.5479 37.9741 43.9424 35.1308 44.3406 32.289C45.2808 25.5593 46.2263 18.8311 47.1648 12.1014C47.6606 8.54036 48.1672 4.97932 48.6186 1.41549C48.6915 0.845728 48.9137 0.669771 49.6317 0.675356C53.2753 0.699097 56.9188 0.70189 60.5623 0.67396C61.3355 0.668374 61.5719 0.838745 61.5683 1.46018C61.5417 7.27934 61.5594 13.0985 61.5594 18.9176C61.5594 36.0483 61.5541 53.1804 61.5523 70.3111C61.5523 70.9851 61.1163 71.3222 60.2442 71.3222C58.2003 71.3236 56.1563 71.3068 54.1124 71.3403C53.3837 71.3529 53.1491 71.1811 53.1491 70.5946C53.1704 60.6558 53.1651 50.717 53.1668 40.7782C53.1668 36.0302 53.1739 31.2821 53.1757 26.5327C53.1757 26.3497 53.1473 26.1668 53.0282 25.9811C52.822 27.4823 52.6159 28.9849 52.4079 30.4861C51.7965 34.9032 51.1833 39.3203 50.5755 43.7388C49.941 48.3416 49.3153 52.9444 48.6808 57.5458C48.0712 61.9629 47.458 66.3814 46.8235 70.7971C46.7969 70.9786 46.5534 71.2872 46.4041 71.2886C44.1024 71.3208 41.799 71.311 39.4387 71.311C37.3574 55.9566 35.285 40.6777 33.2127 25.3973C33.1504 25.4001 33.09 25.4029 33.0278 25.4043C33.0278 25.6236 33.0278 25.8428 33.0278 26.0621C33.0278 40.8187 33.0314 55.5768 33.0314 70.3335C33.0314 70.9935 32.6196 71.3236 31.7961 71.3236C29.7522 71.3236 27.7065 71.2928 25.6643 71.3375C24.8325 71.3557 24.6299 71.142 24.6299 70.5094C24.653 60.1279 24.6477 49.7465 24.6459 39.3664C24.6459 26.8204 24.6423 14.2743 24.6405 1.72831C24.6405 1.0403 25.0647 0.695838 25.9131 0.694907C29.498 0.694907 33.0811 0.708872 36.666 0.682339C37.3805 0.676753 37.6311 0.844331 37.7022 1.40851C38.3278 6.3395 38.9854 11.2677 39.6395 16.1959C40.3593 21.6101 41.088 27.0242 41.8114 32.4384C42.1633 35.0764 42.5152 37.7129 42.8689 40.3509C42.8903 40.5045 42.9347 40.6567 42.9685 40.8089C43.0289 40.8131 43.0893 40.8159 43.1498 40.8201L43.1515 40.8173Z" fill="white"/>
<path d="M123.356 38.0228C123.69 38.3719 123.934 38.5967 124.136 38.8425C125.718 40.7808 127.303 42.7164 128.848 44.6729C129.036 44.9103 129.132 45.3055 129.019 45.5582C128.125 47.5566 127.698 49.6108 127.705 51.7237C127.716 55.0515 127.698 58.3808 127.796 61.7072C127.819 62.4697 128.094 63.2936 128.546 63.9681C129.637 65.5908 131.962 65.595 133.099 63.9876C133.517 63.3997 133.812 62.6721 133.823 62.006C133.89 58.0749 133.935 54.141 133.832 50.2113C133.764 47.6851 132.799 45.3083 131.123 43.1367C129.987 41.6648 128.828 40.2027 127.632 38.7615C125.302 35.9574 122.887 33.1965 120.606 30.3686C118.538 27.8047 117.732 24.9168 117.677 21.9185C117.604 17.8924 117.608 13.865 117.677 9.83752C117.759 5.18024 120.9 1.6974 126.194 0.52156C129.527 -0.218577 132.941 -0.203216 136.249 0.717068C140.795 1.98368 143.827 5.27799 143.923 9.23423C144.03 13.7253 144.026 18.2192 143.911 22.7103C143.843 25.3455 142.939 27.8578 141.222 30.1536C140.294 31.3937 139.34 32.6226 138.216 34.0931C138.042 33.8194 137.967 33.6685 137.859 33.5345C136.167 31.4593 134.457 29.3925 132.794 27.302C132.607 27.0674 132.534 26.6652 132.651 26.4096C133.432 24.7059 133.885 22.9491 133.903 21.1504C133.942 17.3813 133.894 13.6108 133.842 9.84171C133.835 9.34037 133.666 8.82646 133.467 8.34467C133.034 7.28893 132.214 6.81692 130.942 6.81133C129.491 6.80435 128.642 7.23447 128.201 8.31255C127.968 8.88092 127.79 9.49258 127.785 10.0861C127.753 14.0186 127.689 17.9539 127.81 21.885C127.881 24.1613 128.613 26.3831 130.165 28.327C132.744 31.5571 135.499 34.6992 138.135 37.9013C139.901 40.0477 141.757 42.1606 142.805 44.6184C143.555 46.3752 143.948 48.1836 143.957 50.034C143.977 54.1075 143.97 58.1811 143.961 62.2546C143.957 63.7363 143.609 65.1691 142.86 66.5362C141.328 69.3348 138.613 71.0413 134.862 71.6543C132.09 72.1082 129.257 72.1264 126.488 71.6041C121.646 70.6908 118.317 67.652 117.837 63.7572C117.692 62.5786 117.651 61.3888 117.658 60.2032C117.683 56.3405 117.672 52.4764 117.834 48.6165C117.935 46.1908 118.89 43.9076 120.47 41.8059C121.397 40.5714 122.343 39.3453 123.354 38.0186L123.356 38.0228Z" fill="white"/>
<path d="M97.5228 71.3275V70.3723C97.5228 63.1344 97.4642 55.8964 97.553 48.6598C97.585 46.0106 97.1549 43.4271 96.5897 40.8339C95.1625 34.3039 93.7815 27.767 92.3792 21.2328C91.1777 15.6385 89.9727 10.0442 88.7694 4.44985C88.5099 3.24049 88.2558 2.03113 87.9785 0.729608C88.3589 0.711453 88.6397 0.68492 88.9223 0.68492C91.6469 0.68492 94.3716 0.704471 97.0963 0.677938C97.7717 0.670955 98.0258 0.842723 98.1093 1.36222C99.1615 7.82236 100.233 14.2797 101.301 20.7371C101.655 22.8779 102.019 25.0187 102.377 27.1595C102.451 27.1707 102.526 27.1818 102.602 27.193C102.674 26.9752 102.773 26.7601 102.809 26.5394C103.728 20.9814 104.639 15.4234 105.555 9.86402C106.029 6.98028 106.497 4.09653 107.007 1.21838C107.04 1.02287 107.4 0.711453 107.611 0.710057C110.661 0.683524 113.711 0.698885 116.761 0.710057C116.839 0.710057 116.915 0.763123 117.068 0.818983C116.764 2.25178 116.459 3.69016 116.151 5.12854C114.875 11.0901 113.601 17.0517 112.321 23.0133C110.933 29.4791 109.511 35.9392 108.173 42.4105C107.828 44.0779 107.584 45.7774 107.57 47.4644C107.506 55.1199 107.531 62.7768 107.563 70.4338C107.567 71.132 107.357 71.3555 106.434 71.3373C103.859 71.2884 101.282 71.3247 98.7048 71.3261C98.3564 71.3261 98.0063 71.3261 97.521 71.3261L97.5228 71.3275Z" fill="white"/>
<path d="M0.000449204 71.2564V0.724145C0.332812 0.71018 0.647401 0.68644 0.96199 0.68644C7.30176 0.683647 13.6397 0.693422 19.9795 0.673871C20.7598 0.671078 21.0726 0.802348 21.0477 1.47825C20.9855 3.19872 20.9962 4.92338 21.0441 6.64524C21.0601 7.24992 20.854 7.44962 20.0542 7.43984C17.0931 7.40214 14.1303 7.42309 11.1675 7.42169C10.8173 7.42169 10.4654 7.42169 10.0353 7.42169V32.9341C10.3339 32.9494 10.6467 32.9802 10.9577 32.9802C13.2381 32.9816 15.5202 32.9774 17.8005 32.9774C18.2146 32.9774 18.6483 32.9257 18.6447 33.4424C18.6287 35.255 18.6376 37.0691 18.6376 38.9976H9.99976V64.5561C10.389 64.5701 10.7356 64.5924 11.0822 64.5924C14.3702 64.5952 17.6583 64.6064 20.9446 64.584C21.6022 64.5798 21.8208 64.7293 21.8102 65.2557C21.7746 67.0712 21.7853 68.8866 21.8048 70.702C21.8102 71.128 21.6875 71.3332 21.0726 71.3318C14.2298 71.3207 7.38707 71.3277 0.544315 71.3263C0.37369 71.3263 0.204843 71.2858 -0.00488281 71.2606L0.000449204 71.2564Z" fill="white"/>
<path d="M84.6151 0.790867C84.4125 0.7378 84.3556 0.711267 84.3005 0.711267C80.3317 0.704285 76.3629 0.704285 72.3941 0.687527C71.8645 0.684734 71.7579 0.899793 71.7223 1.24612C71.5072 3.23891 71.2762 5.23169 71.054 7.22448C70.5475 11.791 70.0498 16.3575 69.5362 20.9226C68.875 26.8088 68.1925 32.695 67.5331 38.5812C66.959 43.7021 66.4116 48.8258 65.8411 53.9481C65.2226 59.5103 64.6041 65.0725 63.95 70.6333C63.8789 71.245 64.1668 71.3371 64.8245 71.3301C66.7493 71.3078 68.6742 71.3218 70.6008 71.3218C71.2122 71.3218 71.8236 71.3218 72.4386 71.3218C72.4848 71.0858 72.5221 70.9503 72.5363 70.8134C73.1353 65.0166 73.7431 59.2198 74.3083 53.4202C74.367 52.8253 74.5607 52.6144 75.3445 52.6396C76.9121 52.6885 78.4833 52.6577 80.0527 52.6591C81.3413 52.6591 81.3573 52.6591 81.4657 53.6465C82.0877 59.3022 82.7151 64.9566 83.2963 70.6152C83.3568 71.2059 83.6091 71.3483 84.3076 71.3399C86.7355 71.3134 89.1651 71.3301 91.593 71.3301C92.0284 71.3301 92.4638 71.3301 93.0202 71.3301C90.2084 47.7449 87.4109 24.2672 84.6133 0.792263L84.6151 0.790867ZM75.0708 46.6864C75.9559 38.6454 76.8339 30.6505 77.7137 22.6542C77.8221 22.6473 77.9305 22.6403 78.039 22.6319C78.9241 30.6324 79.8092 38.6328 80.6996 46.685H75.0708V46.6864Z" fill="white"/>
</g>
<defs>
<clipPath id="clip0_432_23760">
<rect width="144" height="72" fill="white"/>
</clipPath>
</defs>
</svg>
