<svg width="105" height="216" viewBox="0 0 105 216" fill="none" xmlns="http://www.w3.org/2000/svg">
<g clip-path="url(#clip0_398_17933)">
<path fill-rule="evenodd" clip-rule="evenodd" d="M18.8746 0H29.8391C33.9767 13.8759 38.1456 27.7206 42.3021 41.5778C42.2979 41.5986 42.3125 41.6007 42.327 41.6028C45.2721 40.7397 48.7812 40.1241 52.5672 40.0055C57.5062 39.8516 62.3432 40.4049 66.3539 41.3283C66.4497 41.3511 66.5225 41.3719 66.6536 41.3782C75.5347 27.6 84.4053 13.8114 93.2531 0H104.517C101.264 1.3851 99.264 4.23224 97.2742 6.96291C91.2966 15.1612 85.498 23.5362 79.5662 31.7948C77.0936 35.2367 74.6709 38.7016 72.2233 42.1768C72.061 42.4076 71.8591 42.6135 71.7487 42.8756C77.0582 44.7203 81.6413 47.3698 85.6604 50.5872C85.8623 50.7494 86.3888 51.0946 86.4097 51.261C86.4221 51.3588 86.2473 51.8371 86.2098 51.9848C85.3065 55.618 84.4261 59.2409 83.5124 62.8159C83.4438 62.8991 83.4458 62.7536 83.4375 62.7411C83.2377 62.4333 83.0358 62.0319 82.8381 61.6929C82.1554 60.5283 81.3499 59.4135 80.5403 58.3237C77.3455 54.025 73.1703 50.4541 68.2022 47.8919C67.9878 48.0915 67.8421 48.3577 67.6777 48.5906C63.873 53.9854 60.0038 59.426 56.1887 64.8624C54.8421 66.782 53.6703 68.7951 52.6921 71.0267C51.7055 73.2769 50.8917 75.6894 50.2195 78.2142C49.8781 79.4953 49.5909 80.8055 49.2953 82.1324C49.006 83.4302 48.6793 84.7341 48.3962 86.0506C47.2536 91.3685 46.0838 96.705 44.9245 101.973C46.2046 103.556 47.5512 105.14 48.8458 106.74C49.0227 106.958 49.1809 107.191 49.3952 107.364C51.0083 99.8912 52.665 92.3355 54.2656 84.7529C54.5216 83.5362 54.7901 82.1054 54.6902 80.66C54.5944 79.2811 54.2905 78.2662 53.6162 77.4406C53.6058 77.426 53.4663 77.3075 53.5662 77.3158H69.376C66.8805 87.7976 64.2788 98.2211 61.7584 108.786C60.9903 112.006 60.162 115.337 59.3856 118.644C59.3294 118.881 59.2025 119.145 59.2108 119.268C59.2191 119.389 59.4231 119.578 59.5854 119.767C61.5481 122.071 63.5296 124.449 65.3799 126.855C67.3738 129.446 69.3635 132.133 70.9245 135.066C72.5209 138.062 73.8093 141.413 74.1215 145.622C74.4607 150.177 73.6469 154.253 72.6229 157.726C70.5541 164.743 66.9575 170.421 62.2329 174.846C57.4021 179.372 51.3413 182.454 43.5758 183.981C41.6881 191.725 39.7774 199.522 37.9063 207.365C37.7856 207.872 37.6232 208.432 37.5067 209.037C37.3943 209.617 37.3006 210.379 37.4817 210.859C37.6711 211.36 38.2185 211.547 38.9803 211.583C39.6713 211.614 40.4913 211.583 41.2031 211.583C48.6376 211.583 55.7579 211.391 62.5326 210.784C65.2487 210.541 67.9087 210.241 70.4999 209.911C80.9961 208.567 91.128 206.839 100.696 204.72C100.767 204.77 100.658 204.846 100.646 204.869C99.0641 207.619 97.3845 210.401 95.7507 213.155C95.1887 214.103 94.6226 215.068 94.0773 216H23.9447C25.6805 214.428 26.6171 211.955 27.2166 209.312C29.0481 201.244 30.784 192.923 32.5864 184.854C28.9274 184.738 25.6389 184.072 22.621 183.207C17.3677 181.701 12.7825 179.505 8.60946 176.893C5.65813 175.046 2.8525 173.033 0.517242 170.504V170.404C1.66406 165.927 2.7297 161.368 3.889 156.903C6.36579 163.021 10.3162 167.931 15.1282 171.852C17.5113 173.792 20.1567 175.441 23.1455 176.918C24.6087 177.642 26.1821 178.241 27.8659 178.74C29.6476 179.27 31.5582 179.705 33.6604 179.763C33.6854 179.763 33.6895 179.742 33.7103 179.738C35.7479 170.117 37.9167 160.507 39.9793 150.888C41.9691 141.615 44.0816 132.22 46.0235 122.912C46.0901 122.593 46.2483 122.184 46.2233 122.013C46.1962 121.826 45.8403 121.551 45.6738 121.364C44.6789 120.256 43.7798 119.224 42.8266 118.17C42.4894 117.796 42.1605 117.402 41.8275 117.072C41.8025 117.047 41.7422 116.907 41.6777 116.997C40.6994 121.649 39.6692 126.433 38.6556 131.097C38.0999 133.658 37.7419 137.617 39.1551 139.458C39.205 139.522 39.3778 139.628 39.28 139.682H24.669C25.718 139.034 26.4486 138.071 26.9918 136.937C27.5558 135.76 27.868 134.421 28.1407 132.994C29.7745 124.444 31.2356 115.649 32.7862 107.064C30.886 104.957 29.0003 102.869 27.0917 100.775C25.1914 98.6912 23.1829 96.7092 21.4471 94.4111C19.7321 92.1421 18.271 89.609 17.1512 86.6995C16.0252 83.7733 15.303 80.4832 15.303 76.5421C15.303 72.601 15.9545 69.2277 16.9015 66.1352C17.8381 63.0759 19.1993 60.3639 20.6978 57.9244C23.7699 52.9227 27.7993 49.0087 32.6863 45.8953C31.1316 40.0534 29.658 34.0076 28.0907 28.1262C27.5662 26.1546 27.0584 24.1643 26.5672 22.1865C25.5973 18.2849 24.5296 14.2586 23.5201 10.3071C22.5065 6.33899 21.6448 2.18163 18.8746 0ZM51.8429 44.0236C48.7209 44.1712 45.9319 44.8575 43.5509 45.7206C45.6842 52.9144 47.8613 60.0645 49.9947 67.2582C50.1841 67.0877 50.2819 66.8464 50.4193 66.6343C54.5882 60.2017 58.7404 53.6672 62.8823 47.243C63.1237 46.8666 63.4442 46.4589 63.6565 46.095C63.6669 46.0763 63.7398 45.9806 63.6815 45.9452C60.3826 44.8305 56.4031 43.8073 51.8429 44.0236ZM28.1906 60.0707C27.4851 61.6617 26.8794 63.4981 26.4923 65.4863C26.0989 67.5078 25.8637 69.7747 26.0427 72.0749C26.2113 74.2378 26.6733 76.1657 27.2915 77.9397C27.8888 79.6534 28.6818 81.3192 29.5393 82.8062C31.0337 85.3976 32.7925 87.86 34.7843 90.0187C35.0008 90.2537 35.3358 90.6489 35.5585 90.8173C35.648 90.886 35.571 90.9026 35.6335 90.8173C35.6751 90.7612 35.7188 90.4367 35.7584 90.2184C35.7979 90 35.8312 89.7442 35.8583 89.5945C36.6721 84.9442 37.4838 80.4666 38.231 75.9182C38.5099 74.2191 38.7201 72.4721 38.6306 70.5276C38.5494 68.7868 38.1561 67.1688 37.7564 65.5861C36.5763 60.9026 35.3254 56.3064 34.1599 51.6603C34.1599 51.6458 34.1557 51.6312 34.1349 51.6354C31.6706 54.0062 29.6871 56.6995 28.1906 60.0707ZM51.4932 176.544C54.482 174.905 57.0733 172.7 59.0859 170.13C61.1236 167.524 62.799 164.471 63.7315 160.771C64.3725 158.232 64.6535 155.287 64.4807 152.36C64.3142 149.534 63.6836 146.887 62.8823 144.624C61.2526 140.024 58.7758 136.236 55.939 132.894C52.1926 148.284 48.4649 163.693 44.7497 179.114C47.2161 178.567 49.4764 177.65 51.4932 176.544Z" fill="white"/>
</g>
<defs>
<clipPath id="clip0_398_17933">
<rect width="104" height="216" fill="white" transform="translate(0.517242)"/>
</clipPath>
</defs>
</svg>
