<svg width="318" height="50" viewBox="0 0 318 50" fill="none" xmlns="http://www.w3.org/2000/svg">
<path fill-rule="evenodd" clip-rule="evenodd" d="M46.0365 36.605C45.9789 36.7158 45.9282 36.83 45.8848 36.9471C41.7821 44.7115 33.7302 50 24.5384 50C11.206 50 0.267212 38.8113 0.267212 25C0.267212 11.2629 11.206 0 24.5384 0C33.7681 0 41.8579 5.40252 45.9227 13.281C46.0365 13.433 46.0745 13.509 46.1883 13.7371C46.2262 13.7751 38.4399 19.4074 38.364 19.2934C38.3261 19.1414 38.2882 19.0274 38.2123 18.9513C35.9721 13.3588 30.6536 9.62861 24.5384 9.74263C16.3709 9.81865 9.6487 16.5931 9.6487 25.0018C9.6487 33.4866 16.3727 40.337 24.5384 40.337C30.4639 40.337 35.6307 36.6828 37.9847 31.5084C38.0985 31.3183 38.1364 31.1663 38.2123 31.0143L46.0365 36.605ZM56.1027 0.454281H65.4462V17.9215H89.983V0.454281H99.4024V49.048H89.983V27.7003H65.4462V49.048H56.1027V0.454281ZM231.282 49.048V0.454281H265.2V10.2711H240.737V19.9757H263.337V29.6786H240.737V39.3814H268.654V49.048H231.282ZM281.911 49.048V0.454281H291.406V39.3814H317.767V49.048H281.911ZM180.306 49.048H170.81V0.454281H183.989L204.768 29.6786V0.454281H214.186V49.048H206.667L180.306 12.4032V49.048ZM135.069 10.2711L126.79 29.6786H143.73L135.069 10.2711ZM122.534 39.3814L118.205 49.0462H106.961L128.459 0.452472H141.6L163.252 49.0462H152.008L147.641 39.3814H122.534Z" fill="white"/>
</svg>
