<svg width="35" height="45" viewBox="0 0 35 45" fill="none" xmlns="http://www.w3.org/2000/svg">
<path d="M30.0625 0.125C26.5996 0.130723 23.2189 1.18142 20.3628 3.13966C17.5067 5.09791 15.3081 7.87253 14.0545 11.1006C13.0503 9.64381 11.7073 8.45264 10.141 7.6295C8.57468 6.80635 6.83192 6.37585 5.0625 6.375H0.375V11.0625C0.378226 13.9623 1.5316 16.7424 3.58208 18.7929C5.63256 20.8434 8.41268 21.9968 11.3125 22H12.875V36.1395C9.28603 36.4905 5.93163 38.0814 3.38906 40.6386L5.59844 42.8481C6.9055 41.5413 8.48611 40.5405 10.2264 39.918C11.9668 39.2955 13.8235 39.0666 15.6629 39.248C17.5023 39.4293 19.2786 40.0163 20.8639 40.9667C22.4491 41.917 23.8039 43.2071 24.8306 44.7441L27.4269 43.0053C26.146 41.0912 24.457 39.4845 22.4812 38.3008C20.5055 37.1171 18.292 36.3858 16 36.1594V22H17.5625C22.1193 21.9948 26.488 20.1824 29.7102 16.9602C32.9324 13.738 34.7448 9.36932 34.75 4.8125V0.125H30.0625ZM11.3125 18.875C9.24122 18.8726 7.25545 18.0488 5.79083 16.5842C4.32621 15.1196 3.50236 13.1338 3.5 11.0625V9.5H5.0625C7.13382 9.50223 9.11966 10.3261 10.5843 11.7907C12.0489 13.2553 12.8728 15.2412 12.875 17.3125V18.875H11.3125ZM31.625 4.8125C31.6209 8.54084 30.138 12.1153 27.5016 14.7516C24.8653 17.388 21.2908 18.8709 17.5625 18.875H16V17.3125C16.0041 13.5842 17.487 10.0097 20.1234 7.37338C22.7597 4.73704 26.3342 3.25414 30.0625 3.25H31.625V4.8125Z" fill="white"/>
</svg>
