<svg width="130" height="70" viewBox="0 0 130 70" fill="none" xmlns="http://www.w3.org/2000/svg">
<path d="M55.3125 50.625H45.9375V44.375C45.9383 43.5465 46.2678 42.7521 46.8537 42.1662C47.4396 41.5803 48.234 41.2508 49.0625 41.25H52.1875V38.125H45.9375V35H52.1875C53.016 35.001 53.8103 35.3305 54.3962 35.9163C54.982 36.5022 55.3116 37.2965 55.3125 38.125V41.25C55.3116 42.0785 54.982 42.8728 54.3962 43.4587C53.8103 44.0445 53.016 44.374 52.1875 44.375H49.0625V47.5H55.3125V50.625ZM39.6875 44.375H33.4375C32.609 44.374 31.8147 44.0445 31.2288 43.4587C30.643 42.8728 30.3135 42.0785 30.3125 41.25V25.625C30.3133 24.7965 30.6428 24.0021 31.2287 23.4162C31.8146 22.8303 32.609 22.5008 33.4375 22.5H39.6875C40.516 22.5008 41.3104 22.8303 41.8963 23.4162C42.4822 24.0021 42.8117 24.7965 42.8125 25.625V41.25C42.8115 42.0785 42.482 42.8728 41.8962 43.4587C41.3103 44.0445 40.516 44.374 39.6875 44.375ZM33.4375 25.625V41.25H39.6875V25.625H33.4375ZM27.1875 44.375H17.8125C16.984 44.374 16.1897 44.0445 15.6038 43.4587C15.018 42.8728 14.6885 42.0785 14.6875 41.25V25.625C14.6883 24.7965 15.0178 24.0021 15.6037 23.4162C16.1896 22.8303 16.984 22.5008 17.8125 22.5H27.1875V25.625H17.8125V41.25H27.1875V44.375Z" fill="white"/>
<path d="M106.914 45.293C105.601 45.3066 104.299 45.0501 103.09 44.5394C101.88 44.0287 100.789 43.2747 99.8828 42.3242L95.039 37.3242L90.1953 42.3242C88.305 44.2008 85.7495 45.2539 83.0859 45.2539C80.4224 45.2539 77.8668 44.2008 75.9765 42.3242C74.1646 40.3074 73.1628 37.6916 73.164 34.9805C73.1459 32.2367 74.213 29.5971 76.1328 27.6367C77.0534 26.7084 78.1487 25.9716 79.3555 25.4687C80.5623 24.9659 81.8567 24.707 83.164 24.707C84.4714 24.707 85.7658 24.9659 86.9726 25.4687C88.1794 25.9716 89.2747 26.7084 90.1953 27.6367L95.039 32.6367L99.8828 27.6367C100.803 26.7084 101.899 25.9716 103.105 25.4687C104.312 24.9659 105.607 24.707 106.914 24.707C108.221 24.707 109.516 24.9659 110.723 25.4687C111.929 25.9716 113.025 26.7084 113.945 27.6367C115.826 29.6191 116.875 32.2477 116.875 34.9805C116.875 37.7132 115.826 40.3418 113.945 42.3242C112.073 44.1845 109.553 45.2483 106.914 45.293ZM97.2265 34.9805L102.07 40.1367C103.359 41.413 105.1 42.1289 106.914 42.1289C108.728 42.1289 110.469 41.413 111.758 40.1367C113.04 38.7254 113.75 36.8871 113.75 34.9805C113.75 33.0738 113.04 31.2355 111.758 29.8242C110.469 28.5479 108.728 27.832 106.914 27.832C105.1 27.832 103.359 28.5479 102.07 29.8242L97.2265 34.9805ZM83.164 27.793C82.2598 27.7758 81.3618 27.9475 80.5278 28.2973C79.6937 28.6471 78.9418 29.1671 78.3203 29.8242C77.015 31.2239 76.2891 33.0666 76.2891 34.9805C76.2891 36.8944 77.015 38.737 78.3203 40.1367C79.6094 41.413 81.3501 42.1289 83.164 42.1289C84.978 42.1289 86.7187 41.413 88.0078 40.1367L92.8515 34.9805L88.0078 29.8242C86.6931 28.5819 84.9716 27.8599 83.164 27.793Z" fill="white"/>
<rect x="1" y="1" width="128" height="68" rx="34" stroke="white" stroke-width="2"/>
</svg>
