<svg width="174" height="211" viewBox="0 0 174 211" fill="none" xmlns="http://www.w3.org/2000/svg">
<path d="M128.485 0.858087C143.418 0.858087 158.354 0.855914 173.287 0.860261C173.296 4.21576 173.269 7.57343 173.302 10.9311C169.508 11.0963 165.629 11.5201 162.135 13.1044C158.591 14.693 155.62 17.5834 154.091 21.1628C135.932 63.7542 117.786 106.35 99.6466 148.95C99.3329 149.65 99.0803 150.373 98.7143 151.049C92.2192 150.973 85.7218 151.038 79.2266 151.015C76.3602 145.331 73.5396 139.625 70.6492 133.955C67.3363 142.813 64.0037 151.662 60.6908 160.518C82.117 160.52 103.543 160.518 124.969 160.52C128.892 160.573 132.933 160.41 136.603 158.88C142.702 156.435 147.557 151.71 151.508 146.588C156.278 140.381 159.898 133.394 163.124 126.294C166.742 126.263 170.357 126.305 173.973 126.298C167.116 140.911 160.225 155.511 153.307 170.096C103.933 170.098 54.5616 170.096 5.1878 170.096C6.39013 166.964 7.53364 163.806 8.82309 160.707C8.90151 160.388 9.30011 160.468 9.54188 160.438C15.706 160.392 21.9115 160.153 27.9601 158.873C31.1075 158.136 34.3638 157.154 36.7859 154.911C38.0666 153.692 38.4652 151.912 38.8899 150.269C44.7208 134.7 50.5603 119.133 56.3955 103.566C44.063 77.3478 31.6891 51.145 19.35 24.929C18.3568 22.6362 17.0455 20.3652 14.9828 18.8722C10.7137 15.6818 5.16602 15.2776 0.0256462 15.0733C0.0212899 11.3158 0.0256461 7.5604 0.023468 3.80284C17.3592 3.79632 34.6927 3.7985 52.0284 3.80067C52.0306 7.55822 52.0327 11.3158 52.0262 15.0733C49.7675 15.2168 47.3694 15.1798 45.3241 16.2947C44.3091 16.7728 43.7123 17.9768 43.9737 19.0721C44.2939 20.865 45.714 22.1451 46.4328 23.7642C53.7535 39.4963 61.0742 55.2307 68.4166 70.9563C72.0955 60.692 75.7743 50.43 79.4684 40.1722C80.0108 38.7466 80.2024 37.0992 79.5839 35.6649C79.0981 34.5326 77.996 33.8328 76.9091 33.3612C74.7963 32.4919 72.4745 32.5006 70.2353 32.3398C71.3789 29.169 72.5289 25.9983 73.7138 22.8449C73.9883 22.6688 74.3694 22.8036 74.6853 22.7601C92.2736 22.771 109.864 22.7601 127.455 22.7666C126.239 25.9526 125.03 29.1386 123.828 32.3289C119.592 32.5245 115.225 32.631 111.252 34.2827C109.431 35.0433 107.708 36.206 106.632 37.8881C105.885 39.1204 105.421 40.496 104.92 41.8391C97.5708 61.8374 90.1543 81.8095 82.8881 101.838C86.9133 110.916 91.1083 119.915 95.2141 128.956C110.123 93.8276 125.028 58.6948 139.955 23.5729C140.961 21.4605 142.599 19.5328 142.728 17.1031C142.852 15.2015 141.438 13.5607 139.8 12.7805C136.27 11.155 132.301 11.0745 128.485 10.9376C128.481 7.57778 128.481 4.21793 128.485 0.858087Z" fill="white"/>
<path d="M155.596 190.005C160.303 194.869 164.973 199.765 169.634 204.67C169.628 200.11 169.654 195.549 169.649 190.989C170.455 190.992 171.261 190.983 172.069 190.972C172.071 197.481 172.071 203.992 172.069 210.501C167.358 205.661 162.716 200.756 158.029 195.892C158.036 200.48 158.018 205.07 158.016 209.66C157.208 209.666 156.402 209.664 155.596 209.664C155.594 203.11 155.592 196.557 155.596 190.005Z" fill="white"/>
<path d="M18.5724 190.674C23.7585 189.879 29.2452 193.93 29.707 199.206C30.1426 202.225 28.9686 205.372 26.7534 207.452C23.1116 211.007 16.562 210.942 13.0269 207.26C11.1167 205.413 10.0276 202.751 10.143 200.093C10.1953 195.468 14.0266 191.337 18.5724 190.674ZM18.5746 193.065C15.5557 193.556 13.0988 196.201 12.6762 199.198C12.1012 202.603 14.2074 206.267 17.5029 207.38C20.3868 208.467 23.8957 207.443 25.7471 204.987C28.1409 201.99 27.7358 197.155 24.7909 194.666C23.1356 193.165 20.7418 192.669 18.5746 193.065Z" fill="white"/>
<path d="M56.0231 191.68C58.6804 189.69 63.0214 190.513 64.5548 193.521C63.9144 193.882 63.2741 194.245 62.6337 194.606C61.4815 192.808 58.6739 192.369 57.1252 193.895C56.4696 194.373 56.5415 195.249 56.6112 195.968C56.7985 196.907 57.8004 197.305 58.5388 197.746C60.4425 198.746 62.7295 199.322 64.0669 201.134C65.5589 203.157 65.3128 206.17 63.6857 208.043C61.9846 210.097 58.8742 210.596 56.4957 209.521C54.6705 208.621 53.5422 206.719 53.1763 204.77C53.9931 204.577 54.8142 204.398 55.6332 204.216C55.716 205.993 57.0991 207.791 58.981 207.823C61.5207 208.099 63.5398 204.805 62.0608 202.703C60.4817 200.558 57.4367 200.528 55.6201 198.674C53.4812 196.929 53.6968 193.167 56.0231 191.68Z" fill="white"/>
<path d="M142.728 190.661C146.126 190.237 149.637 191.802 151.723 194.484C154.731 198.239 154.25 204.231 150.68 207.46C148.641 209.471 145.644 210.299 142.83 210.001C140.049 209.818 137.446 208.262 135.841 206.011C134.111 203.609 133.662 200.4 134.481 197.576C135.551 193.919 138.962 191.139 142.728 190.661ZM142.312 193.097C138.565 193.734 135.886 197.716 136.544 201.419C136.96 204.981 140.347 207.88 143.93 207.812C146.374 207.854 148.705 206.472 150.022 204.45C152.024 201.556 151.497 197.279 148.918 194.897C147.23 193.191 144.623 192.615 142.312 193.097Z" fill="white"/>
<path d="M1.9707 190.976C2.74394 190.972 3.51717 190.972 4.29041 190.976C4.29258 196.494 4.28823 202.014 4.29258 207.532C6.21369 207.536 8.13262 207.532 10.0537 207.534C10.0581 208.243 10.0581 208.951 10.0559 209.662C7.35939 209.664 4.66504 209.666 1.9707 209.662C1.97288 203.433 1.97288 197.205 1.9707 190.976Z" fill="white"/>
<path d="M31.5823 190.992C32.4013 190.985 33.2203 190.987 34.0414 190.989C34.048 194.666 34.0306 198.346 34.0502 202.023C34.0872 203.64 34.2876 205.418 35.4333 206.663C37.2564 208.447 40.8372 208.193 42.1092 205.88C42.7518 204.794 42.9391 203.507 42.9217 202.264C42.9064 198.507 42.9064 194.749 42.9086 190.989C43.7276 190.985 44.5465 190.987 45.3655 190.989C45.3655 194.825 45.3742 198.661 45.3633 202.497C45.3677 204.237 45.0649 206.078 43.9497 207.478C41.5516 210.792 35.993 210.981 33.3662 207.849C32.1182 206.545 31.6041 204.707 31.5867 202.938C31.5758 198.956 31.5845 194.973 31.5823 190.992Z" fill="white"/>
<path d="M48.3909 190.978C49.1968 190.97 50.0049 190.972 50.813 190.976C50.813 197.205 50.8152 203.433 50.8108 209.664C50.0049 209.664 49.1968 209.666 48.3887 209.66C48.3931 203.433 48.3931 197.205 48.3909 190.978Z" fill="white"/>
<path d="M72.6443 190.994C73.5308 190.97 74.4217 190.97 75.3104 190.974C77.1705 195.516 79.0023 200.069 80.8297 204.624C82.6528 200.084 84.5282 195.566 86.3099 191.011C87.2225 190.935 88.1374 190.987 89.0522 190.974C86.3317 197.583 83.6003 204.187 80.8559 210.785C78.0635 204.211 75.3714 197.594 72.6443 190.994Z" fill="white"/>
<path d="M90.1608 190.972C90.9667 190.983 91.7727 190.992 92.5807 190.989C92.6091 194.61 92.5764 198.233 92.6069 201.853C92.6635 203.572 92.7964 205.522 94.112 206.795C95.6301 208.093 98.0478 208.173 99.6684 207.019C100.611 206.35 101.13 205.237 101.335 204.129C101.657 202.221 101.542 200.28 101.563 198.354C101.576 195.901 101.579 193.447 101.574 190.994C102.35 190.985 103.127 190.987 103.905 190.989C103.94 194.393 103.911 197.794 103.92 201.197C103.975 203.307 103.907 205.598 102.62 207.38C100.365 210.625 95.1771 210.975 92.3237 208.338C90.897 207.021 90.1804 205.079 90.1695 203.162C90.1478 199.098 90.1652 195.036 90.1608 190.972Z" fill="white"/>
<path d="M106.945 190.989C107.786 190.992 108.627 190.983 109.47 190.974C109.47 197.203 109.468 203.431 109.47 209.662C108.623 209.664 107.778 209.664 106.932 209.662C106.924 203.438 106.952 197.214 106.945 190.989Z" fill="white"/>
<path d="M110.982 190.989C118.533 190.996 126.082 190.976 133.634 190.978C133.632 191.724 133.632 192.469 133.634 193.217C132.186 193.223 130.739 193.217 129.293 193.219C129.287 198.7 129.291 204.181 129.291 209.662C128.448 209.664 127.607 209.664 126.764 209.662C126.76 204.181 126.779 198.7 126.756 193.219C123.791 193.223 120.827 193.217 117.862 193.221C117.858 198.702 117.862 204.181 117.86 209.662C117.087 209.664 116.314 209.664 115.543 209.662C115.54 204.181 115.545 198.702 115.54 193.221C114.02 193.217 112.502 193.223 110.982 193.217C110.979 192.474 110.979 191.73 110.982 190.989Z" fill="white"/>
</svg>
