<svg width="130" height="70" viewBox="0 0 130 70" fill="none" xmlns="http://www.w3.org/2000/svg">
<path d="M55.3125 50.625H45.9375V44.375C45.9383 43.5465 46.2678 42.7521 46.8537 42.1662C47.4396 41.5803 48.234 41.2508 49.0625 41.25H52.1875V38.125H45.9375V35H52.1875C53.016 35.001 53.8103 35.3305 54.3962 35.9163C54.982 36.5022 55.3116 37.2965 55.3125 38.125V41.25C55.3116 42.0785 54.982 42.8728 54.3962 43.4587C53.8103 44.0445 53.016 44.374 52.1875 44.375H49.0625V47.5H55.3125V50.625ZM39.6875 44.375H33.4375C32.609 44.374 31.8147 44.0445 31.2288 43.4587C30.643 42.8728 30.3135 42.0785 30.3125 41.25V25.625C30.3133 24.7965 30.6428 24.0021 31.2287 23.4162C31.8146 22.8303 32.609 22.5008 33.4375 22.5H39.6875C40.516 22.5008 41.3104 22.8303 41.8963 23.4162C42.4822 24.0021 42.8117 24.7965 42.8125 25.625V41.25C42.8115 42.0785 42.482 42.8728 41.8962 43.4587C41.3103 44.0445 40.516 44.374 39.6875 44.375ZM33.4375 25.625V41.25H39.6875V25.625H33.4375ZM27.1875 44.375H17.8125C16.984 44.374 16.1897 44.0445 15.6038 43.4587C15.018 42.8728 14.6885 42.0785 14.6875 41.25V25.625C14.6883 24.7965 15.0178 24.0021 15.6037 23.4162C16.1896 22.8303 16.984 22.5008 17.8125 22.5H27.1875V25.625H17.8125V41.25H27.1875V44.375Z" fill="white"/>
<path d="M95 13.125C90.6735 13.125 86.4442 14.4079 82.8469 16.8116C79.2496 19.2153 76.4458 22.6317 74.7901 26.6288C73.1345 30.6259 72.7013 35.0243 73.5453 39.2676C74.3894 43.5109 76.4728 47.4087 79.532 50.468C82.5913 53.5272 86.4891 55.6106 90.7324 56.4547C94.9757 57.2987 99.3741 56.8655 103.371 55.2099C107.368 53.5542 110.785 50.7504 113.188 47.1531C115.592 43.5558 116.875 39.3265 116.875 35C116.868 29.2004 114.562 23.6402 110.461 19.5393C106.36 15.4383 100.8 13.1315 95 13.125ZM76.25 35C76.2517 32.368 76.8093 29.766 77.8863 27.3645C78.9634 24.9629 80.5356 22.816 82.5 21.0642V24.0625C82.5 24.8913 82.8293 25.6862 83.4153 26.2722C84.0014 26.8583 84.7962 27.1875 85.625 27.1875H90.9091C91.4896 27.1876 92.0587 27.0259 92.5525 26.7207C93.0463 26.4154 93.4454 25.9787 93.7049 25.4594L94.4035 24.0625H98.125V30.3125H90.6803C90.1957 30.3126 89.7176 30.4254 89.2841 30.642L84.2274 33.1705C83.7084 33.43 83.2719 33.8289 82.9668 34.3225C82.6617 34.8161 82.5001 35.3849 82.5 35.9652V41.755C82.5001 42.3795 82.6873 42.9897 83.0374 43.5069C83.3876 44.024 83.8847 44.4243 84.4645 44.6562L90.4781 47.0625L91.5374 53.4162C87.2442 52.6054 83.3684 50.3224 80.5778 46.9606C77.7872 43.5989 76.2567 39.369 76.25 35ZM94.7589 53.7378L93.2719 44.8125L85.625 41.755V35.9659L90.6809 33.4375H101.25V20.9375H92.4716L90.9091 24.0625H85.625V18.7867C88.0038 17.4019 90.6591 16.5598 93.4012 16.3205C96.1432 16.0813 98.9043 16.4508 101.487 17.4027C104.07 18.3547 106.41 19.8654 108.341 21.827C110.272 23.7887 111.745 26.1526 112.656 28.75H104.375V35L105.816 40.9586L102.813 45.4645V52.0227C100.364 53.1582 97.6986 53.7476 95 53.75C94.9188 53.75 94.8402 53.7386 94.7589 53.7378ZM105.938 50.1978V46.4105L108.415 42.6934C108.657 42.3309 108.821 41.9218 108.895 41.4925C108.97 41.0631 108.954 40.623 108.848 40.2002L107.5 34.8078V31.875H113.468C114.078 35.3288 113.695 38.885 112.361 42.1291C111.028 45.3732 108.8 48.1715 105.938 50.1978Z" fill="white"/>
<rect x="1" y="1" width="128" height="68" rx="34" stroke="white" stroke-width="2"/>
</svg>
