<svg width="320" height="50" viewBox="0 0 320 50" fill="none" xmlns="http://www.w3.org/2000/svg">
<path d="M6.30423 49.9915H1.82576C1.45209 49.9915 0.517212 49.9915 0.517212 49.4261C0.517212 49.0515 0.704748 48.8607 1.26456 48.6713C5.37495 47.3497 6.30283 45.0881 6.30283 41.8865V8.11353C6.30283 5.09428 5.36795 2.83126 1.26456 1.3287C0.704748 1.3287 0.517212 0.951291 0.517212 0.763294C0.517212 0.00989458 1.45209 0.197891 1.82576 0.197891H38.8025C47.2067 0.197891 54.1189 6.98273 54.1189 15.4765C54.1189 23.9703 47.2067 30.7466 38.8025 30.7466H20.1259V42.254C20.3134 45.2718 21.2455 47.3426 25.1642 48.6671C25.724 48.8565 25.9101 49.0459 25.9101 49.4219C25.9101 49.9873 24.9767 49.9873 24.603 49.9873H6.30423V49.9915ZM281.982 31.6937H290.76L281.982 16.6016L281.046 15.092L273.208 31.6937H281.982ZM281.982 0.00424052H287.959L312.984 44.5297C313.733 45.6605 314.664 46.7913 315.783 47.3567C316.717 48.113 317.836 48.3038 318.77 48.6784C319.145 48.8692 319.517 49.0586 319.517 49.4346C319.517 50 318.584 50 318.209 50H295.984C295.612 50 294.488 50 294.488 49.4346C294.488 49.0586 294.863 48.8692 295.24 48.6784C296.359 48.3038 297.104 47.737 297.479 46.6062C297.854 45.2831 297.479 44.5326 296.545 42.8307C295.277 40.1083 293.971 37.4047 292.627 34.72H271.708L271.523 35.096C271.334 35.8522 269.844 38.4884 268.724 41.3225C267.232 44.3403 266.671 45.0937 267.045 46.6033C267.234 47.7341 268.165 48.2995 269.284 48.677C269.661 48.8678 269.844 49.0572 269.844 49.4318C269.844 49.9972 268.908 49.9972 268.535 49.9972H258.262C257.889 49.9972 256.953 49.9972 256.953 49.4318C256.953 49.0572 257.142 48.8664 257.7 48.677C258.637 48.301 259.753 48.1116 260.688 47.3553C261.808 46.7899 262.744 45.6591 263.487 44.5283L264.796 41.7013L278.991 11.6982L276.934 8.11353C275.07 5.09428 273.2 3.20866 271.146 2.07644C270.212 1.51104 269.277 1.51104 268.346 1.13363C267.787 0.944223 267.598 0.754813 267.787 0.377407C267.787 0 268.159 0.18941 268.346 0H281.983L281.982 0.00424052ZM226.141 49.8007H226.888C261.257 49.8007 260.884 0.186583 226.888 0.186583H198.687C198.127 0.186583 197.195 -0.00282701 197.195 0.751986C197.195 0.939982 197.567 1.31739 197.939 1.31739C202.048 2.6376 202.978 4.90204 203.168 7.7333V42.2639C202.983 45.2803 202.048 47.3525 197.939 48.6755C197.567 48.8664 197.195 49.0558 197.195 49.4318C197.195 49.9972 198.128 49.9972 198.687 49.9972H216.803V49.8063H226.141V49.8007ZM226.141 3.77407C228.665 3.78411 231.082 4.80077 232.867 6.60263C234.652 8.4045 235.659 10.8456 235.67 13.3944V36.4091C235.66 38.958 234.652 41.3993 232.867 43.2013C231.082 45.0032 228.665 46.0198 226.141 46.0295H216.796V3.77407H226.141ZM154.977 31.6937H163.755L154.977 16.6016L154.042 15.092L146.205 31.6937H154.977ZM154.977 0.00424052H161.135L186.162 44.5297C186.722 45.6605 187.657 46.7913 188.778 47.3567C189.71 48.113 190.834 48.3038 191.954 48.6784C192.326 48.8692 192.698 49.0586 192.698 49.4346C192.698 50 191.579 50 191.206 50H168.989C168.614 50 167.68 50 167.68 49.4346C167.68 49.0586 167.865 48.8692 168.425 48.6784C169.361 48.3038 170.292 47.737 170.481 46.6062C170.853 45.2831 170.481 44.5326 169.733 42.8307C168.425 40.0037 166.934 37.3604 165.627 34.72H144.703L144.517 35.096C144.331 35.8522 143.022 38.4884 141.718 41.3225C140.411 44.3403 139.665 45.0937 140.038 46.6033C140.412 47.7341 141.158 48.2995 142.278 48.677C142.65 48.8678 143.024 49.0572 143.024 49.4318C143.024 49.9972 142.09 49.9972 141.532 49.9972H131.442C131.069 49.9972 129.948 49.9972 129.948 49.4318C129.948 49.0572 130.321 48.8664 130.695 48.677C131.815 48.301 132.75 48.1116 133.872 47.3553C134.804 46.7899 135.927 45.6591 136.485 44.5283L137.792 41.7013L152.175 11.6982L150.123 8.11353C148.256 5.09428 146.205 3.20866 144.333 2.07644C143.214 1.51104 142.465 1.51104 141.344 1.13363C140.969 0.944223 140.595 0.754813 140.784 0.377407C140.973 0 141.344 0.18941 141.533 0H154.98L154.977 0.00424052ZM93.3405 33.0153C97.637 34.5221 102.867 34.8981 106.975 33.5807L123.226 47.7299L124.533 48.8607C124.604 48.9347 124.658 49.0238 124.691 49.1217C124.724 49.2196 124.734 49.3236 124.722 49.4261C124.722 49.9915 123.787 49.9915 123.412 49.9915H106.23L93.3433 39.239L82.8819 30.748V42.4462C83.0708 45.2732 84.1904 47.3497 88.1119 48.6656C88.4855 48.8565 88.6717 49.0445 88.6717 49.4205C88.6717 49.9859 87.7368 49.9859 87.3617 49.9859H64.7637C64.2038 49.9859 63.269 49.9859 63.269 49.4205C63.269 49.0445 63.644 48.8551 64.0149 48.6656C68.4934 47.1589 69.0532 44.8944 69.2449 41.3154V8.67894C69.0574 5.28652 68.4976 2.83126 64.0149 1.3287C63.6412 1.3287 63.269 0.951291 63.269 0.763294C63.269 0.00989458 64.2038 0.197891 64.7637 0.197891H101.185C103.163 0.189334 105.124 0.574461 106.955 1.33128C108.786 2.0881 110.452 3.20178 111.856 4.60874C113.261 6.0157 114.378 7.68837 115.143 9.53124C115.908 11.3741 116.305 13.3511 116.314 15.3493V15.4765C116.328 19.5099 114.756 23.3841 111.943 26.2474C109.13 29.1107 105.307 30.729 101.314 30.7466H89.4176C89.9774 31.8774 91.2846 32.2562 92.4042 32.8231C92.7793 32.8231 92.964 33.0153 93.3391 33.0153H93.3405ZM93.3405 27.1676H94.8422C99.6971 27.1676 103.808 21.8839 103.808 15.092C103.799 8.48953 99.6901 3.20866 94.8422 3.20866H82.8805V27.1676H93.3405ZM30.7707 3.21008H20.1259V27.169H32.4543C37.4926 27.169 41.4112 21.8853 41.4112 15.0934C41.4112 8.49235 37.4926 3.21008 32.4543 3.21008H30.7707Z" fill="white"/>
</svg>
