<svg width="130" height="70" viewBox="0 0 130 70" fill="none" xmlns="http://www.w3.org/2000/svg">
<path d="M55.3125 31.875H53.75V25.625H50.625V31.875H47.5V25.625H44.375V31.875H42.8125C42.3981 31.875 42.0007 32.0396 41.7076 32.3326C41.4146 32.6257 41.25 33.0231 41.25 33.4375V39.6875C41.2523 41.4876 41.8753 43.2319 43.0138 44.6262C44.1523 46.0206 45.7367 46.9797 47.5 47.342V52.1875C47.4997 52.6018 47.3349 52.999 47.042 53.292C46.749 53.5849 46.3518 53.7497 45.9375 53.75H17.8125C17.3981 53.75 17.0007 53.5854 16.7076 53.2924C16.4146 52.9993 16.25 52.6019 16.25 52.1875C16.25 51.7731 16.4146 51.3757 16.7076 51.0826C17.0007 50.7896 17.3981 50.625 17.8125 50.625H25.625C26.8682 50.625 28.0605 50.1311 28.9396 49.2521C29.8186 48.373 30.3125 47.1807 30.3125 45.9375C30.3125 44.6943 29.8186 43.502 28.9396 42.6229C28.0605 41.7439 26.8682 41.25 25.625 41.25H17.8125C17.3981 41.25 17.0007 41.0854 16.7076 40.7924C16.4146 40.4993 16.25 40.1019 16.25 39.6875C16.25 39.2731 16.4146 38.8757 16.7076 38.5826C17.0007 38.2896 17.3981 38.125 17.8125 38.125H25.625C26.8678 38.1236 28.0593 37.6293 28.9381 36.7506C29.8168 35.8718 30.3111 34.6803 30.3125 33.4375V27.1875H31.875C33.532 27.1856 35.1207 26.5266 36.2924 25.3549C37.4641 24.1832 38.1231 22.5945 38.125 20.9375V16.25H33.4375C31.8377 16.2526 30.3006 16.8718 29.1456 17.9788C28.3362 16.5099 27.1479 15.2849 25.7043 14.4312C24.2607 13.5776 22.6146 13.1265 20.9375 13.125H16.25V17.8125C16.2527 20.2981 17.2413 22.681 18.9989 24.4386C20.7565 26.1962 23.1394 27.1848 25.625 27.1875H27.1875V33.4375C27.1872 33.8518 27.0224 34.249 26.7295 34.542C26.4365 34.8349 26.0393 34.9997 25.625 35H17.8125C16.5693 35 15.377 35.4939 14.4979 36.3729C13.6189 37.252 13.125 38.4443 13.125 39.6875C13.125 40.9307 13.6189 42.123 14.4979 43.0021C15.377 43.8811 16.5693 44.375 17.8125 44.375H25.625C26.0394 44.375 26.4368 44.5396 26.7299 44.8326C27.0229 45.1257 27.1875 45.5231 27.1875 45.9375C27.1875 46.3519 27.0229 46.7493 26.7299 47.0424C26.4368 47.3354 26.0394 47.5 25.625 47.5H17.8125C16.5693 47.5 15.377 47.9939 14.4979 48.8729C13.6189 49.752 13.125 50.9443 13.125 52.1875C13.125 53.4307 13.6189 54.623 14.4979 55.5021C15.377 56.3811 16.5693 56.875 17.8125 56.875H45.9375C47.1803 56.8736 48.3718 56.3793 49.2506 55.5006C50.1293 54.6218 50.6236 53.4303 50.625 52.1875V47.342C52.3883 46.9797 53.9727 46.0206 55.1112 44.6262C56.2497 43.2319 56.8727 41.4876 56.875 39.6875V33.4375C56.875 33.0231 56.7104 32.6257 56.4174 32.3326C56.1243 32.0396 55.7269 31.875 55.3125 31.875ZM30.3125 22.5C30.3133 21.6715 30.6428 20.8771 31.2287 20.2912C31.8146 19.7053 32.609 19.3758 33.4375 19.375H35V20.9375C34.9992 21.766 34.6697 22.5604 34.0838 23.1463C33.4979 23.7322 32.7035 24.0617 31.875 24.0625H30.3125V22.5ZM25.625 24.0625C23.968 24.0606 22.3793 23.4016 21.2076 22.2299C20.0359 21.0582 19.3769 19.4695 19.375 17.8125V16.25H20.9375C22.5945 16.2519 24.1832 16.9109 25.3549 18.0826C26.5266 19.2543 27.1856 20.843 27.1875 22.5V24.0625H25.625ZM53.75 39.6875C53.75 40.9307 53.2561 42.123 52.3771 43.0021C51.498 43.8811 50.3057 44.375 49.0625 44.375C47.8193 44.375 46.627 43.8811 45.7479 43.0021C44.8689 42.123 44.375 40.9307 44.375 39.6875V35H53.75V39.6875Z" fill="white"/>
<path d="M116.578 35L105.641 20.0625C105.5 19.8548 105.312 19.6839 105.092 19.5642C104.871 19.4446 104.626 19.3797 104.375 19.375H74.6875C74.2731 19.375 73.8757 19.5396 73.5826 19.8326C73.2896 20.1257 73.125 20.5231 73.125 20.9375V47.5C73.125 47.9144 73.2896 48.3118 73.5826 48.6049C73.8757 48.8979 74.2731 49.0625 74.6875 49.0625H78.0312C78.3911 50.3865 79.1766 51.5553 80.2666 52.3886C81.3565 53.222 82.6905 53.6734 84.0625 53.6734C85.4345 53.6734 86.7685 53.222 87.8584 52.3886C88.9484 51.5553 89.7339 50.3865 90.0938 49.0625H99.9062C100.266 50.3865 101.052 51.5553 102.142 52.3886C103.232 53.222 104.565 53.6734 105.938 53.6734C107.31 53.6734 108.643 53.222 109.733 52.3886C110.823 51.5553 111.609 50.3865 111.969 49.0625H115.312C115.727 49.0625 116.124 48.8979 116.417 48.6049C116.71 48.3118 116.875 47.9144 116.875 47.5V35.875C116.867 35.5601 116.763 35.2551 116.578 35ZM101.25 22.5H103.578L111.594 33.4375H101.25V22.5ZM76.25 22.5H98.125V33.4375H76.25V22.5ZM84.0625 50.625C83.4444 50.625 82.8402 50.4417 82.3263 50.0983C81.8124 49.755 81.4119 49.2669 81.1754 48.6959C80.9389 48.1249 80.877 47.4965 80.9975 46.8903C81.1181 46.2842 81.4158 45.7273 81.8528 45.2903C82.2898 44.8533 82.8467 44.5556 83.4528 44.435C84.059 44.3145 84.6874 44.3764 85.2584 44.6129C85.8294 44.8494 86.3175 45.2499 86.6608 45.7638C87.0042 46.2777 87.1875 46.8819 87.1875 47.5C87.1875 48.3288 86.8583 49.1237 86.2722 49.7097C85.6862 50.2958 84.8913 50.625 84.0625 50.625ZM105.938 50.625C105.319 50.625 104.715 50.4417 104.201 50.0983C103.687 49.755 103.287 49.2669 103.05 48.6959C102.814 48.1249 102.752 47.4965 102.873 46.8903C102.993 46.2842 103.291 45.7273 103.728 45.2903C104.165 44.8533 104.722 44.5556 105.328 44.435C105.934 44.3145 106.562 44.3764 107.133 44.6129C107.704 44.8494 108.192 45.2499 108.536 45.7638C108.879 46.2777 109.062 46.8819 109.062 47.5C109.062 48.3288 108.733 49.1237 108.147 49.7097C107.561 50.2958 106.766 50.625 105.938 50.625ZM113.75 45.9375H111.969C111.609 44.6135 110.823 43.4447 109.733 42.6114C108.643 41.778 107.31 41.3266 105.938 41.3266C104.565 41.3266 103.232 41.778 102.142 42.6114C101.052 43.4447 100.266 44.6135 99.9062 45.9375H90.0938C89.7339 44.6135 88.9484 43.4447 87.8584 42.6114C86.7685 41.778 85.4345 41.3266 84.0625 41.3266C82.6905 41.3266 81.3565 41.778 80.2666 42.6114C79.1766 43.4447 78.3911 44.6135 78.0312 45.9375H76.25V36.5625H113.75V45.9375Z" fill="white"/>
<rect x="1" y="1" width="128" height="68" rx="34" stroke="white" stroke-width="2"/>
</svg>
