<svg width="84" height="84" viewBox="0 0 84 84" fill="none" xmlns="http://www.w3.org/2000/svg">
<path d="M42.338 0C31.3132 0.0127039 20.7435 4.39793 12.9477 12.1937C5.15197 19.9895 0.766732 30.5591 0.754028 41.584C0.766468 52.6089 5.15162 63.1788 12.9474 70.9746C20.7433 78.7704 31.3131 83.1556 42.338 83.168C53.3631 83.1558 63.933 78.7708 71.7289 70.9749C79.5248 63.179 83.9099 52.609 83.922 41.584C83.9096 30.5591 79.5244 19.9892 71.7286 12.1934C63.9328 4.39759 53.363 0.0124398 42.338 0ZM61.67 72.481C61.462 72.405 61.279 72.315 61.279 72.247C61.2957 72.0732 61.2437 71.8997 61.1342 71.7637C61.0247 71.6277 60.8664 71.5399 60.693 71.519C60.37 71.519 59.009 70.978 58.655 70.978C58.4878 70.9803 58.3273 71.044 58.204 71.157C58.076 71.045 57.515 70.651 57.515 70.457C57.5376 70.225 57.4683 69.9935 57.3221 69.8119C57.176 69.6304 56.9645 69.5134 56.733 69.486C56.305 69.486 55.305 69.036 54.876 69.036C54.447 69.036 50.57 67.074 50.137 67.074C50.0357 67.076 49.9359 67.1001 49.8448 67.1445C49.7536 67.1888 49.6732 67.2525 49.609 67.331C49.5548 67.1946 49.4626 67.0767 49.3432 66.9913C49.2239 66.9058 49.0826 66.8564 48.936 66.849C48.8514 66.8306 48.7756 66.7839 48.7211 66.7167C48.6665 66.6494 48.6366 66.5656 48.636 66.479C48.6586 66.2479 48.59 66.0171 48.4449 65.8359C48.2997 65.6547 48.0895 65.5374 47.859 65.509C47.577 65.509 46.849 64.909 46.418 64.909C46.37 64.909 45.062 63.827 44.632 63.827C44.2675 63.7243 43.9189 63.5719 43.596 63.374C43.346 57.752 42.705 53.488 42.459 51.281C42.334 50.162 42.251 49.553 42.251 49.553C42.086 48.491 41.964 47.153 41.873 45.623C41.345 36.713 41.868 21.213 42.187 14.501C42.233 13.472 42.277 12.64 42.308 12.078C42.308 11.978 42.319 11.893 42.324 11.816C42.324 11.71 42.332 11.616 42.338 11.55C42.344 11.427 42.347 11.363 42.347 11.363C41.8729 12.2255 41.5924 13.181 41.525 14.163C40.538 19.9799 39.9185 25.8532 39.67 31.748C39.57 33.709 39.516 35.572 39.484 37.309C39.3689 41.1714 39.4774 45.0372 39.809 48.887C40.144 53.503 40.448 57.987 40.909 63.607C40.773 63.656 40.63 63.707 40.48 63.775C39.81 64.058 39.08 64.467 38.995 64.769C38.93 64.993 38.708 65.239 38.532 65.239C38.193 65.239 37.384 66.476 37.295 66.476C36.5642 66.752 35.9568 67.281 35.583 67.967C35.3444 68.3229 34.9782 68.5734 34.56 68.667C34.13 68.667 33.31 69.638 32.88 69.638C32.58 69.638 31.404 69.956 30.98 69.956C30.8225 69.9649 30.6713 70.0212 30.5464 70.1176C30.4215 70.214 30.3286 70.3459 30.28 70.496C29.9663 70.2336 29.5669 70.0958 29.158 70.109C28.402 70.109 27.417 70.831 27.221 70.831C27.0807 70.8322 26.9445 70.8781 26.832 70.962C26.719 70.8778 26.582 70.8318 26.441 70.831C26.4037 70.8315 26.3666 70.8356 26.33 70.843C26.2938 70.8356 26.257 70.8316 26.22 70.831C25.786 70.831 24.636 72.196 24.358 72.196C24.031 72.268 23.7154 72.3844 23.42 72.542H23.091C17.8263 69.2705 13.4823 64.7111 10.4692 59.2944C7.45602 53.8777 5.87315 47.7824 5.87003 41.584C5.88114 31.916 9.72666 22.6472 16.563 15.8109C23.3992 8.97463 32.6681 5.12911 42.336 5.118C52.0045 5.12832 61.2741 8.97348 68.111 15.8099C74.948 22.6462 78.7939 31.9155 78.805 41.584C78.8011 47.764 77.2266 53.8417 74.2293 59.2463C71.232 64.6508 66.9103 69.205 61.67 72.481Z" fill="white"/>
<path d="M37.2321 42.184C35.5772 39.6047 33.0276 37.7278 30.0731 36.914C29.7071 36.798 29.3271 36.692 28.9301 36.593C28.9301 36.593 23.5131 35.32 21.2941 35.512C21.2941 35.512 21.3291 35.529 21.4021 35.561C21.7021 35.696 22.3401 36.124 23.6401 36.797C26.6195 38.3183 29.4516 40.1123 32.1001 42.156C35.1191 44.543 37.9641 45.943 38.9411 49.099C38.9212 47.5775 38.7269 46.0633 38.3621 44.586C38.0747 43.7463 37.6958 42.9408 37.2321 42.184Z" fill="white"/>
<path d="M47.3161 23.383C49.1035 22.2606 50.9913 21.3065 52.9551 20.533C53.8121 20.19 54.4281 19.978 54.6251 19.91C54.6721 19.894 54.6961 19.888 54.6961 19.888C53.0099 19.7922 51.3184 19.8592 49.6451 20.088C49.3901 20.123 49.1451 20.168 48.9081 20.219C47.0026 20.5494 45.2868 21.5731 44.0911 23.093C43.0531 24.417 42.6451 27.569 42.5911 28.281C43.6599 26.2262 45.301 24.525 47.3161 23.383Z" fill="white"/>
<path d="M44.489 49.074C44.847 48.589 45.198 48.06 45.609 47.548C46.039 47.055 46.444 46.512 46.939 46.035L47.662 45.292L48.434 44.592C48.8 44.243 49.201 43.935 49.597 43.625C49.736 43.515 49.874 43.406 50.015 43.298L50.037 43.281C50.0421 43.2753 50.0482 43.2706 50.055 43.267C50.24 43.127 50.423 42.986 50.611 42.853C51.135 42.49 51.661 42.144 52.194 41.848C52.294 41.789 52.4 41.737 52.502 41.681C52.5079 41.6786 52.5133 41.6752 52.518 41.671L52.564 41.648C52.746 41.548 52.927 41.453 53.107 41.364L53.328 41.246C53.768 41.024 54.197 40.839 54.606 40.672C52.4823 40.8512 50.4101 41.4218 48.494 42.355C48.0013 42.6502 47.5253 42.9724 47.068 43.32C45.6119 44.3488 44.4524 45.7429 43.706 47.362C43.566 47.6866 43.4493 48.0208 43.357 48.362C43.2823 48.635 43.2239 48.9121 43.182 49.192C43.23 49.883 43.295 50.492 43.376 51.003C43.453 50.85 43.526 50.697 43.607 50.535C43.881 50.074 44.17 49.588 44.489 49.074Z" fill="white"/>
<path d="M56.7701 40.209C56.6291 40.231 56.4871 40.255 56.3291 40.287C56.1871 40.321 56.0291 40.361 55.8781 40.4C55.5251 40.509 55.1531 40.661 54.7471 40.829C54.2821 41.041 53.7821 41.284 53.2741 41.574C53.0214 41.724 52.7627 41.8773 52.4981 42.034C52.2381 42.196 51.9821 42.382 51.7171 42.559C51.1781 42.902 50.6771 43.338 50.1421 43.739C49.6471 44.191 49.1081 44.608 48.6421 45.103L47.9241 45.821C47.7014 46.075 47.4801 46.3273 47.2601 46.578C46.8041 47.066 46.4391 47.615 46.0481 48.11C45.6791 48.622 45.3661 49.151 45.0481 49.63C44.7771 50.138 44.5181 50.62 44.2801 51.061L43.7401 52.32C43.7091 52.383 43.6871 52.446 43.6611 52.507C43.6181 52.643 43.5881 52.733 43.5751 52.775C44.7951 52.4574 45.9722 51.9937 47.0811 51.394C48.6882 50.5411 50.1624 49.4583 51.4571 48.1799C53.193 46.449 54.593 44.4113 55.5861 42.17C56.1692 41.1772 57.1174 40.4519 58.2281 40.149L58.1371 40.143C57.6803 40.1219 57.2226 40.144 56.7701 40.209Z" fill="white"/>
<path d="M36.9751 19.739C36.6682 19.5075 36.3494 19.2922 36.0201 19.094C34.738 18.4693 33.3512 18.0875 31.9301 17.968C32.2041 18.079 32.4901 18.202 32.7851 18.352L32.9341 18.429C33.0541 18.489 33.1751 18.554 33.2961 18.619C33.3058 18.626 33.3162 18.632 33.3271 18.637L33.3381 18.643L33.5381 18.753C33.8961 18.953 34.2471 19.184 34.5981 19.426C34.7231 19.516 34.8461 19.609 34.9701 19.704L34.9831 19.713L34.9971 19.723C35.0971 19.795 35.1841 19.869 35.2761 19.944C35.5462 20.1464 35.8058 20.3623 36.0541 20.591L36.5731 21.057C36.7341 21.225 36.8951 21.39 37.0541 21.557C37.3861 21.876 37.6541 22.241 37.9461 22.57C38.2191 22.913 38.4551 23.265 38.6941 23.592C38.8311 23.816 39.0941 24.331 39.2701 24.636L39.4291 23.136C39.3581 22.888 39.2651 22.556 39.2181 22.446C38.7211 21.3624 37.9475 20.4287 36.9751 19.739Z" fill="white"/>
<path d="M39.0851 25.697C38.9771 25.4437 38.8564 25.163 38.7231 24.855L38.2091 23.896C37.9951 23.574 37.7871 23.223 37.5401 22.879C37.2771 22.548 37.0321 22.179 36.7281 21.854L36.2841 21.348L35.8031 20.867C35.4901 20.536 35.1291 20.257 34.7981 19.954C34.4411 19.686 34.1061 19.395 33.7441 19.165C33.5661 19.045 33.3961 18.921 33.2221 18.814C33.0481 18.707 32.8721 18.607 32.7031 18.506C32.3621 18.311 32.0281 18.149 31.7171 18.006C31.4451 17.895 31.1961 17.792 30.9591 17.719C30.8591 17.693 30.7591 17.667 30.6591 17.645C30.5591 17.623 30.4591 17.606 30.3591 17.593C30.0576 17.5484 29.7525 17.533 29.4481 17.547C29.4111 17.547 29.3881 17.547 29.3881 17.547C30.1314 17.7506 30.7656 18.237 31.1551 18.902C31.8204 20.4016 32.7583 21.7647 33.9211 22.922C34.7856 23.7787 35.7715 24.5034 36.8471 25.073C37.5881 25.4761 38.376 25.7862 39.1931 25.996C39.1831 25.969 39.1641 25.908 39.1351 25.818C39.1211 25.78 39.1041 25.74 39.0851 25.697Z" fill="white"/>
</svg>
