<svg width="222" height="454" viewBox="0 0 222 454" fill="none" xmlns="http://www.w3.org/2000/svg">
<path d="M101 216.5V218.463L102.588 217.309L183.489 158.53L184.299 157.943L183.711 157.134C164.707 130.978 134.331 115.5 102 115.5H101V116.5V216.5Z" fill="#5B5959" stroke="white" stroke-width="2"/>
<path d="M101.412 215.691L99.9406 216.76L101.632 217.43L194.61 254.242L195.539 254.611L195.907 253.681C208.636 221.532 204.034 185.107 183.711 157.134L183.123 156.325L182.314 156.913L101.412 215.691Z" fill="black" stroke="white" stroke-width="2"/>
<path d="M102.375 215.57L101.654 215.285L101.198 215.912L42.4195 296.814L41.8317 297.623L42.6407 298.211C49.4951 303.191 56.9489 307.288 64.8265 310.407C116.69 330.942 175.38 305.544 195.914 253.681L196.283 252.751L195.353 252.383L102.375 215.57Z" fill="#E5E5E5" stroke="white" stroke-width="2"/>
<path d="M102.816 217.088L103.007 216.825V216.5V116.5V115.5H102.007C69.6765 115.5 39.2998 130.978 20.2964 157.134C-12.4907 202.261 -2.4868 265.424 42.6408 298.211L43.4498 298.799L44.0376 297.989L102.816 217.088Z" fill="#A6A6A6" stroke="white" stroke-width="2"/>
<g style="mix-blend-mode:difference">
<path d="M221 200H221.5V199.5H221V200ZM176.833 200C176.833 201.473 178.027 202.667 179.5 202.667C180.973 202.667 182.167 201.473 182.167 200C182.167 198.527 180.973 197.333 179.5 197.333C178.027 197.333 176.833 198.527 176.833 200ZM179.5 200.5H181.575V199.5H179.5V200.5ZM185.725 200.5H189.875V199.5H185.725V200.5ZM194.025 200.5H198.175V199.5H194.025V200.5ZM202.325 200.5H206.475V199.5H202.325V200.5ZM210.625 200.5H214.775V199.5H210.625V200.5ZM218.925 200.5H221V199.5H218.925V200.5ZM220.5 200V201.927H221.5V200H220.5ZM220.5 205.781V209.635H221.5V205.781H220.5ZM220.5 213.49V217.344H221.5V213.49H220.5ZM220.5 221.198V225.052H221.5V221.198H220.5ZM220.5 228.906V232.76H221.5V228.906H220.5ZM220.5 236.615V240.469H221.5V236.615H220.5ZM220.5 244.323V248.177H221.5V244.323H220.5ZM220.5 252.031V255.885H221.5V252.031H220.5ZM220.5 259.74V263.594H221.5V259.74H220.5ZM220.5 267.448V271.302H221.5V267.448H220.5ZM220.5 275.156V279.01H221.5V275.156H220.5ZM220.5 282.865V286.719H221.5V282.865H220.5ZM220.5 290.573V292.5H221.5V290.573H220.5ZM220.5 292.5V294.562H221.5V292.5H220.5ZM220.5 298.688V302.812H221.5V298.688H220.5ZM220.5 306.938V311.062H221.5V306.938H220.5ZM220.5 315.188V319.312H221.5V315.188H220.5ZM220.5 323.438V327.562H221.5V323.438H220.5ZM220.5 331.688V335.812H221.5V331.688H220.5ZM220.5 339.938V342H221.5V339.938H220.5Z" fill="white"/>
</g>
<path d="M113.833 266C113.833 267.473 115.027 268.667 116.5 268.667C117.973 268.667 119.167 267.473 119.167 266C119.167 264.527 117.973 263.333 116.5 263.333C115.027 263.333 113.833 264.527 113.833 266ZM13.5001 324.5L13.2531 324.065L13.0001 324.209L13.0001 324.5L13.5001 324.5ZM13.5 453L13 453L13 453.5L13.5 453.5L13.5 453ZM34.5 452.5L32.75 452.5L32.75 453.5L34.5 453.5L34.5 452.5ZM29.25 452.5L25.75 452.5L25.75 453.5L29.25 453.5L29.25 452.5ZM22.25 452.5L18.75 452.5L18.75 453.5L22.25 453.5L22.25 452.5ZM15.25 452.5L13.5 452.5L13.5 453.5L15.25 453.5L15.25 452.5ZM14 453L14 450.993L13 450.993L13 453L14 453ZM14 446.977L14 442.961L13 442.961L13 446.977L14 446.977ZM14 438.946L14 434.93L13 434.93L13 438.946L14 438.946ZM14 430.914L14 426.899L13 426.899L13 430.914L14 430.914ZM14 422.883L14 418.867L13 418.867L13 422.883L14 422.883ZM14 414.852L14 410.836L13 410.836L13 414.852L14 414.852ZM14 406.821L14 402.805L13 402.805L13 406.821L14 406.821ZM14 398.789L14 394.774L13 394.774L13 398.789L14 398.789ZM14 390.758L14 386.742L13 386.742L13 390.758L14 390.758ZM14 382.727L14 378.711L13 378.711L13 382.727L14 382.727ZM14 374.696L14 370.68L13 370.68L13 374.696L14 374.696ZM14 366.664L14 362.649L13 362.649L13 366.664L14 366.664ZM14 358.633L14 354.617L13 354.617L13 358.633L14 358.633ZM14 350.602L14 346.586L13 346.586L13 350.602L14 350.602ZM14 342.571L14.0001 338.555L13.0001 338.555L13 342.571L14 342.571ZM14.0001 334.539L14.0001 330.524L13.0001 330.524L13.0001 334.539L14.0001 334.539ZM14.0001 326.508L14.0001 324.5L13.0001 324.5L13.0001 326.508L14.0001 326.508ZM13.747 324.935L15.4637 323.96L14.9698 323.09L13.2531 324.065L13.747 324.935ZM18.897 322.01L22.3303 320.06L21.8365 319.19L18.4031 321.14L18.897 322.01ZM25.7637 318.11L29.197 316.16L28.7031 315.29L25.2698 317.24L25.7637 318.11ZM32.6303 314.21L36.0636 312.26L35.5698 311.39L32.1364 313.34L32.6303 314.21ZM39.497 310.31L42.9303 308.36L42.4364 307.49L39.0031 309.44L39.497 310.31ZM46.3636 306.41L49.797 304.46L49.3031 303.59L45.8698 305.54L46.3636 306.41ZM53.2303 302.51L56.6636 300.56L56.1698 299.69L52.7364 301.64L53.2303 302.51ZM60.097 298.61L63.5303 296.66L63.0364 295.79L59.6031 297.74L60.097 298.61ZM66.9636 294.71L70.397 292.76L69.9031 291.89L66.4698 293.84L66.9636 294.71ZM73.8303 290.81L77.2636 288.86L76.7698 287.99L73.3364 289.94L73.8303 290.81ZM80.697 286.91L84.1303 284.96L83.6364 284.09L80.2031 286.04L80.697 286.91ZM87.5636 283.01L90.997 281.06L90.5031 280.19L87.0698 282.14L87.5636 283.01ZM94.4303 279.11L97.8636 277.16L97.3698 276.29L93.9364 278.24L94.4303 279.11ZM101.297 275.21L104.73 273.26L104.236 272.39L100.803 274.34L101.297 275.21ZM108.164 271.31L111.597 269.36L111.103 268.49L107.67 270.44L108.164 271.31ZM115.03 267.41L116.747 266.435L116.253 265.565L114.536 266.54L115.03 267.41Z" fill="#232323"/>
<path d="M124.833 160C124.833 161.473 126.027 162.667 127.5 162.667C128.973 162.667 130.167 161.473 130.167 160C130.167 158.527 128.973 157.333 127.5 157.333C126.027 157.333 124.833 158.527 124.833 160ZM127.5 75V74.5H127V75H127.5ZM128 160V158.143H127V160H128ZM128 154.429V150.714H127V154.429H128ZM128 147V143.286H127V147H128ZM128 139.571V135.857H127V139.571H128ZM128 132.143V128.429H127V132.143H128ZM128 124.714V121H127V124.714H128ZM128 117.286V113.571H127V117.286H128ZM128 109.857V108H127V109.857H128ZM128 108V105.938H127V108H128ZM128 101.812V97.6875H127V101.812H128ZM128 93.5625V89.4375H127V93.5625H128ZM128 85.3125V81.1875H127V85.3125H128ZM128 77.0625V75H127V77.0625H128ZM127.5 75.5H130.375V74.5H127.5V75.5ZM136.125 75.5H139V74.5H136.125V75.5Z" fill="#232323"/>
<path d="M56.8333 197C56.8333 198.473 58.0272 199.667 59.5 199.667C60.9728 199.667 62.1667 198.473 62.1667 197C62.1667 195.527 60.9728 194.333 59.5 194.333C58.0272 194.333 56.8333 195.527 56.8333 197ZM59.5 1V0.5H59V1H59.5ZM60 197V195.04H59V197H60ZM60 191.12V187.2H59V191.12H60ZM60 183.28V179.36H59V183.28H60ZM60 175.44V171.52H59V175.44H60ZM60 167.6V163.68H59V167.6H60ZM60 159.76V155.84H59V159.76H60ZM60 151.92V148H59V151.92H60ZM60 144.08V140.16H59V144.08H60ZM60 136.24V132.32H59V136.24H60ZM60 128.4V124.48H59V128.4H60ZM60 120.56V116.64H59V120.56H60ZM60 112.72V108.8H59V112.72H60ZM60 104.88V100.96H59V104.88H60ZM60 97.04V93.12H59V97.04H60ZM60 89.2V85.28H59V89.2H60ZM60 81.36V77.44H59V81.36H60ZM60 73.5201V69.6H59V73.5201H60ZM60 65.68V61.76H59V65.68H60ZM60 57.84V53.92H59V57.84H60ZM60 50V46.0801H59V50H60ZM60 42.1601V38.24H59V42.1601H60ZM60 34.32V30.4001H59V34.32H60ZM60 26.4801V22.5601H59V26.4801H60ZM60 18.6401V14.7201H59V18.6401H60ZM60 10.8001V6.88006H59V10.8001H60ZM60 2.96007V1H59V2.96007H60ZM59.5 1.5H61.0625V0.5H59.5V1.5ZM64.1875 1.5H67.3125V0.5H64.1875V1.5ZM70.4375 1.5H72V0.5H70.4375V1.5Z" fill="#232323"/>
</svg>
