<svg width="254" height="294" viewBox="0 0 254 294" fill="none" xmlns="http://www.w3.org/2000/svg">
<path d="M101.007 191.5V193.463L102.595 192.309L183.497 133.53L184.306 132.943L183.718 132.134C164.715 105.978 134.338 90.5 102.007 90.5H101.007V91.5V191.5Z" fill="#5B5959" stroke="white" stroke-width="2"/>
<path d="M101.42 190.691L99.9479 191.76L101.639 192.43L194.617 229.242L195.547 229.611L195.915 228.681C208.643 196.532 204.042 160.107 183.718 132.134L183.13 131.325L182.321 131.913L101.42 190.691Z" fill="black" stroke="white" stroke-width="2"/>
<path d="M102.375 190.57L101.654 190.285L101.198 190.912L42.4195 271.814L41.8317 272.623L42.6407 273.211C49.4951 278.191 56.9489 282.288 64.8265 285.407C116.69 305.942 175.38 280.544 195.914 228.681L196.283 227.751L195.353 227.383L102.375 190.57Z" fill="#E5E5E5" stroke="white" stroke-width="2"/>
<path d="M102.816 192.088L103.007 191.825V191.5V91.5V90.5H102.007C69.6765 90.5 39.2998 105.978 20.2964 132.134C-12.4907 177.261 -2.4868 240.424 42.6408 273.211L43.4498 273.799L44.0376 272.989L102.816 192.088Z" fill="#A6A6A6" stroke="white" stroke-width="2"/>
<path d="M253 138H223L172 183.5" stroke="#232323" stroke-dasharray="4 4"/>
<path d="M130.333 273.501C130.333 274.973 131.527 276.167 133 276.167C134.473 276.167 135.667 274.973 135.667 273.501C135.667 272.028 134.473 270.834 133 270.834C131.527 270.834 130.333 272.028 130.333 273.501ZM215.5 273.5L215.5 274L216 274L216 273.5L215.5 273.5ZM215.5 202L215.5 201.5L215 201.5L215 202L215.5 202ZM133 274.001L135.062 274.001L135.062 273.001L133 273.001L133 274.001ZM139.187 274.001L143.312 274.001L143.312 273.001L139.187 273.001L139.187 274.001ZM147.437 274.001L151.562 274.001L151.562 273.001L147.437 273.001L147.437 274.001ZM155.687 274.001L159.812 274.001L159.812 273.001L155.687 273.001L155.687 274.001ZM163.937 274.001L168.062 274L168.062 273L163.937 273.001L163.937 274.001ZM172.187 274L176.312 274L176.312 273L172.187 273L172.187 274ZM180.437 274L184.563 274L184.562 273L180.437 273L180.437 274ZM188.688 274L192.812 274L192.812 273L188.687 273L188.688 274ZM196.937 274L201.063 274L201.063 273L196.937 273L196.937 274ZM205.188 274L209.313 274L209.313 273L205.188 273L205.188 274ZM213.438 274L215.5 274L215.5 273L213.438 273L213.438 274ZM216 273.5L216 271.514L215 271.514L215 273.5L216 273.5ZM216 267.542L216 263.57L215 263.57L215 267.542L216 267.542ZM216 259.598L216 255.625L215 255.625L215 259.598L216 259.598ZM216 251.653L216 247.681L215 247.681L215 251.653L216 251.653ZM216 243.709L216 239.736L215 239.736L215 243.709L216 243.709ZM216 235.764L216 231.792L215 231.792L215 235.764L216 235.764ZM216 227.82L216 223.847L215 223.847L215 227.82L216 227.82ZM216 219.875L216 215.903L215 215.903L215 219.875L216 219.875ZM216 211.931L216 207.958L215 207.958L215 211.931L216 211.931ZM216 203.986L216 202L215 202L215 203.986L216 203.986ZM215.5 202.5L217.4 202.5L217.4 201.5L215.5 201.5L215.5 202.5ZM221.2 202.5L225 202.5L225 201.5L221.2 201.5L221.2 202.5ZM228.8 202.5L232.6 202.5L232.6 201.5L228.8 201.5L228.8 202.5ZM236.4 202.5L240.2 202.5L240.2 201.5L236.4 201.5L236.4 202.5ZM244 202.5L247.8 202.5L247.8 201.5L244 201.5L244 202.5ZM251.6 202.5L253.5 202.5L253.5 201.5L251.6 201.5L251.6 202.5Z" fill="#232323"/>
<path d="M137.833 120C137.833 121.473 139.027 122.667 140.5 122.667C141.973 122.667 143.167 121.473 143.167 120C143.167 118.527 141.973 117.333 140.5 117.333C139.027 117.333 137.833 118.527 137.833 120ZM140.5 77.5V77H140V77.5L140.5 77.5ZM141 120V117.875H140V120H141ZM141 113.625V109.375H140V113.625H141ZM141 105.125V100.875H140V105.125H141ZM141 96.625V92.375H140V96.625H141ZM141 88.125V83.875H140V88.125H141ZM141 79.625V77.5L140 77.5V79.625H141ZM140.5 78H142.5V77H140.5V78ZM146.5 78H150.5V77H146.5V78ZM154.5 78H158.5V77H154.5V78ZM162.5 78H166.5V77H162.5V78ZM170.5 78H174.5V77H170.5V78ZM178.5 78H182.5V77H178.5V78ZM186.5 78H190.5V77H186.5V78ZM194.5 78H198.5V77H194.5V78ZM202.5 78H206.5V77H202.5V78ZM210.5 78H214.5V77H210.5V78ZM218.5 78H222.5V77H218.5V78ZM226.5 78H230.5V77H226.5V78ZM234.5 78H238.5V77H234.5V78ZM242.5 78H246.5V77H242.5V78ZM250.5 78H252.5V77H250.5V78Z" fill="#232323"/>
<path d="M41.3333 120C41.3333 121.473 42.5272 122.667 44 122.667C45.4728 122.667 46.6667 121.473 46.6667 120C46.6667 118.527 45.4728 117.333 44 117.333C42.5272 117.333 41.3333 118.527 41.3333 120ZM44 1V0.5H43.5V1L44 1ZM44.5 120V118.017H43.5V120H44.5ZM44.5 114.05V110.083H43.5V114.05H44.5ZM44.5 106.117V102.15H43.5V106.117H44.5ZM44.5 98.1833V94.2167H43.5V98.1833H44.5ZM44.5 90.25V86.2833H43.5V90.25H44.5ZM44.5 82.3167V78.35H43.5V82.3167H44.5ZM44.5 74.3833V70.4167H43.5V74.3833H44.5ZM44.5 66.45V62.4833H43.5V66.45H44.5ZM44.5 58.5167V54.55H43.5V58.5167H44.5ZM44.5 50.5833V46.6167H43.5V50.5833H44.5ZM44.5 42.65V38.6833H43.5V42.65H44.5ZM44.5 34.7167V30.75H43.5V34.7167H44.5ZM44.5 26.7833V22.8167H43.5V26.7833H44.5ZM44.5 18.85V14.8833H43.5V18.85H44.5ZM44.5 10.9167V6.94999H43.5V10.9167H44.5ZM44.5 2.98332V1L43.5 1V2.98332L44.5 2.98332ZM44 1.5H46.0096V0.5H44V1.5ZM50.0288 1.5H54.0481V0.5H50.0288V1.5ZM58.0673 1.5H62.0865V0.5H58.0673V1.5ZM66.1058 1.5H70.125V0.5H66.1058V1.5ZM74.1442 1.5H78.1635V0.5H74.1442V1.5ZM82.1827 1.5H86.2019V0.5H82.1827V1.5ZM90.2211 1.5H94.2404V0.5H90.2211V1.5ZM98.2596 1.5H102.279V0.5H98.2596V1.5ZM106.298 1.5H110.317V0.5H106.298V1.5ZM114.337 1.5H118.356V0.5H114.337V1.5ZM122.375 1.5H126.394V0.5H122.375V1.5ZM130.413 1.5H134.433V0.5H130.413V1.5ZM138.452 1.5H142.471V0.5H138.452V1.5ZM146.49 1.5H150.51V0.5H146.49V1.5ZM154.529 1.5H158.548V0.5H154.529V1.5ZM162.567 1.5H166.587V0.5H162.567V1.5ZM170.606 1.5H174.625V0.5H170.606V1.5ZM178.644 1.5H182.663V0.5H178.644V1.5ZM186.683 1.5H190.702V0.5H186.683V1.5ZM194.721 1.5H198.74V0.5H194.721V1.5ZM202.76 1.5H206.779V0.5H202.76V1.5ZM210.798 1.5H214.817V0.5H210.798V1.5ZM218.837 1.5H222.856V0.5H218.837V1.5ZM226.875 1.5H230.894V0.5H226.875V1.5ZM234.913 1.5H238.933V0.5H234.913V1.5ZM242.952 1.5H246.971V0.5H242.952V1.5ZM250.99 1.5H253V0.5H250.99V1.5Z" fill="#232323"/>
</svg>
