<svg width="302" height="369" viewBox="0 0 302 369" fill="none" xmlns="http://www.w3.org/2000/svg">
<path d="M49.3754 192.872V193.853L50.1693 193.276L89.7075 164.55L90.112 164.256L89.8181 163.852C80.5287 151.066 65.6796 143.5 49.8754 143.5H49.3754V144V192.872Z" fill="#5B5959" stroke="white"/>
<path d="M49.5815 192.468L48.8458 193.002L49.6914 193.337L95.1313 211.328L95.5962 211.512L95.7803 211.047C102.002 195.332 99.7529 177.526 89.8181 163.852L89.5242 163.448L89.1197 163.741L49.5815 192.468Z" fill="black" stroke="white"/>
<path d="M50.0594 192.407L49.6988 192.264L49.4708 192.578L20.7446 232.116L20.4507 232.521L20.8552 232.815C24.2059 235.249 27.8495 237.252 31.7003 238.777C57.0528 248.815 85.7423 236.4 95.7801 211.047L95.9642 210.582L95.4993 210.398L50.0594 192.407Z" fill="#E5E5E5" stroke="white"/>
<path d="M50.2799 193.166L50.3753 193.034V192.872V144V143.5H49.8753C34.0712 143.5 19.2221 151.066 9.93266 163.852C-6.09468 185.912 -1.20445 216.787 20.8553 232.815L21.2598 233.108L21.5537 232.704L50.2799 193.166Z" fill="#A6A6A6" stroke="white"/>
<path d="M42.606 232C42.606 233.473 43.8 234.667 45.2727 234.667C46.7455 234.667 47.9394 233.473 47.9394 232C47.9394 230.527 46.7455 229.333 45.2727 229.333C43.8 229.333 42.606 230.527 42.606 232ZM45.2727 267L44.7727 267L45.2727 267ZM45.2727 359L44.7727 359L44.7727 359.5L45.2727 359.5L45.2727 359ZM44.7727 232L44.7727 234.187L45.7727 234.187L45.7727 232L44.7727 232ZM44.7727 238.562L44.7727 242.937L45.7727 242.937L45.7727 238.562L44.7727 238.562ZM44.7727 247.312L44.7727 251.687L45.7727 251.687L45.7727 247.312L44.7727 247.312ZM44.7727 256.062L44.7727 260.437L45.7727 260.437L45.7727 256.062L44.7727 256.062ZM44.7727 264.812L44.7727 267L45.7727 267L45.7727 264.812L44.7727 264.812ZM44.7727 267L44.7727 268.916L45.7727 268.916L45.7727 267L44.7727 267ZM44.7727 272.75L44.7727 276.583L45.7727 276.583L45.7727 272.75L44.7727 272.75ZM44.7727 280.417L44.7727 284.25L45.7727 284.25L45.7727 280.417L44.7727 280.417ZM44.7727 288.083L44.7727 291.917L45.7727 291.917L45.7727 288.083L44.7727 288.083ZM44.7727 295.75L44.7727 299.583L45.7727 299.583L45.7727 295.75L44.7727 295.75ZM44.7727 303.417L44.7727 307.25L45.7727 307.25L45.7727 303.417L44.7727 303.417ZM44.7727 311.083L44.7727 314.917L45.7727 314.917L45.7727 311.083L44.7727 311.083ZM44.7727 318.75L44.7727 322.583L45.7727 322.583L45.7727 318.75L44.7727 318.75ZM44.7727 326.417L44.7727 330.25L45.7727 330.25L45.7727 326.417L44.7727 326.417ZM44.7727 334.083L44.7727 337.917L45.7727 337.917L45.7727 334.083L44.7727 334.083ZM44.7727 341.75L44.7727 345.583L45.7727 345.583L45.7727 341.75L44.7727 341.75ZM44.7727 349.417L44.7727 353.25L45.7727 353.25L45.7727 349.417L44.7727 349.417ZM44.7727 357.083L44.7727 359L45.7727 359L45.7727 357.083L44.7727 357.083ZM45.2727 359.5L47.3636 359.5L47.3636 358.5L45.2727 358.5L45.2727 359.5ZM51.5454 359.5L55.7273 359.5L55.7273 358.5L51.5454 358.5L51.5454 359.5ZM59.9091 359.5L62 359.5L62 358.5L59.9091 358.5L59.9091 359.5Z" fill="white"/>
<path d="M66.3333 159.5C66.3333 160.973 67.5272 162.167 69 162.167C70.4728 162.167 71.6667 160.973 71.6667 159.5C71.6667 158.027 70.4728 156.833 69 156.833C67.5272 156.833 66.3333 158.027 66.3333 159.5ZM69 115.5L69 115H68.5V115.5H69ZM98 115.5V115V115.5ZM69.5 159.5V157.667H68.5V159.5H69.5ZM69.5 154V150.333H68.5V154H69.5ZM69.5 146.667V143H68.5V146.667H69.5ZM69.5 139.333V135.667H68.5V139.333H69.5ZM69.5 132V128.333H68.5V132H69.5ZM69.5 124.667V121H68.5V124.667H69.5ZM69.5 117.333V115.5H68.5V117.333H69.5ZM69 116H70.8125V115H69L69 116ZM74.4375 116H78.0625V115H74.4375V116ZM81.6875 116H85.3125V115H81.6875V116ZM88.9375 116H92.5625V115H88.9375V116ZM96.1875 116H98V115H96.1875V116ZM98 116H100.25V115H98V116ZM104.75 116H107V115H104.75V116Z" fill="white"/>
<path d="M19.3333 164.5C19.3333 165.973 20.5272 167.167 22 167.167C23.4728 167.167 24.6667 165.973 24.6667 164.5C24.6667 163.027 23.4728 161.833 22 161.833C20.5272 161.833 19.3333 163.027 19.3333 164.5ZM22 14.5V14H21.5V14.5L22 14.5ZM22.5 164.5V162.526H21.5V164.5H22.5ZM22.5 158.579V154.632H21.5V158.579H22.5ZM22.5 150.684V146.737H21.5V150.684H22.5ZM22.5 142.789V138.842H21.5V142.789H22.5ZM22.5 134.895V130.947H21.5V134.895H22.5ZM22.5 127V123.053H21.5V127H22.5ZM22.5 119.105V115.158H21.5V119.105H22.5ZM22.5 111.211V107.263H21.5V111.211H22.5ZM22.5 103.316V99.3684H21.5V103.316H22.5ZM22.5 95.4211V91.4737H21.5V95.4211H22.5ZM22.5 87.5263V83.579H21.5V87.5263H22.5ZM22.5 79.6316V75.6842H21.5V79.6316H22.5ZM22.5 71.7369V67.7895H21.5V71.7369H22.5ZM22.5 63.8421V59.8948H21.5V63.8421H22.5ZM22.5 55.9474V52H21.5V55.9474H22.5ZM22.5 48.0527V44.1053H21.5V48.0527H22.5ZM22.5 40.1579V36.2106H21.5V40.1579H22.5ZM22.5 32.2632V28.3158L21.5 28.3158V32.2632H22.5ZM22.5 24.3685V20.4211H21.5V24.3685H22.5ZM22.5 16.4737V14.5L21.5 14.5V16.4737H22.5ZM22 15H23.8125V14H22V15ZM27.4375 15H31.0625V14H27.4375V15ZM34.6875 15H38.3125V14H34.6875V15ZM41.9375 15H43.75V14H41.9375V15ZM43.75 15H46.5625V14H43.75V15ZM52.1875 15H55V14H52.1875V15Z" fill="white"/>
<path d="M85 186.5H104V254.5H110.5" stroke="white" stroke-dasharray="4 4"/>
</svg>
