<svg width="50" height="50" viewBox="0 0 50 50" fill="none" xmlns="http://www.w3.org/2000/svg">
<path d="M36.9141 35.293C35.6012 35.3066 34.2995 35.0501 33.0899 34.5394C31.8803 34.0287 30.7887 33.2747 29.8828 32.3242L25.0391 27.3242L20.1953 32.3242C18.3051 34.2008 15.7495 35.2539 13.0859 35.2539C10.4224 35.2539 7.86684 34.2008 5.97658 32.3242C4.16467 30.3074 3.16288 27.6916 3.16408 24.9805C3.14597 22.2367 4.21308 19.5971 6.13283 17.6367C7.0534 16.7084 8.14868 15.9716 9.35548 15.4687C10.5623 14.9659 11.8567 14.707 13.1641 14.707C14.4714 14.707 15.7659 14.9659 16.9727 15.4687C18.1795 15.9716 19.2748 16.7084 20.1953 17.6367L25.0391 22.6367L29.8828 17.6367C30.8034 16.7084 31.8987 15.9716 33.1055 15.4687C34.3123 14.9659 35.6067 14.707 36.9141 14.707C38.2214 14.707 39.5159 14.9659 40.7227 15.4687C41.9295 15.9716 43.0248 16.7084 43.9453 17.6367C45.8264 19.6191 46.875 22.2477 46.875 24.9805C46.875 27.7132 45.8264 30.3418 43.9453 32.3242C42.0728 34.1845 39.5532 35.2483 36.9141 35.293ZM27.2266 24.9805L32.0703 30.1367C33.3594 31.413 35.1001 32.1289 36.9141 32.1289C38.7281 32.1289 40.4688 31.413 41.7578 30.1367C43.0399 28.7254 43.7502 26.8871 43.7502 24.9805C43.7502 23.0738 43.0399 21.2355 41.7578 19.8242C40.4688 18.5479 38.7281 17.832 36.9141 17.832C35.1001 17.832 33.3594 18.5479 32.0703 19.8242L27.2266 24.9805ZM13.1641 17.793C12.2598 17.7758 11.3619 17.9475 10.5278 18.2973C9.69371 18.6471 8.94185 19.1671 8.32032 19.8242C7.01499 21.2239 6.2891 23.0666 6.2891 24.9805C6.2891 26.8944 7.01499 28.737 8.32032 30.1367C9.60939 31.413 11.3501 32.1289 13.1641 32.1289C14.9781 32.1289 16.7188 31.413 18.0078 30.1367L22.8516 24.9805L18.0078 19.8242C16.6932 18.5819 14.9716 17.8599 13.1641 17.793Z" fill="#232323"/>
</svg>
