<svg width="50" height="50" viewBox="0 0 50 50" fill="none" xmlns="http://www.w3.org/2000/svg">
<path d="M32.8125 46.875C30.3402 46.875 27.9235 46.1419 25.8679 44.7684C23.8123 43.3949 22.2101 41.4426 21.264 39.1586C20.3179 36.8745 20.0704 34.3611 20.5527 31.9364C21.035 29.5116 22.2255 27.2843 23.9737 25.5362C25.7218 23.788 27.9491 22.5975 30.3739 22.1152C32.7986 21.6329 35.312 21.8804 37.5961 22.8265C39.8801 23.7726 41.8324 25.3748 43.2059 27.4304C44.5794 29.486 45.3125 31.9027 45.3125 34.375C45.3125 37.6902 43.9955 40.8696 41.6513 43.2138C39.3071 45.558 36.1277 46.875 32.8125 46.875ZM32.8125 25C30.9583 25 29.1457 25.5498 27.604 26.58C26.0623 27.6101 24.8607 29.0743 24.1511 30.7873C23.4416 32.5004 23.2559 34.3854 23.6176 36.204C23.9794 38.0225 24.8723 39.693 26.1834 41.0041C27.4945 42.3153 29.165 43.2081 30.9835 43.5699C32.8021 43.9316 34.6871 43.7459 36.4002 43.0364C38.1132 42.3268 39.5774 41.1252 40.6075 39.5835C41.6377 38.0418 42.1875 36.2292 42.1875 34.375C42.1875 31.8886 41.1998 29.504 39.4416 27.7459C37.6835 25.9877 35.2989 25 32.8125 25Z" fill="#232323"/>
<path d="M35.2969 39.0625L31.25 35.0156V28.125H34.375V33.7344L37.5 36.8594L35.2969 39.0625Z" fill="#232323"/>
<path d="M43.75 9.375C43.75 8.5462 43.4208 7.75134 42.8347 7.16529C42.2487 6.57924 41.4538 6.25 40.625 6.25H34.375V3.125H31.25V6.25H18.75V3.125H15.625V6.25H9.375C8.5462 6.25 7.75134 6.57924 7.16529 7.16529C6.57924 7.75134 6.25 8.5462 6.25 9.375V40.625C6.25 41.4538 6.57924 42.2487 7.16529 42.8347C7.75134 43.4208 8.5462 43.75 9.375 43.75H15.625V40.625H9.375V9.375H15.625V12.5H18.75V9.375H31.25V12.5H34.375V9.375H40.625V18.75H43.75V9.375Z" fill="#232323"/>
</svg>
