<svg width="50" height="50" viewBox="0 0 50 50" fill="none" xmlns="http://www.w3.org/2000/svg">
<path d="M42.1875 15.625H32.8125C31.5697 15.6264 30.3782 16.1207 29.4994 16.9994C28.6207 17.8782 28.1264 19.0697 28.125 20.3125V29.6875C28.126 30.516 28.4555 31.3103 29.0413 31.8962C29.6272 32.482 30.4215 32.8116 31.25 32.8125V43.75C31.251 44.5785 31.5805 45.3728 32.1663 45.9587C32.7522 46.5445 33.5465 46.8741 34.375 46.875H40.625C41.4535 46.8741 42.2478 46.5445 42.8337 45.9587C43.4195 45.3728 43.7491 44.5785 43.75 43.75V32.8125C44.5785 32.8116 45.3728 32.482 45.9587 31.8962C46.5445 31.3103 46.8741 30.516 46.875 29.6875V20.3125C46.8736 19.0697 46.3793 17.8782 45.5006 16.9994C44.6218 16.1207 43.4303 15.6264 42.1875 15.625ZM43.75 29.6875H40.625V43.75H34.375V29.6875H31.25V20.3125C31.2504 19.8982 31.4151 19.501 31.7081 19.2081C32.001 18.9151 32.3982 18.7504 32.8125 18.75H42.1875C42.6018 18.7504 42.999 18.9151 43.2919 19.2081C43.5849 19.501 43.7496 19.8982 43.75 20.3125V29.6875ZM31.25 7.8125C31.25 6.57637 31.6166 5.368 32.3033 4.34019C32.9901 3.31238 33.9662 2.5113 35.1082 2.03826C36.2503 1.56521 37.5069 1.44144 38.7193 1.68259C39.9317 1.92375 41.0453 2.51901 41.9194 3.39309C42.7935 4.26716 43.3888 5.38081 43.6299 6.59319C43.8711 7.80557 43.7473 9.06224 43.2742 10.2043C42.8012 11.3463 42.0001 12.3224 40.9723 13.0092C39.9445 13.6959 38.7361 14.0625 37.5 14.0625C35.8429 14.0608 34.2542 13.4017 33.0825 12.23C31.9108 11.0583 31.2517 9.46957 31.25 7.8125ZM34.375 7.8125C34.375 8.43057 34.5583 9.03476 34.9017 9.54866C35.245 10.0626 35.7331 10.4631 36.3041 10.6996C36.8751 10.9362 37.5035 10.998 38.1097 10.8775C38.7158 10.7569 39.2727 10.4593 39.7097 10.0222C40.1467 9.58517 40.4444 9.02835 40.565 8.42216C40.6855 7.81597 40.6236 7.18764 40.3871 6.61662C40.1506 6.0456 39.7501 5.55754 39.2362 5.21416C38.7223 4.87078 38.1181 4.6875 37.5 4.6875C36.6715 4.68845 35.8772 5.018 35.2913 5.60384C34.7055 6.18969 34.3759 6.98399 34.375 7.8125ZM21.875 25V20.3125C21.8736 19.0697 21.3793 17.8782 20.5006 16.9994C19.6218 16.1207 18.4303 15.6264 17.1875 15.625H7.8125C6.56972 15.6264 5.37823 16.1207 4.49944 16.9994C3.62066 17.8782 3.12636 19.0697 3.125 20.3125V25H0V28.125H25V25H21.875ZM6.25 20.3125C6.25037 19.8982 6.41511 19.501 6.70806 19.2081C7.001 18.9151 7.39821 18.7504 7.8125 18.75H17.1875C17.6018 18.7504 17.999 18.9151 18.2919 19.2081C18.5849 19.501 18.7496 19.8982 18.75 20.3125V25H6.25V20.3125ZM6.25 7.8125C6.25 6.57637 6.61656 5.368 7.30331 4.34019C7.99007 3.31238 8.96619 2.5113 10.1082 2.03826C11.2503 1.56521 12.5069 1.44144 13.7193 1.68259C14.9317 1.92375 16.0453 2.51901 16.9194 3.39309C17.7935 4.26716 18.3888 5.38081 18.6299 6.59319C18.8711 7.80557 18.7473 9.06224 18.2742 10.2043C17.8012 11.3463 17.0001 12.3224 15.9723 13.0092C14.9445 13.6959 13.7361 14.0625 12.5 14.0625C10.8429 14.0608 9.25423 13.4017 8.0825 12.23C6.91078 11.0583 6.25174 9.46957 6.25 7.8125ZM9.375 7.8125C9.375 8.43057 9.55828 9.03476 9.90166 9.54866C10.245 10.0626 10.7331 10.4631 11.3041 10.6996C11.8751 10.9362 12.5035 10.998 13.1097 10.8775C13.7158 10.7569 14.2727 10.4593 14.7097 10.0222C15.1467 9.58517 15.4444 9.02835 15.565 8.42216C15.6855 7.81597 15.6236 7.18764 15.3871 6.61662C15.1506 6.0456 14.7501 5.55754 14.2362 5.21416C13.7223 4.87078 13.1181 4.6875 12.5 4.6875C11.6715 4.68845 10.8772 5.018 10.2913 5.60384C9.7055 6.18969 9.37595 6.98399 9.375 7.8125Z" fill="white"/>
</svg>
