<svg width="50" height="51" viewBox="0 0 50 51" fill="none" xmlns="http://www.w3.org/2000/svg">
<path d="M25.9567 3.9591C25.6794 3.74267 25.3377 3.62512 24.9859 3.62512C24.6341 3.62512 24.2923 3.74267 24.015 3.9591L1.5625 21.4678L3.50422 23.9236L6.25 21.7827V41.125C6.25169 41.9533 6.58148 42.7472 7.16716 43.3329C7.75285 43.9186 8.54672 44.2483 9.375 44.25H40.625C41.4533 44.2485 42.2473 43.9188 42.833 43.3331C43.4187 42.7473 43.7485 41.9534 43.75 41.125V21.7969L46.4958 23.9375L48.4375 21.4816L25.9567 3.9591ZM28.125 41.125H21.875V28.625H28.125V41.125ZM31.25 41.125V28.625C31.249 27.7965 30.9195 27.0022 30.3337 26.4164C29.7478 25.8305 28.9535 25.501 28.125 25.5H21.875C21.0465 25.5009 20.2521 25.8304 19.6662 26.4162C19.0803 27.0021 18.7508 27.7965 18.75 28.625V41.125H9.375V19.3461L25 7.17425L40.625 19.3625V41.125H31.25Z" fill="white"/>
</svg>
