<svg width="24" height="24" viewBox="0 0 24 24" fill="none" xmlns="http://www.w3.org/2000/svg">
<path d="M12 2.1622C15.2041 2.1622 15.5837 2.1744 16.849 2.2322C17.61 2.24126 18.3637 2.38103 19.0773 2.6454C19.5948 2.84509 20.0648 3.15087 20.457 3.5431C20.8492 3.93532 21.155 4.4053 21.3547 4.9228C21.6191 5.63641 21.7588 6.39015 21.7679 7.1511C21.8256 8.4164 21.8379 8.796 21.8379 12.0001C21.8379 15.2042 21.8257 15.5838 21.7679 16.8491C21.7588 17.6101 21.6191 18.3638 21.3547 19.0774C21.155 19.5949 20.8492 20.0649 20.457 20.4571C20.0648 20.8493 19.5948 21.1551 19.0773 21.3548C18.3637 21.6192 17.61 21.7589 16.849 21.768C15.5838 21.8257 15.2044 21.838 12 21.838C8.7956 21.838 8.4162 21.8258 7.151 21.768C6.39005 21.7589 5.63631 21.6192 4.9227 21.3548C4.4052 21.1551 3.93522 20.8493 3.543 20.4571C3.15077 20.0649 2.84499 19.5949 2.6453 19.0774C2.38093 18.3638 2.24116 17.6101 2.2321 16.8491C2.1744 15.5838 2.1621 15.2042 2.1621 12.0001C2.1621 8.796 2.1743 8.4164 2.2321 7.1511C2.24116 6.39015 2.38093 5.63641 2.6453 4.9228C2.84497 4.40528 3.15076 3.93529 3.54298 3.54304C3.93521 3.1508 4.40519 2.845 4.9227 2.6453C5.63631 2.38093 6.39005 2.24116 7.151 2.2321C8.4163 2.1744 8.7959 2.1621 12 2.1621M12 0C8.741 0 8.3323 0.0137998 7.0524 0.0721998C6.05705 0.0921829 5.07229 0.28079 4.14 0.63C3.34273 0.938314 2.61868 1.4098 2.01424 2.01424C1.4098 2.61868 0.938314 3.34273 0.63 4.14C0.280734 5.07245 0.0921266 6.05738 0.0721998 7.0529C0.0137998 8.3323 0 8.741 0 12C0 15.259 0.0137998 15.6677 0.0721998 16.9476C0.0921381 17.9431 0.280745 18.928 0.63 19.8605C0.938314 20.6578 1.4098 21.3818 2.01424 21.9863C2.61868 22.5907 3.34273 23.0622 4.14 23.3705C5.07245 23.7198 6.05738 23.9084 7.0529 23.9283C8.3323 23.9862 8.741 24 12 24C15.259 24 15.6677 23.9862 16.9476 23.9278C17.9431 23.9079 18.928 23.7193 19.8605 23.37C20.6578 23.0617 21.3818 22.5902 21.9863 21.9858C22.5907 21.3813 23.0622 20.6573 23.3705 19.86C23.7198 18.9275 23.9084 17.9426 23.9283 16.9471C23.9862 15.6677 24 15.259 24 12C24 8.741 23.9862 8.3323 23.9278 7.0524C23.9078 6.05705 23.7192 5.07229 23.37 4.14C23.0616 3.34283 22.5901 2.61887 21.9857 2.01452C21.3812 1.41017 20.6572 0.938758 19.86 0.6305C18.9275 0.281245 17.9426 0.0926383 16.9471 0.0727C15.6677 0.0138 15.259 0 12 0Z" fill="white"/>
</svg>
