<svg width="107" height="68" viewBox="0 0 107 68" fill="none" xmlns="http://www.w3.org/2000/svg">
<path d="M0.833333 64.5C0.833333 65.9728 2.02724 67.1667 3.5 67.1667C4.97276 67.1667 6.16667 65.9728 6.16667 64.5C6.16667 63.0272 4.97276 61.8333 3.5 61.8333C2.02724 61.8333 0.833333 63.0272 0.833333 64.5ZM3.5 1V0.5H3V1H3.5ZM4 64.5V62.5156H3V64.5H4ZM4 58.5469V54.5781H3V58.5469H4ZM4 50.6094V46.6406H3V50.6094H4ZM4 42.6719V38.7031H3V42.6719H4ZM4 34.7344V30.7656H3V34.7344H4ZM4 26.7969V22.8281H3V26.7969H4ZM4 18.8594V14.8906H3V18.8594H4ZM4 10.9219V6.95312H3V10.9219H4ZM4 2.98438V1H3V2.98438H4ZM3.5 1.5H5.48077V0.5H3.5V1.5ZM9.44231 1.5H13.4038V0.5H9.44231V1.5ZM17.3654 1.5H21.3269V0.5H17.3654V1.5ZM25.2885 1.5H29.25V0.5H25.2885V1.5ZM33.2115 1.5H37.1731V0.5H33.2115V1.5ZM41.1346 1.5H45.0962V0.5H41.1346V1.5ZM49.0577 1.5H53.0192V0.5H49.0577V1.5ZM56.9808 1.5H60.9423V0.5H56.9808V1.5ZM64.9039 1.5H68.8654V0.5H64.9039V1.5ZM72.8269 1.5H76.7885V0.5H72.8269V1.5ZM80.75 1.5H84.7116V0.5H80.75V1.5ZM88.6731 1.5H92.6346V0.5H88.6731V1.5ZM96.5962 1.5H100.558V0.5H96.5962V1.5ZM104.519 1.5H106.5V0.5H104.519V1.5Z" fill="white"/>
</svg>
