<svg width="202" height="135" viewBox="0 0 202 135" fill="none" xmlns="http://www.w3.org/2000/svg">
<path d="M0.333333 131.5C0.333333 132.973 1.52724 134.167 3 134.167C4.47276 134.167 5.66667 132.973 5.66667 131.5C5.66667 130.027 4.47276 128.833 3 128.833C1.52724 128.833 0.333333 130.027 0.333333 131.5ZM3 0.5V0H2.5V0.5L3 0.5ZM3.5 131.5V129.453H2.5V131.5H3.5ZM3.5 125.359V121.266H2.5V125.359H3.5ZM3.5 117.172V113.078H2.5V117.172H3.5ZM3.5 108.984V104.891H2.5V108.984H3.5ZM3.5 100.797V96.7031H2.5V100.797H3.5ZM3.5 92.6094V88.5156H2.5V92.6094H3.5ZM3.5 84.4219V80.3281H2.5V84.4219H3.5ZM3.5 76.2344V72.1406H2.5V76.2344H3.5ZM3.5 68.0469V63.9531H2.5V68.0469H3.5ZM3.5 59.8594V55.7656H2.5V59.8594H3.5ZM3.5 51.6719V47.5781H2.5V51.6719H3.5ZM3.5 43.4844V39.3906H2.5V43.4844H3.5ZM3.5 35.2969V31.2031H2.5V35.2969H3.5ZM3.5 27.1094V23.0156H2.5V27.1094H3.5ZM3.5 18.9219V14.8281H2.5V18.9219H3.5ZM3.5 10.7344V6.64062H2.5V10.7344H3.5ZM3.5 2.54688V0.5L2.5 0.5V2.54688H3.5ZM3 1H4.985V0H3V1ZM8.955 1H12.925V0H8.955V1ZM16.895 1H20.865V0H16.895V1ZM24.835 1H28.805V0H24.835V1ZM32.775 1H36.745V0H32.775V1ZM40.715 1H44.685V0H40.715V1ZM48.655 1H52.625V0H48.655V1ZM56.595 1H60.565V0H56.595V1ZM64.535 1H68.505V0H64.535V1ZM72.475 1H76.445V0H72.475V1ZM80.415 1H84.385V0H80.415V1ZM88.355 1H92.325V0H88.355V1ZM96.295 1H100.265V0H96.295V1ZM104.235 1H108.205V0H104.235V1ZM112.175 1H116.145V0H112.175V1ZM120.115 1H124.085V0H120.115V1ZM128.055 1H132.025V0H128.055V1ZM135.995 1H139.965V0H135.995V1ZM143.935 1H147.905V0H143.935V1ZM151.875 1H155.845V0H151.875V1ZM159.815 1H163.785V0H159.815V1ZM167.755 1H171.725V0H167.755V1ZM175.695 1H179.665V0H175.695V1ZM183.635 1H187.605V0H183.635V1ZM191.575 1H195.545V0H191.575V1ZM199.515 1H201.5V0H199.515V1Z" fill="white"/>
</svg>
