<svg width="135" height="86" viewBox="0 0 135 86" fill="none" xmlns="http://www.w3.org/2000/svg">
<path d="M0.333326 83.0001C0.333326 84.4729 1.52723 85.6668 2.99999 85.6668C4.47275 85.6668 5.66666 84.4729 5.66666 83.0001C5.66666 81.5274 4.47275 80.3335 2.99999 80.3335C1.52723 80.3335 0.333326 81.5274 0.333326 83.0001ZM100.5 83L100.5 83.5L101 83.5L101 83L100.5 83ZM100.5 1.00001L100.5 0.500012L100 0.500012L100 1.00001L100.5 1.00001ZM2.99999 83.5001L5.03124 83.5001L5.03124 82.5001L2.99999 82.5001L2.99999 83.5001ZM9.09374 83.5001L13.1562 83.5001L13.1562 82.5001L9.09374 82.5001L9.09374 83.5001ZM17.2187 83.5001L21.2812 83.5001L21.2812 82.5001L17.2187 82.5001L17.2187 83.5001ZM25.3437 83.5001L29.4062 83.5001L29.4062 82.5001L25.3437 82.5001L25.3437 83.5001ZM33.4687 83.5001L37.5312 83.5001L37.5312 82.5001L33.4687 82.5001L33.4687 83.5001ZM41.5937 83.5001L45.6562 83.5001L45.6562 82.5001L41.5937 82.5001L41.5937 83.5001ZM49.7187 83.5001L53.7812 83.5001L53.7812 82.5001L49.7187 82.5001L49.7187 83.5001ZM57.8437 83.5001L61.9062 83.5001L61.9062 82.5001L57.8437 82.5001L57.8437 83.5001ZM65.9687 83.5001L70.0312 83.5001L70.0312 82.5001L65.9687 82.5001L65.9687 83.5001ZM74.0937 83.5L78.1562 83.5L78.1562 82.5L74.0937 82.5L74.0937 83.5ZM82.2187 83.5L86.2812 83.5L86.2812 82.5L82.2187 82.5L82.2187 83.5ZM90.3437 83.5L94.4062 83.5L94.4062 82.5L90.3437 82.5L90.3437 83.5ZM98.4687 83.5L100.5 83.5L100.5 82.5L98.4687 82.5L98.4687 83.5ZM101 83L101 80.95L100 80.95L100 83L101 83ZM101 76.85L101 72.75L100 72.75L100 76.85L101 76.85ZM101 68.65L101 64.55L100 64.55L100 68.65L101 68.65ZM101 60.45L101 56.35L100 56.35L100 60.45L101 60.45ZM101 52.25L101 48.15L100 48.15L100 52.25L101 52.25ZM101 44.05L101 39.95L100 39.95L100 44.05L101 44.05ZM101 35.85L101 31.75L100 31.75L100 35.85L101 35.85ZM101 27.65L101 23.55L100 23.55L100 27.65L101 27.65ZM101 19.45L101 15.35L100 15.35L100 19.45L101 19.45ZM101 11.25L101 7.15002L100 7.15002L100 11.25L101 11.25ZM101 3.05002L101 1.00001L100 1.00001L100 3.05002L101 3.05002ZM100.5 1.50001L102.656 1.50001L102.656 0.500012L100.5 0.500012L100.5 1.50001ZM106.969 1.50001L111.281 1.50001L111.281 0.500012L106.969 0.500012L106.969 1.50001ZM115.594 1.50001L119.906 1.50001L119.906 0.500012L115.594 0.500012L115.594 1.50001ZM124.219 1.50001L128.531 1.50001L128.531 0.500012L124.219 0.500012L124.219 1.50001ZM132.844 1.50001L135 1.50001L135 0.500012L132.844 0.500012L132.844 1.50001Z" fill="white"/>
</svg>
