<svg width="50" height="50" viewBox="0 0 50 50" fill="none" xmlns="http://www.w3.org/2000/svg">
<path d="M28.5984 14.0625C28.0426 14.0625 27.4924 14.1739 26.9804 14.3902C26.4684 14.6064 26.0049 14.9231 25.6173 15.3216L25.003 15.955L24.3826 15.3216C23.9951 14.9231 23.5316 14.6064 23.0196 14.3902C22.5076 14.1739 21.9574 14.0625 21.4016 14.0625C20.8458 14.0625 20.2957 14.1739 19.7836 14.3902C19.2716 14.6064 18.8082 14.9231 18.4206 15.3216C17.6297 16.1375 17.1875 17.2293 17.1875 18.3656C17.1875 19.502 17.6297 20.5937 18.4206 21.4097L25.003 28.125L31.5794 21.4097C32.3703 20.5937 32.8125 19.502 32.8125 18.3656C32.8125 17.2293 32.3703 16.1375 31.5794 15.3216C31.1918 14.9232 30.7284 14.6065 30.2164 14.3902C29.7044 14.174 29.1542 14.0625 28.5984 14.0625Z" fill="#232323"/>
<path d="M25 46.875L11.8195 31.3302C11.7447 31.2409 11.2755 30.6247 11.2755 30.6247C9.02374 27.6589 7.80721 24.0362 7.81249 20.3125C7.81249 15.7541 9.62331 11.3824 12.8466 8.1591C16.0699 4.93582 20.4416 3.125 25 3.125C29.5584 3.125 33.9301 4.93582 37.1534 8.1591C40.3767 11.3824 42.1875 15.7541 42.1875 20.3125C42.1931 24.0347 40.9774 27.656 38.7269 30.6208L38.7245 30.6247C38.7245 30.6247 38.2558 31.2409 38.1859 31.3237L25 46.875ZM13.7695 28.7422C13.7711 28.7433 14.1342 29.2237 14.2173 29.3272L25 42.0436L35.7969 29.3092C35.8655 29.223 36.2317 28.7391 36.2325 28.7378C38.072 26.3145 39.0661 23.3549 39.0625 20.3125C39.0625 16.5829 37.5809 13.006 34.9437 10.3688C32.3064 7.73158 28.7296 6.25 25 6.25C21.2704 6.25 17.6935 7.73158 15.0563 10.3688C12.4191 13.006 10.9375 16.5829 10.9375 20.3125C10.934 23.3565 11.9289 26.3177 13.7695 28.7422Z" fill="#232323"/>
</svg>
