<svg width="158" height="37" viewBox="0 0 158 37" fill="none" xmlns="http://www.w3.org/2000/svg">
<path fill-rule="evenodd" clip-rule="evenodd" d="M46.2808 21.9989C45.6668 21.1579 44.6227 20.4701 43.3583 20.4701C41.0163 20.4701 39.3274 22.2749 39.3274 24.7196C39.3274 27.165 41.0163 28.9694 43.3583 28.9694C44.4524 28.9694 45.4751 28.4982 46.01 28.0289C46.0459 27.9973 46.0643 27.9519 46.0643 27.9039V26.578C46.0643 26.4949 45.9976 26.427 45.9149 26.427H42.903C42.7831 26.427 42.686 26.3288 42.686 26.2081V24.2402C42.686 24.1191 42.7831 24.0209 42.903 24.0209H48.3035V21.1004L46.5598 22.0646C46.467 22.1162 46.3437 22.085 46.2808 21.9989ZM20.9286 23.3808H24.1456C25.0669 23.3808 25.6428 22.8565 25.6428 22.0225C25.6428 21.2264 25.0669 20.6641 24.1456 20.6641H20.9286C20.8182 20.6641 20.7292 20.7545 20.7292 20.8657V23.1792C20.7292 23.2904 20.8182 23.3808 20.9286 23.3808ZM34.0077 31.001C34.0077 31.1009 33.9278 31.1814 33.8293 31.1814H31.4609C31.362 31.1814 31.282 31.1009 31.282 31.001V18.4193C31.282 18.3198 31.362 18.2389 31.4609 18.2389H33.8293C33.9278 18.2389 34.0077 18.3198 34.0077 18.4193V31.001ZM24.1342 18.2389H24.7406C27.1784 18.2389 28.4257 19.8101 28.4257 21.537C28.4257 22.8807 27.7313 23.873 26.7993 24.3117C26.6444 24.3849 26.6499 24.6063 26.8082 24.6717C27.8947 25.1211 28.6756 26.2965 28.6756 27.6691C28.6756 29.6292 27.4086 31.1814 24.952 31.1814H18.2031C18.0927 31.1814 18.0032 31.0914 18.0032 30.9798V22.7704L0.579822 35.6492C0.246056 35.8963 0.418502 36.431 0.832714 36.431H47.8757C48.1119 36.431 48.3036 36.2372 48.3036 35.9984V29.4847C47.0447 30.6714 45.3896 31.4146 43.3579 31.4146C39.5962 31.4146 36.5251 28.7952 36.5251 24.7196C36.5251 20.6251 39.5962 18.0252 43.3579 18.0252C45.7233 18.0252 47.3079 19.1084 48.3036 20.4317V1.22606C48.3036 0.87222 47.9057 0.668057 47.6228 0.877003L24.1342 18.2389ZM20.9286 28.7557H24.2607C25.2778 28.7557 25.8919 28.2124 25.8919 27.281C25.8919 26.4664 25.3168 25.8062 24.2607 25.8062H20.9286C20.8182 25.8062 20.7292 25.8966 20.7292 26.0078V28.5541C20.7292 28.6653 20.8182 28.7557 20.9286 28.7557ZM61.956 28.3631L60.4879 27.5935C60.3933 27.5437 60.2739 27.5801 60.2166 27.671C59.5956 28.6551 58.4502 29.3858 57.2054 29.3858C54.7617 29.3858 52.9473 27.4066 52.9473 24.709C52.9473 21.9732 54.7617 20.0326 57.2054 20.0326C58.4493 20.0326 59.5944 20.745 60.2157 21.7426C60.2734 21.8356 60.3942 21.8715 60.49 21.8192L61.9471 21.0167C62.0578 20.9557 62.0968 20.816 62.0287 20.7079C61.107 19.2413 59.5807 18.0145 57.2054 18.0145C53.5579 18.0145 50.7252 20.7122 50.7252 24.709C50.7252 28.6871 53.5579 31.4039 57.2054 31.4039C59.5782 31.4039 61.087 30.1446 62.0399 28.6772C62.1122 28.566 62.0724 28.4241 61.956 28.3631ZM69.6087 29.3859C67.1067 29.3859 65.5127 27.3678 65.5127 24.7091C65.5127 22.0317 67.1067 20.0327 69.6087 20.0327C72.0918 20.0327 73.7041 22.0317 73.7041 24.7091C73.7041 27.3678 72.0918 29.3859 69.6087 29.3859ZM67.8586 18.2408C65.1058 18.9845 63.2889 21.4892 63.2889 24.7091C63.2889 28.5708 65.9021 31.404 69.6087 31.404C72.7649 31.404 75.1475 29.3288 75.7688 26.3092C76.7808 21.3919 72.5107 16.9845 67.8586 18.2408ZM91.303 18.2283H88.493C88.3683 18.2283 88.2562 18.3053 88.2099 18.4229L84.8119 27.3038L81.3951 18.4221C81.3496 18.3053 81.2375 18.2283 81.112 18.2283H78.3021C78.2191 18.2283 78.1515 18.2966 78.1515 18.3805V31.0189C78.1515 31.1028 78.2191 31.1712 78.3021 31.1712H80.2472C80.3296 31.1712 80.3978 31.1028 80.3978 31.0189V21.1777L84.3054 31.1024C84.3219 31.1439 84.3619 31.1712 84.4058 31.1712H85.2188C85.2627 31.1712 85.3027 31.1439 85.3192 31.1024L89.208 21.1777V31.0189C89.208 31.1028 89.2747 31.1712 89.3586 31.1712H91.303C91.3861 31.1712 91.4535 31.1028 91.4535 31.0189V18.3805C91.4535 18.2966 91.3861 18.2283 91.303 18.2283ZM120.022 18.2283H111.714C111.586 18.2283 111.482 18.3329 111.482 18.4623V30.9371C111.482 31.0665 111.586 31.1712 111.714 31.1712H120.022C120.151 31.1712 120.254 31.0665 120.254 30.9371V29.4066C120.254 29.2773 120.151 29.1726 120.022 29.1726H113.959C113.832 29.1726 113.728 29.0678 113.728 28.9386V25.797C113.728 25.6676 113.832 25.563 113.959 25.563H119.889C120.016 25.563 120.12 25.4578 120.12 25.3289V23.7984C120.12 23.669 120.016 23.5644 119.889 23.5644H113.959C113.832 23.5644 113.728 23.4597 113.728 23.3303V20.4609C113.728 20.3315 113.832 20.2269 113.959 20.2269H120.022C120.151 20.2269 120.254 20.1217 120.254 19.9928V18.4623C120.254 18.3329 120.151 18.2283 120.022 18.2283ZM128.782 24.3406H125.921C125.794 24.3406 125.692 24.2367 125.692 24.1087V20.4585C125.692 20.3304 125.794 20.2266 125.921 20.2266H128.782C130.049 20.2266 130.97 21.0226 130.97 22.2646C130.97 23.5256 130.049 24.3406 128.782 24.3406ZM130.544 26.02C131.977 25.6548 133.273 24.4142 133.273 22.2836C133.273 19.8775 131.603 18.2284 129.069 18.2284H123.675C123.548 18.2284 123.445 18.3322 123.445 18.4603V30.939C123.445 31.0671 123.548 31.1713 123.675 31.1713H125.462C125.589 31.1713 125.692 31.0671 125.692 30.939V26.5711C125.692 26.443 125.794 26.3392 125.921 26.3392H127.806C127.888 26.3392 127.963 26.3825 128.005 26.453L130.692 31.0571C130.733 31.1277 130.808 31.1713 130.89 31.1713H132.955C133.135 31.1713 133.246 30.9719 133.15 30.8175C132.558 29.8601 130.93 27.2317 130.395 26.3669C130.31 26.2302 130.39 26.0593 130.544 26.02ZM150.912 20.2267H156.986C157.111 20.2267 157.212 20.1246 157.212 19.9983V18.4565C157.212 18.3307 157.111 18.2281 156.986 18.2281H148.666C148.541 18.2281 148.44 18.3307 148.44 18.4565V30.9426C148.44 31.0689 148.541 31.171 148.666 31.171H156.986C157.111 31.171 157.212 31.0689 157.212 30.9426V29.4008C157.212 29.275 157.111 29.1729 156.986 29.1729H150.912C150.786 29.1729 150.685 29.0704 150.685 28.9444V25.7913C150.685 25.665 150.786 25.5628 150.912 25.5628H156.852C156.976 25.5628 157.078 25.4607 157.078 25.3344V23.7927C157.078 23.6668 156.976 23.5642 156.852 23.5642H150.912C150.786 23.5642 150.685 23.4621 150.685 23.3358V20.4552C150.685 20.3288 150.786 20.2267 150.912 20.2267ZM146.148 28.3093L144.68 27.5398C144.585 27.49 144.466 27.5263 144.409 27.6171C143.788 28.6013 142.643 29.332 141.398 29.332C138.954 29.332 137.139 27.3528 137.139 24.6551C137.139 21.9194 138.954 19.9788 141.398 19.9788C142.641 19.9788 143.787 20.6912 144.408 21.6889C144.466 21.7818 144.586 21.8178 144.682 21.7654L146.139 20.9629C146.25 20.9019 146.289 20.7617 146.221 20.6541C145.299 19.1875 143.773 17.9607 141.398 17.9607C137.75 17.9607 134.918 20.6584 134.918 24.6551C134.918 28.6333 137.75 31.35 141.398 31.35C143.77 31.35 145.279 30.0908 146.232 28.6234C146.304 28.5122 146.265 28.3703 146.148 28.3093ZM107.885 18.2283H105.075C104.95 18.2283 104.838 18.3053 104.792 18.4229L101.394 27.3038L97.9767 18.4221C97.9305 18.3053 97.8183 18.2283 97.6937 18.2283H94.8837C94.8006 18.2283 94.7331 18.2966 94.7331 18.3805V31.0189C94.7331 31.1028 94.8006 31.1712 94.8837 31.1712H96.8289C96.9112 31.1712 96.9794 31.1028 96.9794 31.0189V21.1777L100.887 31.1024C100.904 31.1439 100.944 31.1712 100.987 31.1712H101.8C101.844 31.1712 101.884 31.1439 101.901 31.1024L105.79 21.1777V31.0189C105.79 31.1028 105.856 31.1712 105.94 31.1712H107.885C107.968 31.1712 108.035 31.1028 108.035 31.0189V18.3805C108.035 18.2966 107.968 18.2283 107.885 18.2283Z" fill="#FFFEFE"/>
</svg>
