<svg width="124" height="100" viewBox="0 0 124 100" fill="none" xmlns="http://www.w3.org/2000/svg">
<g clip-path="url(#clip0_807_1296)">
<path d="M53.3305 8.91357C56.6646 5.43162 61.3062 3.27202 66.4398 3.27202C73.264 3.27202 79.2177 7.08609 82.3884 12.7482C85.1437 11.5143 88.1935 10.8279 91.4023 10.8279C103.71 10.8279 113.689 20.9167 113.689 33.3611C113.689 45.8071 103.71 55.8959 91.4023 55.8959C89.9281 55.8967 88.4575 55.7499 87.0124 55.4575C84.2204 60.4494 78.8997 63.8222 72.7927 63.8222C70.2362 63.8222 67.8182 63.2304 65.6652 62.1779C62.8348 68.8511 56.2404 73.5301 48.5547 73.5301C40.551 73.5301 33.7298 68.454 31.1115 61.3351C29.9673 61.5786 28.7818 61.7056 27.5653 61.7056C18.036 61.7057 10.3105 53.8826 10.3105 44.2308C10.3105 37.7628 13.7815 32.1153 18.9387 29.0939C17.8769 26.6453 17.2864 23.9426 17.2864 21.1011C17.2864 10.0013 26.2768 1.00342 37.3657 1.00342C43.8762 1.00342 49.6621 4.10605 53.3305 8.91357Z" fill="#FFFFFF"/>
<path d="M25.2831 38.6136C25.2183 38.7834 25.3067 38.8188 25.3273 38.8483C25.5216 38.99 25.7191 39.0919 25.9179 39.2055C26.9723 39.7663 27.9679 39.9301 29.009 39.9301C31.1295 39.9301 32.446 38.7995 32.446 36.9795V36.9442C32.446 35.2614 30.9602 34.6503 29.5656 34.209L29.3845 34.15C28.333 33.8075 27.4259 33.5124 27.4259 32.8186V32.7818C27.4259 32.1884 27.9561 31.7514 28.7778 31.7514C29.6908 31.7514 30.7747 32.0555 31.4727 32.4422C31.4727 32.4422 31.6774 32.5751 31.7525 32.3758C31.7937 32.2695 32.1472 31.316 32.184 31.2127C32.2238 31.1005 32.1531 31.0178 32.081 30.9735C31.2842 30.4879 30.1827 30.1558 29.0429 30.1558L28.8309 30.1572C26.89 30.1572 25.5352 31.3322 25.5352 33.0163V33.0518C25.5352 34.8274 27.0299 35.4031 28.4304 35.8046L28.6557 35.874C29.6762 36.1883 30.5554 36.4584 30.5554 37.1788V37.2142C30.5554 37.8726 29.9841 38.3626 29.0622 38.3626C28.7043 38.3626 27.563 38.3552 26.3305 37.5743C26.1817 37.4871 26.0948 37.4238 25.98 37.3544C25.9196 37.316 25.7679 37.2495 25.7017 37.4503L25.2831 38.6136V38.6136ZM56.3275 38.6136C56.2627 38.7834 56.3511 38.8188 56.3717 38.8483C56.566 38.99 56.7635 39.0919 56.9622 39.2055C58.0165 39.7663 59.0122 39.9301 60.0533 39.9301C62.1738 39.9301 63.4904 38.7995 63.4904 36.9795V36.9442C63.4904 35.2614 62.0045 34.6503 60.6099 34.209L60.4288 34.15C59.3773 33.8075 58.4701 33.5124 58.4701 32.8186V32.7818C58.4701 32.1884 59.0002 31.7514 59.822 31.7514C60.735 31.7514 61.8189 32.0555 62.517 32.4422C62.517 32.4422 62.7217 32.5751 62.7967 32.3758C62.8379 32.2695 63.1914 31.316 63.2282 31.2127C63.268 31.1005 63.1973 31.0178 63.1251 30.9735C62.3284 30.4879 61.2269 30.1558 60.0871 30.1558L59.875 30.1572C57.9341 30.1572 56.5793 31.3322 56.5793 33.0163V33.0518C56.5793 34.8274 58.074 35.4031 59.4745 35.8046L59.6998 35.874C60.7203 36.1883 61.601 36.4584 61.601 37.1788V37.2142C61.601 37.8726 61.0282 38.3626 60.1063 38.3626C59.7485 38.3626 58.6072 38.3552 57.3746 37.5743C57.2258 37.4871 57.1376 37.4267 57.0257 37.3544C56.9873 37.3293 56.8077 37.2599 56.7458 37.4503L56.3275 38.6136V38.6136ZM77.5207 35.0486C77.5207 36.0775 77.3293 36.8877 76.9523 37.4605C76.5797 38.0273 76.0157 38.3033 75.2294 38.3033C74.4416 38.3033 73.8805 38.0288 73.5138 37.4605C73.1426 36.8893 72.9543 36.0775 72.9543 35.0486C72.9543 34.0214 73.1426 33.2124 73.5138 32.6456C73.8805 32.0848 74.4416 31.8117 75.2294 31.8117C76.0158 31.8117 76.5798 32.0848 76.9538 32.6456C77.3294 33.2123 77.5207 34.0213 77.5207 35.0486M79.2909 33.1416C79.117 32.5526 78.8461 32.033 78.4854 31.6006C78.1245 31.1666 77.6681 30.8183 77.126 30.5644C76.5856 30.3121 75.9466 30.1837 75.2294 30.1837C74.5107 30.1837 73.8716 30.3121 73.3311 30.5644C72.7892 30.8183 72.3327 31.1667 71.9705 31.6006C71.6112 32.0346 71.3402 32.5541 71.165 33.1416C70.9927 33.7275 70.9057 34.3681 70.9057 35.0486C70.9057 35.7292 70.9927 36.3712 71.165 36.9557C71.3402 37.5432 71.6097 38.0628 71.972 38.4967C72.3328 38.9306 72.7908 39.2775 73.3312 39.5239C73.8731 39.7705 74.5107 39.8959 75.2295 39.8959C75.9467 39.8959 76.5843 39.7705 77.1261 39.5239C77.6666 39.2775 78.1245 38.9305 78.4855 38.4967C78.8462 38.0641 79.1171 37.5446 79.291 36.9557C79.4648 36.3697 79.5517 35.7276 79.5517 35.0486C79.5517 34.3697 79.4646 33.7275 79.2909 33.1416M93.8267 38.0286C93.7678 37.8559 93.6014 37.9208 93.6014 37.9208C93.3437 38.0198 93.0697 38.1112 92.7782 38.157C92.4821 38.2026 92.1567 38.2264 91.8076 38.2264C90.9507 38.2264 90.2703 37.971 89.7829 37.4662C89.294 36.9614 89.02 36.1452 89.0229 35.0411C89.0259 34.0359 89.2674 33.2801 89.7019 32.7045C90.1334 32.1319 90.7902 31.838 91.6664 31.838C92.3969 31.838 92.9535 31.9221 93.5365 32.1067C93.5365 32.1067 93.6764 32.1671 93.7427 31.9842C93.8973 31.5531 94.0121 31.2446 94.1771 30.7708C94.2243 30.6365 94.1094 30.5789 94.0681 30.5627C93.8384 30.4726 93.2964 30.3266 92.8871 30.2646C92.5042 30.2055 92.0565 30.1745 91.5588 30.1745C90.8149 30.1745 90.1523 30.3015 89.5855 30.5554C89.0199 30.8078 88.5399 31.1561 88.16 31.5901C87.78 32.0241 87.4914 32.5435 87.2985 33.131C87.1071 33.717 87.0099 34.3605 87.0099 35.0411C87.0099 36.5127 87.406 37.7023 88.1881 38.5732C88.9714 39.4471 90.1481 39.8913 91.6826 39.8913C92.5898 39.8913 93.5205 39.7069 94.1891 39.4426C94.1891 39.4426 94.3172 39.3806 94.2612 39.2316L93.8267 38.0286V38.0286ZM96.9238 34.0631C97.0077 33.4919 97.1653 33.0165 97.4083 32.6461C97.775 32.0837 98.3346 31.7753 99.121 31.7753C99.9075 31.7753 100.427 32.0852 100.8 32.6461C101.047 33.0165 101.155 33.5126 101.197 34.0631H96.9238ZM102.884 32.8069C102.733 32.2386 102.361 31.6644 102.116 31.4017C101.73 30.9854 101.354 30.6947 100.979 30.5323C100.491 30.3227 99.9044 30.184 99.2624 30.184C98.5143 30.184 97.8354 30.3095 97.2846 30.5692C96.7325 30.829 96.2687 31.1833 95.9048 31.6247C95.541 32.0645 95.2671 32.5885 95.0933 33.1833C94.9181 33.7752 94.8297 34.4203 94.8297 35.1006C94.8297 35.7929 94.9211 36.438 95.1022 37.018C95.2848 37.6026 95.5764 38.1177 95.971 38.5442C96.3642 38.9738 96.8708 39.3104 97.4775 39.5449C98.0799 39.7782 98.8118 39.8992 99.6526 39.8976C101.383 39.8917 102.295 39.5051 102.67 39.2969C102.736 39.2601 102.8 39.1951 102.72 39.0092L102.328 37.9094C102.27 37.7456 102.103 37.8061 102.103 37.8061C101.674 37.9655 101.065 38.2519 99.6437 38.249C98.7146 38.2475 98.0253 37.973 97.5937 37.5434C97.1505 37.1036 96.934 36.457 96.8958 35.5448L102.888 35.5508C102.888 35.5508 103.045 35.5479 103.062 35.3942C103.068 35.3295 103.268 34.1605 102.884 32.8069M48.9356 34.0631C49.021 33.4919 49.1771 33.0165 49.4201 32.6461C49.7867 32.0837 50.3463 31.7753 51.1327 31.7753C51.9191 31.7753 52.439 32.0852 52.8129 32.6461C53.0588 33.0165 53.1663 33.5126 53.2091 34.0631H48.9356V34.0631ZM54.8938 32.8069C54.7436 32.2386 54.3725 31.6644 54.1281 31.4017C53.7422 30.9854 53.3652 30.6947 52.9912 30.5323C52.5023 30.3227 51.9163 30.184 51.2742 30.184C50.5275 30.184 49.8472 30.3095 49.2964 30.5692C48.7442 30.829 48.2803 31.1833 47.9166 31.6247C47.5529 32.0645 47.2789 32.5885 47.1052 33.1833C46.9314 33.7752 46.8416 34.4203 46.8416 35.1006C46.8416 35.7929 46.9329 36.438 47.1141 37.018C47.2967 37.6026 47.5883 38.1177 47.9829 38.5442C48.3762 38.9738 48.8827 39.3104 49.4894 39.5449C50.0918 39.7782 50.8236 39.8992 51.6645 39.8976C53.3948 39.8917 54.3064 39.5051 54.6819 39.2969C54.7483 39.2601 54.8115 39.1951 54.732 39.0092L54.3418 37.9094C54.2814 37.7456 54.1151 37.8061 54.1151 37.8061C53.6865 37.9655 53.0783 38.2519 51.6543 38.249C50.7265 38.2475 50.0374 37.973 49.6058 37.5434C49.1625 37.1036 48.9461 36.457 48.9077 35.5448L54.8999 35.5508C54.8999 35.5508 55.0574 35.5479 55.0736 35.3942C55.0793 35.3295 55.2795 34.1605 54.8938 32.8069M35.9837 37.9957C35.7495 37.8082 35.7171 37.761 35.6376 37.6399C35.5198 37.4554 35.4594 37.1927 35.4594 36.8591C35.4594 36.3306 35.6332 35.9513 35.994 35.696C35.9897 35.6975 36.5095 35.2458 37.7317 35.262C38.5902 35.2738 39.3574 35.4008 39.3574 35.4008V38.1315H39.3588C39.3588 38.1315 38.5975 38.2952 37.7405 38.3469C36.5212 38.4207 35.9792 37.9942 35.9837 37.9957M38.3678 33.7757C38.1248 33.7579 37.8096 33.7476 37.4326 33.7476C36.9187 33.7476 36.4224 33.8125 35.9571 33.938C35.4888 34.0634 35.0676 34.2598 34.7054 34.5194C34.3436 34.7782 34.0463 35.1172 33.8365 35.5099C33.6245 35.9055 33.517 36.3719 33.517 36.8945C33.517 37.4258 33.6082 37.8878 33.7909 38.2658C33.9735 38.6451 34.2371 38.9609 34.5728 39.2046C34.9056 39.4481 35.3165 39.6266 35.7936 39.7344C36.2634 39.8421 36.7964 39.8967 37.3796 39.8967C37.9937 39.8967 38.6063 39.8466 39.1998 39.7447C39.7874 39.6442 40.5089 39.4981 40.7092 39.4525C40.8496 39.4186 40.9895 39.3826 41.1289 39.3447C41.2777 39.3079 41.2659 39.1484 41.2659 39.1484L41.2629 33.6561C41.2629 32.4515 40.9419 31.5585 40.3102 31.005C39.6813 30.453 38.755 30.1739 37.5578 30.1739C37.1086 30.1739 36.3856 30.236 35.9526 30.3231C35.9526 30.3231 34.6435 30.577 34.1044 30.9991C34.1044 30.9991 33.9867 31.073 34.0515 31.2383L34.4756 32.3808C34.5286 32.5284 34.6715 32.4782 34.6715 32.4782C34.6715 32.4782 34.7172 32.4605 34.7702 32.4295C35.9233 31.8007 37.3812 31.8199 37.3812 31.8199C38.0292 31.8199 38.5269 31.9497 38.8626 32.208C39.1895 32.4589 39.3559 32.8382 39.3559 33.6382V33.8921C38.8405 33.8184 38.3678 33.7757 38.3678 33.7757M86.6969 30.681C86.7424 30.5451 86.6468 30.4802 86.607 30.4655C86.5054 30.4256 85.9959 30.3179 85.6027 30.2928C84.8502 30.247 84.4321 30.374 84.0579 30.5422C83.6868 30.7105 83.2745 30.982 83.0447 31.2906V30.56C83.0447 30.4581 82.9726 30.3769 82.8724 30.3769H81.3364C81.2363 30.3769 81.1642 30.458 81.1642 30.56V39.518C81.1642 39.6184 81.2467 39.7011 81.3468 39.7011H82.921C82.9692 39.7008 83.0154 39.6814 83.0493 39.6471C83.0833 39.6128 83.1023 39.5663 83.1021 39.518V35.0427C83.1021 34.442 83.1685 33.8428 83.301 33.4664C83.4306 33.0943 83.6073 32.7962 83.8253 32.5821C84.0446 32.3696 84.2935 32.2206 84.566 32.1364C84.8442 32.0508 85.152 32.0228 85.37 32.0228C85.6837 32.0228 86.0283 32.1039 86.0283 32.1039C86.143 32.1171 86.2079 32.0463 86.2461 31.9415C86.3493 31.667 86.6409 30.8448 86.6969 30.681" fill="#231F20"/>
<path d="M71.9215 26.5294C71.7301 26.4704 71.5563 26.4304 71.3295 26.3877C71.0997 26.3464 70.8259 26.3257 70.5152 26.3257C69.4312 26.3257 68.5771 26.6327 67.9778 27.2378C67.3814 27.8401 66.9763 28.7567 66.7731 29.9627L66.6994 30.3686H65.3388C65.3388 30.3686 65.1739 30.3626 65.1385 30.5428L64.9162 31.793C64.9 31.9111 64.9516 31.9863 65.1106 31.9863H66.4345L65.0914 39.5023C64.9868 40.1075 64.866 40.605 64.732 40.9827C64.6009 41.3548 64.4729 41.6337 64.3138 41.8374C64.1607 42.0323 64.0163 42.1769 63.7659 42.261C63.5598 42.3304 63.3212 42.3629 63.0606 42.3629C62.9162 42.3629 62.7234 42.3391 62.5805 42.3097C62.4392 42.2815 62.364 42.2506 62.2565 42.2048C62.2565 42.2048 62.1019 42.1459 62.04 42.3008C61.9914 42.4292 61.638 43.4018 61.5953 43.5215C61.5541 43.641 61.613 43.7341 61.688 43.7621C61.8647 43.8241 61.9957 43.8654 62.2358 43.9229C62.5687 44.0013 62.8499 44.0056 63.1135 44.0056C63.6642 44.0056 64.1678 43.9274 64.5847 43.7769C65.0029 43.6248 65.368 43.3606 65.692 43.0034C66.0411 42.6167 66.2604 42.2123 66.4697 41.6588C66.6773 41.1126 66.8556 40.4336 66.9968 39.6425L68.3473 31.9863H70.3206C70.3206 31.9863 70.4869 31.9922 70.5209 31.8107L70.7446 30.562C70.7594 30.4425 70.7093 30.3687 70.5487 30.3687H68.6329C68.6432 30.3259 68.73 29.6498 68.9495 29.0137C69.0438 28.7436 69.2204 28.5237 69.3693 28.373C69.5166 28.2255 69.6859 28.1207 69.8716 28.0601C70.0614 27.9981 70.278 27.9686 70.5151 27.9686C70.6948 27.9686 70.8728 27.9893 71.0069 28.0173C71.1924 28.0572 71.2645 28.0779 71.3133 28.0927C71.5092 28.1517 71.5355 28.0941 71.5739 27.9998L72.0319 26.7392C72.079 26.6031 71.9627 26.5456 71.9215 26.5294M45.1528 39.5186C45.1528 39.619 45.0807 39.7002 44.9805 39.7002H43.3916C43.2914 39.7002 43.2207 39.619 43.2207 39.5186V26.7006C43.2207 26.6003 43.2914 26.5191 43.3916 26.5191H44.9805C45.0807 26.5191 45.1528 26.6003 45.1528 26.7006V39.5186Z" fill="#231F20"/>
</g>
<path d="M5.09668 95.8738C4.27767 95.8738 3.5555 95.705 2.93018 95.3674C2.30485 95.0299 1.81787 94.5152 1.46924 93.8235C1.12061 93.1318 0.946289 92.2602 0.946289 91.2087C0.946289 90.1075 1.12891 89.2083 1.49414 88.511C1.86491 87.8082 2.37402 87.288 3.02148 86.9504C3.66895 86.6129 4.40495 86.4441 5.22949 86.4441C5.68327 86.4441 6.12044 86.4911 6.54102 86.5852C6.96712 86.6737 7.31576 86.7872 7.58691 86.9255L7.17188 88.0793C6.89518 87.9687 6.57422 87.8691 6.20898 87.7805C5.84928 87.692 5.51172 87.6477 5.19629 87.6477C4.56543 87.6477 4.03971 87.7833 3.61914 88.0544C3.2041 88.3256 2.89144 88.724 2.68115 89.2498C2.4764 89.7755 2.37402 90.4229 2.37402 91.1921C2.37402 91.9281 2.47363 92.5562 2.67285 93.0764C2.8776 93.5966 3.1792 93.995 3.57764 94.2717C3.98161 94.5429 4.48519 94.6785 5.08838 94.6785C5.56982 94.6785 6.00423 94.6287 6.3916 94.5291C6.77897 94.4239 7.13037 94.3022 7.4458 94.1638V95.3923C7.14144 95.5473 6.80111 95.6663 6.4248 95.7493C6.05404 95.8323 5.61133 95.8738 5.09668 95.8738ZM16.7682 91.1423C16.7682 91.8894 16.6714 92.5562 16.4777 93.1428C16.284 93.7294 16.0046 94.2247 15.6393 94.6287C15.2741 95.0326 14.8314 95.3425 14.3112 95.5583C13.7966 95.7686 13.2127 95.8738 12.5597 95.8738C11.951 95.8738 11.3921 95.7686 10.883 95.5583C10.3794 95.3425 9.94223 95.0326 9.57147 94.6287C9.20623 94.2247 8.92124 93.7294 8.71648 93.1428C8.51727 92.5562 8.41766 91.8894 8.41766 91.1423C8.41766 90.1462 8.58644 89.2996 8.924 88.6023C9.26157 87.8995 9.74301 87.3655 10.3683 87.0002C10.9992 86.6295 11.749 86.4441 12.6179 86.4441C13.4479 86.4441 14.1729 86.6295 14.7927 87.0002C15.418 87.371 15.9022 87.9078 16.2453 88.6106C16.5939 89.3079 16.7682 90.1518 16.7682 91.1423ZM9.84539 91.1423C9.84539 91.8728 9.94223 92.5064 10.1359 93.0432C10.3296 93.58 10.6284 93.995 11.0324 94.2883C11.4364 94.5816 11.9566 94.7283 12.5929 94.7283C13.2238 94.7283 13.7412 94.5816 14.1452 94.2883C14.5547 93.995 14.8563 93.58 15.05 93.0432C15.2437 92.5064 15.3405 91.8728 15.3405 91.1423C15.3405 90.4174 15.2437 89.7921 15.05 89.2664C14.8563 88.7351 14.5575 88.3256 14.1535 88.0378C13.7495 87.7501 13.2266 87.6062 12.5846 87.6062C11.6384 87.6062 10.9439 87.9189 10.5012 88.5442C10.064 89.1695 9.84539 90.0356 9.84539 91.1423ZM28.3485 86.4441C29.3501 86.4441 30.1055 86.7069 30.6146 87.2327C31.1237 87.7528 31.3783 88.5912 31.3783 89.7478V95.7078H30.017V89.8142C30.017 89.0782 29.8565 88.5276 29.5355 88.1624C29.2201 87.7916 28.7497 87.6062 28.1244 87.6062C27.2445 87.6062 26.6053 87.8608 26.2069 88.3699C25.8085 88.879 25.6092 89.6288 25.6092 90.6194V95.7078H24.2396V89.8142C24.2396 89.3217 24.1677 88.9122 24.0238 88.5857C23.8854 88.2592 23.6752 88.0157 23.3929 87.8552C23.1162 87.6892 22.7648 87.6062 22.3387 87.6062C21.7355 87.6062 21.2513 87.7307 20.8861 87.9797C20.5209 88.2288 20.2552 88.5995 20.0892 89.092C19.9287 89.579 19.8485 90.1794 19.8485 90.8933V95.7078H18.4706V86.6101H19.5829L19.7904 87.8967H19.8651C20.0477 87.5813 20.2774 87.3157 20.5541 87.0999C20.8308 86.884 21.1407 86.7208 21.4837 86.6101C21.8268 86.4994 22.1921 86.4441 22.5795 86.4441C23.2712 86.4441 23.8495 86.5741 24.3143 86.8342C24.7847 87.0888 25.125 87.4789 25.3353 88.0046H25.41C25.7088 87.4789 26.1184 87.0888 26.6385 86.8342C27.1587 86.5741 27.7287 86.4441 28.3485 86.4441ZM43.4068 86.4441C44.4084 86.4441 45.1638 86.7069 45.6729 87.2327C46.182 87.7528 46.4366 88.5912 46.4366 89.7478V95.7078H45.0752V89.8142C45.0752 89.0782 44.9148 88.5276 44.5938 88.1624C44.2784 87.7916 43.808 87.6062 43.1827 87.6062C42.3028 87.6062 41.6636 87.8608 41.2652 88.3699C40.8667 88.879 40.6675 89.6288 40.6675 90.6194V95.7078H39.2979V89.8142C39.2979 89.3217 39.2259 88.9122 39.0821 88.5857C38.9437 88.2592 38.7334 88.0157 38.4512 87.8552C38.1745 87.6892 37.8231 87.6062 37.397 87.6062C36.7938 87.6062 36.3096 87.7307 35.9444 87.9797C35.5791 88.2288 35.3135 88.5995 35.1475 89.092C34.987 89.579 34.9068 90.1794 34.9068 90.8933V95.7078H33.5288V86.6101H34.6412L34.8487 87.8967H34.9234C35.106 87.5813 35.3357 87.3157 35.6123 87.0999C35.889 86.884 36.1989 86.7208 36.542 86.6101C36.8851 86.4994 37.2504 86.4441 37.6377 86.4441C38.3295 86.4441 38.9078 86.5741 39.3726 86.8342C39.843 87.0888 40.1833 87.4789 40.3936 88.0046H40.4683C40.7671 87.4789 41.1766 87.0888 41.6968 86.8342C42.217 86.5741 42.787 86.4441 43.4068 86.4441ZM52.0901 86.4441C52.8648 86.4441 53.5289 86.6156 54.0822 86.9587C54.6356 87.3018 55.059 87.7833 55.3523 88.4031C55.6456 89.0173 55.7922 89.7367 55.7922 90.5613V91.4163H49.5085C49.5251 92.4843 49.7907 93.2978 50.3054 93.8567C50.82 94.4156 51.545 94.6951 52.4802 94.6951C53.0557 94.6951 53.5648 94.6425 54.0075 94.5374C54.4502 94.4322 54.9096 94.2773 55.3855 94.0725V95.2844C54.9262 95.4892 54.4696 95.6386 54.0158 95.7327C53.5676 95.8267 53.0363 95.8738 52.4221 95.8738C51.5477 95.8738 50.7841 95.6967 50.1311 95.3425C49.4836 94.9828 48.98 94.4571 48.6203 93.7654C48.2606 93.0736 48.0808 92.227 48.0808 91.2253C48.0808 90.2458 48.244 89.3992 48.5705 88.6853C48.9026 87.9659 49.3674 87.4125 49.9651 87.0251C50.5682 86.6378 51.2766 86.4441 52.0901 86.4441ZM52.0735 87.573C51.3375 87.573 50.7509 87.8137 50.3137 88.2952C49.8765 88.7766 49.6164 89.449 49.5334 90.3123H54.3479C54.3423 89.7699 54.2566 89.294 54.0905 88.8845C53.9301 88.4695 53.6838 88.1485 53.3518 87.9216C53.0197 87.6892 52.5936 87.573 52.0735 87.573ZM61.5868 86.4441C61.7694 86.4441 61.9604 86.4552 62.1596 86.4773C62.3588 86.4939 62.5359 86.5188 62.6908 86.552L62.5165 87.8303C62.3671 87.7916 62.2011 87.7611 62.0185 87.739C61.8358 87.7169 61.6643 87.7058 61.5038 87.7058C61.1386 87.7058 60.7927 87.7805 60.4662 87.9299C60.1452 88.0738 59.863 88.2841 59.6195 88.5608C59.376 88.8319 59.1851 89.1612 59.0468 89.5486C58.9084 89.9304 58.8393 90.3565 58.8393 90.8269V95.7078H57.453V86.6101H58.5985L58.7479 88.2869H58.8061C58.9942 87.9493 59.2211 87.6422 59.4867 87.3655C59.7523 87.0833 60.0595 86.8591 60.4081 86.6931C60.7623 86.5271 61.1552 86.4441 61.5868 86.4441ZM67.3731 95.8738C66.5541 95.8738 65.8319 95.705 65.2066 95.3674C64.5813 95.0299 64.0943 94.5152 63.7457 93.8235C63.397 93.1318 63.2227 92.2602 63.2227 91.2087C63.2227 90.1075 63.4053 89.2083 63.7706 88.511C64.1414 87.8082 64.6505 87.288 65.2979 86.9504C65.9454 86.6129 66.6814 86.4441 67.5059 86.4441C67.9597 86.4441 68.3969 86.4911 68.8175 86.5852C69.2436 86.6737 69.5922 86.7872 69.8634 86.9255L69.4483 88.0793C69.1716 87.9687 68.8507 87.8691 68.4854 87.7805C68.1257 87.692 67.7882 87.6477 67.4727 87.6477C66.8419 87.6477 66.3162 87.7833 65.8956 88.0544C65.4805 88.3256 65.1679 88.724 64.9576 89.2498C64.7528 89.7755 64.6505 90.4229 64.6505 91.1921C64.6505 91.9281 64.7501 92.5562 64.9493 93.0764C65.154 93.5966 65.4556 93.995 65.8541 94.2717C66.2581 94.5429 66.7616 94.6785 67.3648 94.6785C67.8463 94.6785 68.2807 94.6287 68.668 94.5291C69.0554 94.4239 69.4068 94.3022 69.7222 94.1638V95.3923C69.4179 95.5473 69.0776 95.6663 68.7012 95.7493C68.3305 95.8323 67.8878 95.8738 67.3731 95.8738ZM74.7034 86.4441C75.4781 86.4441 76.1422 86.6156 76.6956 86.9587C77.2489 87.3018 77.6723 87.7833 77.9656 88.4031C78.2589 89.0173 78.4055 89.7367 78.4055 90.5613V91.4163H72.1218C72.1384 92.4843 72.4041 93.2978 72.9187 93.8567C73.4334 94.4156 74.1583 94.6951 75.0935 94.6951C75.669 94.6951 76.1781 94.6425 76.6209 94.5374C77.0636 94.4322 77.5229 94.2773 77.9988 94.0725V95.2844C77.5395 95.4892 77.0829 95.6386 76.6292 95.7327C76.1809 95.8267 75.6497 95.8738 75.0354 95.8738C74.1611 95.8738 73.3974 95.6967 72.7444 95.3425C72.0969 94.9828 71.5934 94.4571 71.2337 93.7654C70.8739 93.0736 70.6941 92.227 70.6941 91.2253C70.6941 90.2458 70.8573 89.3992 71.1838 88.6853C71.5159 87.9659 71.9807 87.4125 72.5784 87.0251C73.1816 86.6378 73.8899 86.4441 74.7034 86.4441ZM74.6868 87.573C73.9508 87.573 73.3642 87.8137 72.927 88.2952C72.4898 88.7766 72.2297 89.449 72.1467 90.3123H76.9612C76.9557 89.7699 76.8699 89.294 76.7039 88.8845C76.5434 88.4695 76.2971 88.1485 75.9651 87.9216C75.6331 87.6892 75.207 87.573 74.6868 87.573ZM87.4464 95.8738C86.6274 95.8738 85.9052 95.705 85.2799 95.3674C84.6546 95.0299 84.1676 94.5152 83.819 93.8235C83.4703 93.1318 83.296 92.2602 83.296 91.2087C83.296 90.1075 83.4786 89.2083 83.8439 88.511C84.2146 87.8082 84.7237 87.288 85.3712 86.9504C86.0187 86.6129 86.7547 86.4441 87.5792 86.4441C88.033 86.4441 88.4702 86.4911 88.8907 86.5852C89.3168 86.6737 89.6655 86.7872 89.9366 86.9255L89.5216 88.0793C89.2449 87.9687 88.9239 87.8691 88.5587 87.7805C88.199 87.692 87.8614 87.6477 87.546 87.6477C86.9152 87.6477 86.3894 87.7833 85.9689 88.0544C85.5538 88.3256 85.2412 88.724 85.0309 89.2498C84.8261 89.7755 84.7237 90.4229 84.7237 91.1921C84.7237 91.9281 84.8234 92.5562 85.0226 93.0764C85.2273 93.5966 85.5289 93.995 85.9274 94.2717C86.3313 94.5429 86.8349 94.6785 87.4381 94.6785C87.9195 94.6785 88.354 94.6287 88.7413 94.5291C89.1287 94.4239 89.4801 94.3022 89.7955 94.1638V95.3923C89.4912 95.5473 89.1508 95.6663 88.7745 95.7493C88.4038 95.8323 87.9611 95.8738 87.4464 95.8738ZM92.66 95.7078H91.2737V82.7917H92.66V95.7078ZM102.738 91.1423C102.738 91.8894 102.641 92.5562 102.447 93.1428C102.254 93.7294 101.974 94.2247 101.609 94.6287C101.244 95.0326 100.801 95.3425 100.281 95.5583C99.7661 95.7686 99.1823 95.8738 98.5293 95.8738C97.9206 95.8738 97.3616 95.7686 96.8525 95.5583C96.3489 95.3425 95.9118 95.0326 95.541 94.6287C95.1758 94.2247 94.8908 93.7294 94.686 93.1428C94.4868 92.5562 94.3872 91.8894 94.3872 91.1423C94.3872 90.1462 94.556 89.2996 94.8935 88.6023C95.2311 87.8995 95.7125 87.3655 96.3379 87.0002C96.9687 86.6295 97.7186 86.4441 98.5874 86.4441C99.4175 86.4441 100.142 86.6295 100.762 87.0002C101.388 87.371 101.872 87.9078 102.215 88.6106C102.563 89.3079 102.738 90.1518 102.738 91.1423ZM95.8149 91.1423C95.8149 91.8728 95.9118 92.5064 96.1054 93.0432C96.2991 93.58 96.598 93.995 97.0019 94.2883C97.4059 94.5816 97.9261 94.7283 98.5625 94.7283C99.1933 94.7283 99.7108 94.5816 100.115 94.2883C100.524 93.995 100.826 93.58 101.02 93.0432C101.213 92.5064 101.31 91.8728 101.31 91.1423C101.31 90.4174 101.213 89.7921 101.02 89.2664C100.826 88.7351 100.527 88.3256 100.123 88.0378C99.7191 87.7501 99.1961 87.6062 98.5542 87.6062C97.6079 87.6062 96.9134 87.9189 96.4707 88.5442C96.0335 89.1695 95.8149 90.0356 95.8149 91.1423ZM111.952 86.6101V95.7078H110.823L110.624 94.4294H110.549C110.361 94.7449 110.118 95.0105 109.819 95.2263C109.52 95.4421 109.183 95.6026 108.806 95.7078C108.436 95.8184 108.04 95.8738 107.619 95.8738C106.9 95.8738 106.297 95.7576 105.81 95.5251C105.323 95.2927 104.955 94.933 104.706 94.446C104.462 93.9591 104.34 93.3337 104.34 92.5701V86.6101H105.735V92.4705C105.735 93.2286 105.907 93.7958 106.25 94.1721C106.593 94.5429 107.116 94.7283 107.819 94.7283C108.494 94.7283 109.03 94.601 109.429 94.3464C109.833 94.0919 110.123 93.7183 110.3 93.2258C110.478 92.7278 110.566 92.1191 110.566 91.3997V86.6101H111.952ZM117.423 95.8738C116.272 95.8738 115.359 95.4809 114.684 94.6951C114.014 93.9093 113.68 92.7416 113.68 91.1921C113.68 89.6261 114.023 88.4446 114.709 87.6477C115.395 86.8453 116.308 86.4441 117.448 86.4441C117.93 86.4441 118.35 86.5077 118.71 86.635C119.07 86.7623 119.379 86.9338 119.639 87.1497C119.9 87.3599 120.118 87.6007 120.295 87.8718H120.395C120.373 87.7003 120.351 87.4651 120.328 87.1663C120.306 86.8674 120.295 86.6239 120.295 86.4358V82.7917H121.673V95.7078H120.561L120.353 94.4128H120.295C120.124 94.684 119.905 94.9303 119.639 95.1516C119.379 95.373 119.067 95.55 118.702 95.6829C118.342 95.8101 117.916 95.8738 117.423 95.8738ZM117.639 94.7283C118.613 94.7283 119.302 94.4516 119.706 93.8982C120.11 93.3448 120.312 92.523 120.312 91.4329V91.1838C120.312 90.0273 120.118 89.1391 119.731 88.5193C119.349 87.8995 118.652 87.5896 117.639 87.5896C116.792 87.5896 116.159 87.9161 115.738 88.5691C115.318 89.2166 115.107 90.102 115.107 91.2253C115.107 92.3432 115.315 93.2065 115.73 93.8152C116.15 94.4239 116.787 94.7283 117.639 94.7283Z" fill="#FFFFFF"/>
<defs>
<clipPath id="clip0_807_1296">
<rect width="103.378" height="72.5328" fill="white" transform="translate(10.3105 1)"/>
</clipPath>
</defs>
</svg>
