<svg width="10" height="34" viewBox="0 0 10 34" fill="none" xmlns="http://www.w3.org/2000/svg">
<path d="M2.03006 17.9293C2.1484 18.0893 2.23464 18.1924 2.3064 18.305C2.86663 19.1934 3.42812 20.0805 3.97513 20.9773C4.04186 21.0861 4.07585 21.2672 4.03556 21.383C3.71894 22.299 3.56786 23.2405 3.57038 24.2089C3.57416 25.7341 3.56787 27.26 3.60249 28.7847C3.61067 29.1341 3.70824 29.5118 3.86812 29.8209C4.25462 30.5646 5.07797 30.5666 5.48083 29.8299C5.62876 29.5604 5.73325 29.2269 5.73703 28.9216C5.76095 27.1199 5.77669 25.3168 5.74018 23.5157C5.71626 22.3579 5.37445 21.2685 4.78086 20.2732C4.37863 19.5986 3.96821 18.9284 3.54457 18.2679C2.71933 16.9827 1.86388 15.7173 1.05626 14.4212C0.323555 13.246 0.0384009 11.9224 0.0188872 10.5482C-0.00692127 8.7029 -0.00566232 6.85698 0.0188872 5.01106C0.047843 2.87647 1.16013 1.28017 3.03533 0.741246C4.21559 0.402016 5.42481 0.409057 6.59626 0.830853C8.20646 1.41138 9.28034 2.92128 9.31433 4.73455C9.3521 6.79297 9.35084 8.85267 9.30993 10.9111C9.28601 12.1189 8.9656 13.2703 8.35753 14.3226C8.02895 14.891 7.69092 15.4542 7.29309 16.1282C7.2314 16.0027 7.20497 15.9336 7.16657 15.8722C6.56731 14.921 5.96175 13.9738 5.37257 13.0156C5.30647 12.9081 5.28066 12.7237 5.32221 12.6066C5.59855 11.8257 5.75906 11.0205 5.76536 10.1962C5.77921 8.46864 5.76221 6.74049 5.74395 5.01298C5.74144 4.7832 5.68164 4.54766 5.61114 4.32684C5.45754 3.84296 5.16736 3.62662 4.71665 3.62406C4.203 3.62086 3.90211 3.81799 3.746 4.31212C3.66354 4.57262 3.60059 4.85296 3.59871 5.12499C3.58738 6.92739 3.56471 8.73106 3.60752 10.5328C3.6327 11.5761 3.89204 12.5944 4.44157 13.4854C5.35494 14.9658 6.33063 16.406 7.26414 17.8736C7.88983 18.8574 8.547 19.8258 8.91839 20.9523C9.18403 21.7575 9.32315 22.5864 9.32629 23.4344C9.33322 25.3015 9.3307 27.1685 9.32755 29.0356C9.32629 29.7147 9.20291 30.3713 8.93791 30.998C8.3953 32.2806 7.43346 33.0628 6.10527 33.3438C5.12329 33.5518 4.11991 33.5601 3.13919 33.3207C1.4245 32.9021 0.245499 31.5094 0.0755414 29.7243C0.0239245 29.184 0.00944598 28.6387 0.0119639 28.0953C0.0207765 26.3249 0.016999 24.5539 0.0742812 22.7848C0.110161 21.673 0.44819 20.6265 1.00779 19.6632C1.33638 19.0974 1.67126 18.5354 2.02943 17.9274L2.03006 17.9293Z" fill="white"/>
</svg>
