<svg width="43" height="90" viewBox="0 0 43 90" fill="none" xmlns="http://www.w3.org/2000/svg">
<path fill-rule="evenodd" clip-rule="evenodd" d="M7.59006 0H12.1234C13.8342 5.78163 15.5579 11.5503 17.2764 17.3241C17.2747 17.3328 17.2807 17.3336 17.2867 17.3345C18.5044 16.9749 19.9553 16.7184 21.5207 16.669C23.5627 16.6049 25.5627 16.8354 27.2209 17.2201C27.2605 17.2296 27.2906 17.2383 27.3449 17.2409C31.0168 11.5 34.6845 5.75477 38.3427 0H43C41.655 0.577123 40.828 1.76343 40.0053 2.90121C37.5338 6.31716 35.1363 9.80676 32.6837 13.2478C31.6614 14.682 30.6597 16.1257 29.6477 17.5737C29.5806 17.6698 29.4971 17.7556 29.4515 17.8648C31.6468 18.6334 33.5417 19.7374 35.2034 21.078C35.2869 21.1456 35.5046 21.2894 35.5132 21.3588C35.5184 21.3995 35.4461 21.5988 35.4306 21.6603C35.0571 23.1742 34.6931 24.6837 34.3153 26.1733C34.2869 26.208 34.2878 26.1473 34.2843 26.1421C34.2017 26.0139 34.1183 25.8466 34.0365 25.7054C33.7542 25.2201 33.4212 24.7556 33.0865 24.3016C31.7655 22.5104 30.0392 21.0225 27.9851 19.9549C27.8965 20.0381 27.8362 20.149 27.7683 20.2461C26.1952 22.4939 24.5954 24.7608 23.018 27.026C22.4612 27.8258 21.9767 28.6646 21.5723 29.5945C21.1644 30.5321 20.8279 31.5373 20.55 32.5893C20.4088 33.1231 20.2901 33.669 20.1679 34.2218C20.0483 34.7626 19.9131 35.3059 19.7961 35.8544C19.3237 38.0702 18.84 40.2938 18.3607 42.4887C18.8899 43.1482 19.4467 43.8085 19.982 44.4749C20.0551 44.5659 20.1205 44.6629 20.2092 44.7348C20.8761 41.6213 21.5611 38.4731 22.2229 35.3137C22.3287 34.8068 22.4397 34.2106 22.3984 33.6083C22.3588 33.0338 22.2332 32.6109 21.9544 32.2669C21.9501 32.2608 21.8924 32.2114 21.9337 32.2149H28.4705C27.4387 36.5823 26.363 40.9255 25.3208 45.3276C25.0033 46.669 24.6608 48.0572 24.3398 49.435C24.3166 49.5338 24.2641 49.6438 24.2675 49.695C24.271 49.7452 24.3553 49.8241 24.4224 49.903C25.2339 50.8631 26.0532 51.8536 26.8182 52.8562C27.6426 53.9359 28.4653 55.0555 29.1107 56.2773C29.7708 57.526 30.3034 58.922 30.4325 60.6759C30.5728 62.5737 30.2363 64.2721 29.8129 65.7192C28.9575 68.643 27.4705 71.0087 25.517 72.8527C23.5197 74.7383 21.0138 76.0225 17.8031 76.6586C17.0226 79.8856 16.2326 83.1343 15.4589 86.4021C15.409 86.6135 15.3419 86.8466 15.2937 87.0988C15.2472 87.3406 15.2085 87.6577 15.2834 87.8579C15.3617 88.0667 15.588 88.1447 15.903 88.1594C16.1887 88.1724 16.5277 88.1594 16.822 88.1594C19.8959 88.1594 22.8399 88.0797 25.641 87.8267C26.764 87.7253 27.8638 87.6005 28.9352 87.4627C33.2749 86.903 37.4641 86.1828 41.42 85.2998C41.4493 85.3206 41.4045 85.3527 41.3994 85.3622C40.7454 86.5078 40.0509 87.6673 39.3754 88.8146C39.143 89.2097 38.9089 89.6118 38.6835 90H9.68636C10.4041 89.3449 10.7913 88.3146 11.0391 87.2132C11.7964 83.8518 12.5141 80.3848 13.2594 77.0225C11.7465 76.974 10.3868 76.6967 9.13905 76.3362C6.96702 75.7088 5.07123 74.7938 3.34582 73.7054C2.12556 72.9359 0.965538 72.0971 0 71.0433V71.0017C0.474164 69.136 0.914766 67.2366 1.39409 65.3761C2.41815 67.9255 4.05147 69.9714 6.04107 71.6049C7.0264 72.4134 8.12016 73.1005 9.35591 73.7158C9.96088 74.0173 10.6115 74.2669 11.3076 74.4749C12.0443 74.6958 12.8343 74.877 13.7034 74.9012C13.7137 74.9012 13.7155 74.8925 13.7241 74.8908C14.5665 70.8821 15.4632 66.8778 16.316 62.87C17.1387 59.0061 18.0122 55.0919 18.8151 51.2132C18.8426 51.0806 18.908 50.9099 18.8977 50.8388C18.8865 50.7608 18.7394 50.6465 18.6705 50.5685C18.2592 50.1066 17.8874 49.6768 17.4933 49.2374C17.3539 49.0815 17.2179 48.9177 17.0802 48.7799C17.0699 48.7695 17.0449 48.7114 17.0183 48.7487C16.6138 50.6872 16.1878 52.6802 15.7687 54.6239C15.539 55.6906 15.391 57.3406 15.9753 58.1075C15.9959 58.1343 16.0673 58.1785 16.0269 58.201H9.98583C10.4195 57.9307 10.7216 57.5295 10.9462 57.0572C11.1794 56.5667 11.3085 56.0087 11.4212 55.4142C12.0968 51.8518 12.7009 48.1872 13.342 44.6101C12.5563 43.7322 11.7766 42.8622 10.9875 41.9896C10.2018 41.1213 9.3714 40.2955 8.6537 39.338C7.9446 38.3925 7.3405 37.3371 6.87752 36.1248C6.41196 34.9055 6.11335 33.5347 6.11335 31.8925C6.11335 30.2504 6.38271 28.8449 6.77426 27.5563C7.1615 26.2816 7.7243 25.1516 8.3439 24.1352C9.61407 22.0511 11.2801 20.4203 13.3007 19.1231C12.6578 16.6889 12.0486 14.1698 11.4006 11.7192C11.1837 10.8977 10.9737 10.0685 10.7707 9.24437C10.3696 7.61872 9.92817 5.94107 9.51081 4.29463C9.09172 2.64125 8.73545 0.909012 7.59006 0ZM21.2212 18.3432C19.9304 18.4047 18.7772 18.6906 17.7927 19.0503C18.6748 22.0477 19.5749 25.0269 20.457 28.0243C20.5353 27.9532 20.5758 27.8527 20.6326 27.7643C22.3562 25.0841 24.073 22.3614 25.7855 19.6846C25.8854 19.5277 26.0179 19.3579 26.1057 19.2062C26.11 19.1984 26.1401 19.1586 26.116 19.1438C24.752 18.6794 23.1066 18.253 21.2212 18.3432ZM11.4419 25.0295C11.1502 25.6924 10.8997 26.4575 10.7397 27.286C10.577 28.1283 10.4798 29.0728 10.5538 30.0312C10.6235 30.9324 10.8145 31.7357 11.0701 32.4749C11.3171 33.1889 11.645 33.883 11.9995 34.5026C12.6174 35.5823 13.3446 36.6083 14.1681 37.5078C14.2576 37.6057 14.3962 37.7704 14.4882 37.8406C14.5252 37.8692 14.4934 37.8761 14.5192 37.8406C14.5364 37.8172 14.5545 37.682 14.5708 37.591C14.5872 37.5 14.601 37.3934 14.6122 37.331C14.9486 35.3934 15.2842 33.5277 15.5932 31.6326C15.7085 30.9246 15.7954 30.1967 15.7584 29.3865C15.7248 28.6612 15.5622 27.987 15.397 27.3276C14.909 25.3761 14.3919 23.461 13.9099 21.5251C13.9099 21.5191 13.9082 21.513 13.8996 21.5147C12.8807 22.5026 12.0606 23.6248 11.4419 25.0295ZM21.0766 73.5598C22.3124 72.877 23.3837 71.9584 24.2159 70.8874C25.0584 69.8016 25.7511 68.5295 26.1366 66.9879C26.4017 65.9298 26.5179 64.7028 26.4464 63.4835C26.3776 62.3059 26.1169 61.2028 25.7855 60.26C25.1117 58.3432 24.0877 56.7652 22.9147 55.3726C21.3658 61.7851 19.8245 68.2054 18.2884 74.6309C19.3082 74.4029 20.2427 74.0208 21.0766 73.5598Z" fill="white"/>
</svg>
