<svg width="174" height="26" viewBox="0 0 174 26" fill="none" xmlns="http://www.w3.org/2000/svg">
<path d="M34.0725 17.9059C35.0218 17.9059 35.5683 17.8484 36.7764 17.5897L37.0641 19.602C36.1436 19.8607 35.1081 19.9757 34.0725 19.9757C29.4414 19.9757 28.1182 17.0722 28.1182 13.7088C28.147 10.4028 30.1317 7.64305 34.0438 7.64305C35.0793 7.64305 35.971 7.75807 37.0353 8.0455L36.6326 10.0578C35.482 9.79908 34.8205 9.77038 34.1013 9.77038C31.6563 9.79908 30.4482 11.639 30.3906 13.7375C30.4194 15.8361 31.1961 17.9059 34.0725 17.9059Z" fill="white"/>
<path d="M43.538 17.9342C45.9542 17.9055 46.7597 15.9507 46.7597 13.8233C46.7309 11.8685 45.9254 9.68375 43.538 9.68375C41.208 9.71245 40.3163 11.8685 40.3163 13.8233C40.2876 16.0369 41.2655 17.9342 43.538 17.9342ZM43.538 7.67136C47.335 7.70013 49.032 10.5174 49.032 13.8233C49.032 17.0431 47.5651 19.9465 43.5092 19.9753C39.5396 19.9465 38.0151 17.0718 38.0151 13.8233C38.0151 10.5174 39.741 7.70013 43.538 7.67136Z" fill="white"/>
<path d="M64.7656 19.7458V12.1564C64.7656 10.2304 64.0465 9.71291 62.8384 9.71291C62.0042 9.71291 61.0837 10.1729 60.2495 10.8628C60.2783 11.1215 60.307 11.6102 60.307 11.7827V19.7745H57.9484V12.099C57.9484 10.1728 57.373 9.71291 56.1649 9.71291C55.4171 9.71291 54.3527 10.2304 53.4322 10.8916V19.7745H51.1023V7.90186H53.4322V8.90801C54.1514 8.333 55.302 7.67182 56.5388 7.67182C58.1785 7.64312 59.1278 8.21806 59.6743 9.1092C60.6522 8.18928 62.0905 7.70059 63.1836 7.67182C67.038 7.61435 67.1243 10.7191 67.1243 12.0127V19.7745H64.7656V19.7458Z" fill="white"/>
<path d="M83.3474 19.7459V12.1566C83.3474 10.2305 82.628 9.71306 81.4198 9.71306C80.5859 9.71306 79.6657 10.1731 78.8313 10.863C78.86 11.1217 78.8888 11.6104 78.8888 11.7829V19.7747H76.5301V12.0991C76.5301 10.1731 75.9548 9.71306 74.7466 9.71306C73.9988 9.71306 72.9345 10.2305 72.014 10.8917V19.7747H69.6841V7.90201H72.014V8.90817C72.7331 8.33323 73.8838 7.67205 75.1206 7.67205C76.7602 7.64328 77.7095 8.21822 78.256 9.10943C79.234 8.18952 80.6722 7.70075 81.765 7.67205C85.6201 7.6145 85.7064 10.7192 85.7064 12.0129V19.7747H83.3474V19.7459Z" fill="white"/>
<path d="M89.9066 12.4435H95.1126C95.0263 10.0286 93.8182 9.53996 92.6971 9.53996C90.9421 9.51126 90.1082 10.7186 89.9066 12.4435ZM96.6377 17.5892L96.9829 19.5154C95.9183 19.8603 94.4803 20.0328 93.3294 20.0328C88.6411 20.0328 87.4902 16.8993 87.4902 13.7371C87.4902 10.6037 88.871 7.67136 92.8116 7.67136C95.2279 7.67136 97.27 9.16628 97.2991 12.9897L97.27 14.2258H89.7912C89.8203 16.5544 91.0857 17.963 93.4157 17.963C94.365 17.9917 95.3433 17.8767 96.6377 17.5892Z" fill="white"/>
<path d="M105.929 10.0578C105.325 9.91409 104.779 9.88531 104.405 9.88531C102.937 9.85654 102.19 10.5753 101.643 11.1502V19.7744H99.313V7.90177H101.643V8.9654C102.247 8.333 103.196 7.78676 104.376 7.75798C104.865 7.72929 105.67 7.81553 106.332 8.07426C106.332 8.04549 105.929 10.0578 105.929 10.0578Z" fill="white"/>
<path d="M112.775 17.9059C113.724 17.9059 114.271 17.8484 115.479 17.5897L115.767 19.602C114.846 19.8607 113.811 19.9757 112.775 19.9757C108.144 19.9757 106.822 17.0722 106.822 13.7088C106.85 10.4028 108.864 7.64305 112.747 7.64305C113.783 7.64305 114.674 7.75807 115.738 8.0455L115.336 10.0578C114.185 9.79908 113.524 9.77038 112.804 9.77038C110.36 9.79908 109.152 11.639 109.093 13.7375C109.123 15.8361 109.899 17.9059 112.775 17.9059Z" fill="white"/>
<path d="M119.131 12.4435H124.337C124.251 10.0286 123.043 9.53996 121.921 9.53996C120.167 9.51126 119.333 10.7186 119.131 12.4435ZM125.863 17.5892L126.208 19.5154C125.143 19.8603 123.705 20.0328 122.554 20.0328C117.866 20.0328 116.715 16.8993 116.715 13.7371C116.715 10.6037 118.096 7.67136 122.036 7.67136C124.453 7.67136 126.495 9.16628 126.524 12.9897L126.495 14.2258H119.016C119.045 16.5544 120.311 17.963 122.641 17.963C123.59 17.9917 124.568 17.8767 125.863 17.5892Z" fill="white"/>
<path d="M134.463 9.79915H131.241V15.5487C131.241 16.7561 131.385 17.5898 132.622 17.7622C133.312 17.8197 134.003 17.7623 134.664 17.676L134.808 19.6883C134.118 19.8033 133.111 19.832 132.708 19.832C129.947 19.717 128.911 18.3084 128.911 16.0948V9.77046H127.214V8.13182L128.911 7.93063V5.22836H131.241V7.87308H134.463V9.79915Z" fill="white"/>
<path d="M141.281 17.9342C143.697 17.9055 144.503 15.9507 144.503 13.8233C144.474 11.8685 143.668 9.68375 141.281 9.68375C138.951 9.71245 138.06 11.8685 138.06 13.8233C138.031 16.0369 139.009 17.9342 141.281 17.9342ZM141.281 7.67136C145.078 7.70013 146.775 10.5174 146.775 13.8233C146.775 17.0431 145.308 19.9465 141.253 19.9753C137.283 19.9465 135.758 17.0718 135.758 13.8233C135.787 10.5174 137.484 7.70013 141.281 7.67136Z" fill="white"/>
<path d="M153.908 17.9342C156.325 17.9055 157.13 15.9507 157.13 13.8233C157.101 11.8685 156.296 9.68375 153.908 9.68375C151.578 9.71245 150.686 11.8685 150.686 13.8233C150.658 16.0369 151.636 17.9342 153.908 17.9342ZM153.908 7.67136C157.705 7.70013 159.402 10.5174 159.402 13.8233C159.402 17.0431 157.935 19.9465 153.879 19.9753C149.91 19.9465 148.385 17.0718 148.385 13.8233C148.414 10.5174 150.111 7.70013 153.908 7.67136Z" fill="white"/>
<path d="M163.544 3.61833H161.272V19.7456H163.544V3.61833Z" fill="white"/>
<path d="M165.904 17.446C167.227 17.7909 168.493 17.9634 169.269 17.9634C170.19 17.9634 171.139 17.7622 171.225 16.641C171.283 15.4623 170.075 15.0887 168.665 14.5137C167.084 13.8525 165.358 12.9613 165.415 10.7765C165.444 9.68414 166.105 7.5281 169.614 7.64304C170.679 7.67182 171.944 7.84431 172.98 8.10304L172.578 10.0579C171.34 9.77038 170.391 9.62666 169.5 9.62666C168.493 9.62666 167.716 9.94287 167.659 10.8916C167.63 11.6964 168.263 12.1277 169.844 12.7602C171.427 13.4213 173.67 14.255 173.555 16.756C173.498 18.3371 172.462 20.062 169.269 20.0332C168.263 20.0044 166.623 19.8895 165.415 19.4583L165.904 17.446Z" fill="white"/>
<path d="M1.28179 19.6309C1.1092 19.7172 0.994141 19.8897 0.994141 20.0909C0.994141 20.2921 1.1092 20.4646 1.28179 20.5508L11.3495 25.2654C11.4933 25.3229 11.6371 25.3517 11.781 25.3517V14.8589C11.6371 14.8589 11.4933 14.8876 11.3495 14.9451L1.28179 19.6309Z" fill="#F27A23"/>
<path d="M11.7522 14.8589V25.3517C11.896 25.3517 12.0686 25.3229 12.2125 25.2654L22.2514 20.5796C22.424 20.4934 22.5391 20.3209 22.5391 20.1196C22.5391 19.9184 22.424 19.7459 22.2514 19.6597L12.2125 14.9738C12.0399 14.8876 11.896 14.8589 11.7522 14.8589Z" fill="#F6A82F"/>
<path d="M0.965088 5.88939C0.965088 6.09057 1.08015 6.26306 1.25274 6.34931L11.3205 11.0639C11.4643 11.1214 11.6081 11.1501 11.752 11.1501C11.867 11.1501 12.0109 11.1214 12.1259 11.0927C12.2122 11.0351 12.2122 11.0639 12.4136 10.949C13.449 10.4602 12.7587 10.7765 22.2512 6.34931C22.4238 6.26306 22.5388 6.09057 22.5388 5.88939C22.5388 5.68812 22.4238 5.51564 22.2512 5.42939L12.2122 0.743582C11.9246 0.628563 11.6081 0.628563 11.3492 0.743582L1.31027 5.4007C1.08015 5.48694 0.965088 5.68812 0.965088 5.88939Z" fill="#22AD93"/>
<path d="M11.7522 11.754V14.8874C11.6084 14.8874 11.4645 14.9162 11.3207 14.9737L1.28179 19.6308C1.1092 19.717 0.994141 19.8895 0.994141 20.0907V6.23444V5.88947C0.994141 6.09073 1.1092 6.26321 1.28179 6.34946L11.3495 11.064C11.4933 11.1215 11.6371 11.1503 11.781 11.1503C11.896 11.1503 12.0399 11.1215 12.1549 11.0927H12.1262C11.8097 11.2365 11.7522 11.3802 11.7522 11.754Z" fill="#D0D1D2"/>
</svg>
