<svg width="191" height="90" viewBox="0 0 191 90" fill="none" xmlns="http://www.w3.org/2000/svg">
<path fill-rule="evenodd" clip-rule="evenodd" d="M27.8895 21.963C27.855 22.0295 27.8247 22.098 27.7987 22.1682C25.3435 26.8269 20.5251 30 15.0245 30C7.04602 30 0.5 23.2868 0.5 15C0.5 6.75776 7.04602 0 15.0245 0C20.5478 0 25.3889 3.24151 27.8214 7.96858C27.8895 8.0598 27.9122 8.10541 27.9803 8.24223C28.003 8.26504 23.3435 11.6445 23.2981 11.576C23.2754 11.4848 23.2527 11.4164 23.2073 11.3708C21.8667 8.01528 18.684 5.77717 15.0245 5.84558C10.1369 5.89119 6.11412 9.95584 6.11412 15.0011C6.11412 20.0919 10.1379 24.2022 15.0245 24.2022C18.5705 24.2022 21.6624 22.0097 23.0711 18.905C23.1392 18.791 23.1619 18.6998 23.2073 18.6086L27.8895 21.963ZM33.9134 0.272569H39.5048V10.7529H54.1882V0.272569H59.825V29.4288H54.1882V16.6202H39.5048V29.4288H33.9134V0.272569ZM138.745 29.4288V0.272569H159.042V6.16267H144.403V11.9854H157.928V17.8071H144.403V23.6288H161.109V29.4288H138.745ZM169.042 29.4288V0.272569H174.725V23.6288H190.5V29.4288H169.042ZM108.24 29.4288H102.557V0.272569H110.444L122.879 17.8071V0.272569H128.514V29.4288H124.015L108.24 7.4419V29.4288ZM81.169 6.16267L76.2144 17.8071H86.3518L81.169 6.16267ZM73.6673 23.6288L71.077 29.4277H64.3483L77.2133 0.271483H85.0772L98.0341 29.4277H91.3054L88.6924 23.6288H73.6673Z" fill="white"/>
<path d="M3.94682 89.9949H1.27939C1.05683 89.9949 0.5 89.9949 0.5 89.6557C0.5 89.4309 0.611699 89.3164 0.945127 89.2028C3.39332 88.4098 3.94598 87.0528 3.94598 85.1319V64.8681C3.94598 63.0566 3.38916 61.6988 0.945127 60.7972C0.611699 60.7972 0.5 60.5708 0.5 60.458C0.5 60.0059 1.05683 60.1187 1.27939 60.1187H23.3032C28.3088 60.1187 32.4258 64.1896 32.4258 69.2859C32.4258 74.3822 28.3088 78.448 23.3032 78.448H12.1792V85.3524C12.2909 87.1631 12.846 88.4056 15.18 89.2002C15.5134 89.3139 15.6243 89.4275 15.6243 89.6531C15.6243 89.9924 15.0683 89.9924 14.8458 89.9924H3.94682V89.9949ZM168.144 79.0162H173.372L168.144 69.961L167.586 69.0552L162.918 79.0162H168.144ZM168.144 60.0025H171.704L186.609 86.7178C187.055 87.3963 187.609 88.0748 188.276 88.414C188.832 88.8678 189.499 88.9823 190.055 89.207C190.278 89.3215 190.5 89.4352 190.5 89.6608C190.5 90 189.944 90 189.721 90H176.483C176.262 90 175.592 90 175.592 89.6608C175.592 89.4352 175.816 89.3215 176.04 89.207C176.707 88.9823 177.15 88.6422 177.374 87.9637C177.597 87.1699 177.374 86.7195 176.818 85.6984C176.063 84.065 175.285 82.4428 174.484 80.832H162.024L161.914 81.0576C161.802 81.5113 160.914 83.093 160.247 84.7935C159.359 86.6042 159.024 87.0562 159.247 87.962C159.359 88.6405 159.914 88.9797 160.581 89.2062C160.805 89.3207 160.914 89.4343 160.914 89.6591C160.914 89.9983 160.356 89.9983 160.135 89.9983H154.015C153.794 89.9983 153.236 89.9983 153.236 89.6591C153.236 89.4343 153.349 89.3198 153.681 89.2062C154.239 88.9806 154.904 88.8669 155.461 88.4132C156.128 88.074 156.685 87.3955 157.128 86.717L157.907 85.0208L166.362 67.0189L165.137 64.8681C164.027 63.0566 162.913 61.9252 161.689 61.2459C161.133 60.9066 160.576 60.9066 160.022 60.6802C159.689 60.5665 159.576 60.4529 159.689 60.2264C159.689 60 159.91 60.1136 160.022 60H168.144L168.144 60.0025ZM134.884 89.8804H135.329C155.799 89.8804 155.578 60.1119 135.329 60.1119H118.532C118.199 60.1119 117.643 59.9983 117.643 60.4512C117.643 60.564 117.865 60.7904 118.087 60.7904C120.534 61.5826 121.088 62.9412 121.201 64.64V85.3583C121.091 87.1682 120.534 88.4115 118.087 89.2053C117.865 89.3198 117.643 89.4335 117.643 89.6591C117.643 89.9983 118.199 89.9983 118.532 89.9983H129.323V89.8838H134.884V89.8804ZM134.884 62.2644C136.387 62.2705 137.827 62.8805 138.89 63.9616C139.953 65.0427 140.553 66.5074 140.56 68.0366V81.8455C140.554 83.3748 139.953 84.8396 138.89 85.9208C137.827 87.0019 136.387 87.6119 134.884 87.6177H129.318V62.2644H134.884ZM92.4979 79.0162H97.726L92.4979 69.961L91.9411 69.0552L87.2731 79.0162H92.4979ZM92.4979 60.0025H96.1656L111.072 86.7178C111.406 87.3963 111.963 88.0748 112.63 88.414C113.185 88.8678 113.855 88.9823 114.522 89.207C114.743 89.3215 114.965 89.4352 114.965 89.6608C114.965 90 114.298 90 114.077 90H100.844C100.62 90 100.064 90 100.064 89.6608C100.064 89.4352 100.174 89.3215 100.508 89.207C101.065 88.9823 101.62 88.6422 101.732 87.9637C101.954 87.1699 101.732 86.7195 101.287 85.6984C100.508 84.0022 99.6199 82.4162 98.8414 80.832H86.3786L86.2678 81.0576C86.1569 81.5113 85.3775 83.093 84.6006 84.7935C83.8221 86.6042 83.3778 87.0562 83.6004 87.962C83.8229 88.6405 84.2672 88.9797 84.9341 89.2062C85.1558 89.3207 85.3784 89.4343 85.3784 89.6591C85.3784 89.9983 84.8224 89.9983 84.4898 89.9983H78.4806C78.258 89.9983 77.5903 89.9983 77.5903 89.6591C77.5903 89.4343 77.8129 89.3198 78.0354 89.2062C78.7023 88.9806 79.2591 88.8669 79.9276 88.4132C80.4828 88.074 81.1513 87.3955 81.4839 86.717L82.2625 85.0208L90.8291 67.0189L89.6071 64.8681C88.4951 63.0566 87.2731 61.9252 86.1586 61.2459C85.4917 60.9066 85.0458 60.9066 84.3781 60.6802C84.1547 60.5665 83.9321 60.4529 84.0446 60.2264C84.1572 60 84.3781 60.1136 84.4906 60H92.4996L92.4979 60.0025ZM55.7866 79.8092C58.3457 80.7133 61.4607 80.9389 63.9072 80.1484L73.5867 88.6379L74.3652 89.3164C74.4077 89.3608 74.4399 89.4143 74.4594 89.473C74.4789 89.5317 74.4852 89.5942 74.4778 89.6557C74.4778 89.9949 73.9209 89.9949 73.6975 89.9949H63.4638L55.7883 83.5434L49.5573 78.4488V85.4677C49.6698 87.1639 50.3367 88.4098 52.6724 89.1994C52.8949 89.3139 53.0058 89.4267 53.0058 89.6523C53.0058 89.9915 52.449 89.9915 52.2256 89.9915H38.7659C38.4325 89.9915 37.8757 89.9915 37.8757 89.6523C37.8757 89.4267 38.0991 89.313 38.3199 89.1994C40.9874 88.2953 41.3208 86.9366 41.435 84.7892V65.2074C41.3233 63.1719 40.9899 61.6988 38.3199 60.7972C38.0974 60.7972 37.8757 60.5708 37.8757 60.458C37.8757 60.0059 38.4325 60.1187 38.7659 60.1187H60.4588C61.6371 60.1136 62.8049 60.3447 63.8955 60.7988C64.9861 61.2529 65.9781 61.9211 66.8149 62.7652C67.6516 63.6094 68.3167 64.613 68.7722 65.7187C69.2278 66.8245 69.4647 68.0107 69.4697 69.2096V69.2859C69.4781 71.706 68.5418 74.0304 66.8665 75.7484C65.1912 77.4664 62.914 78.4374 60.5354 78.448H53.4501C53.7835 79.1265 54.5621 79.3537 55.2289 79.6938C55.4523 79.6938 55.5624 79.8092 55.7858 79.8092H55.7866ZM55.7866 76.3006H56.681C59.5727 76.3006 62.0209 73.1304 62.0209 69.0552C62.0159 65.0937 59.5685 61.9252 56.681 61.9252H49.5565V76.3006H55.7866ZM18.5193 61.926H12.1792V76.3014H19.5221C22.5229 76.3014 24.8569 73.1312 24.8569 69.0561C24.8569 65.0954 22.5229 61.926 19.5221 61.926H18.5193Z" fill="white"/>
</svg>
