<svg width="160" height="100" viewBox="0 0 160 100" fill="none" xmlns="http://www.w3.org/2000/svg">
<path d="M18.08 28.4426C18.4 28.4426 18.56 28.6026 18.88 28.7626C16.96 29.5626 15.04 31.6426 14.08 36.1226L10.56 37.0826C11.68 33.8826 13.92 28.4426 18.08 28.4426ZM19.84 30.0426C20.16 31.0026 20.48 32.1226 20.48 33.8826C20.48 34.0426 20.48 34.0426 20.48 34.2026L15.84 35.4826C16.8 32.1226 18.4 30.6826 19.84 30.0426ZM24 32.9226L21.92 33.5626C21.92 33.4026 21.92 33.2426 21.92 33.0826C21.92 31.6426 21.76 30.5226 21.44 29.5626C22.56 29.8826 23.52 31.3226 24 32.9226ZM34.4 35.4826C34.4 35.3226 34.24 35.1626 34.08 35.1626C33.76 35.1626 30.4 34.8426 30.4 34.8426C30.4 34.8426 28 32.4426 27.68 32.2826C27.36 31.9626 26.88 32.1226 26.72 32.1226C26.72 32.1226 26.24 32.2826 25.44 32.6026C24.64 30.3626 23.2 28.2826 20.8 28.2826H20.64C20 27.3226 19.04 27.0026 18.24 27.0026C12.48 26.8426 9.76 34.0426 8.8 37.7226C7.52 38.0426 6.24 38.5226 4.8 39.0026C3.52 39.3226 3.52 39.4826 3.36 40.6026C3.2 41.4026 0 66.6826 0 66.6826L25.44 71.4826L39.2 68.4426C39.2 68.4426 34.4 35.8026 34.4 35.4826Z" fill="#8DB849"/>
<path d="M33.9195 35.1623C33.7595 35.1623 30.3995 34.8423 30.3995 34.8423C30.3995 34.8423 27.9995 32.4423 27.6795 32.2823C27.5195 32.1223 27.5195 32.1223 27.3595 32.1223L25.4395 71.4823L39.1995 68.4423C39.1995 68.4423 34.3995 35.8023 34.3995 35.4823C34.3995 35.3223 34.0795 35.1623 33.9195 35.1623Z" fill="#5A863E"/>
<path d="M20.7999 42.8423L19.0399 47.9623C19.0399 47.9623 17.5999 47.1623 15.6799 47.1623C12.9599 47.1623 12.7999 48.7623 12.7999 49.2423C12.7999 51.4823 18.8799 52.4423 18.8799 57.8823C18.8799 62.2023 16.1599 64.9223 12.4799 64.9223C8.15992 64.9223 5.91992 62.2023 5.91992 62.2023L7.03992 58.3623C7.03992 58.3623 9.27992 60.2823 11.1999 60.2823C12.4799 60.2823 12.9599 59.3223 12.9599 58.5223C12.9599 55.4823 7.99992 55.3223 7.99992 50.3623C7.99992 46.2023 11.0399 42.2023 16.9599 42.2023C19.6799 42.0423 20.7999 42.8423 20.7999 42.8423Z" fill="#FFFFFE"/>
<path d="M55.3596 52.2826C53.9196 51.4826 53.2796 50.8426 53.2796 50.0426C53.2796 48.9226 54.2396 48.2826 55.8396 48.2826C57.5996 48.2826 59.1996 49.0826 59.1996 49.0826L60.4796 45.2426C60.4796 45.2426 59.3596 44.2826 55.9996 44.2826C51.1996 44.2826 47.9996 47.0026 47.9996 50.8426C47.9996 53.0826 49.5996 54.6826 51.5196 55.8026C53.1196 56.7626 53.7596 57.4026 53.7596 58.3626C53.7596 59.3225 52.9596 60.2825 51.3596 60.2825C49.1196 60.2825 46.8796 59.1625 46.8796 59.1625L45.5996 63.0025C45.5996 63.0025 47.5196 64.2825 50.8796 64.2825C55.6796 64.2825 59.1996 61.8825 59.1996 57.5626C59.1996 55.1626 57.4396 53.4026 55.3596 52.2826ZM74.7196 44.1226C72.3196 44.1226 70.3996 45.2426 68.9596 47.0026L71.0396 36.1226H65.5996L60.3196 63.8025H65.7596L67.5196 54.3626C68.1596 50.8426 70.0796 48.6026 71.8396 48.6026C73.1196 48.6026 73.5996 49.4026 73.5996 50.6826C73.5996 51.4826 73.5996 52.2826 73.4396 53.0826L71.3596 63.9625H76.7996L78.8796 52.7626C79.0396 51.6426 79.1996 50.2026 79.1996 49.2426C79.1996 46.0426 77.5996 44.1226 74.7196 44.1226ZM88.6396 59.9625C86.7196 59.9625 86.0796 58.3625 86.0796 56.4426C86.0796 53.4026 87.6796 48.2826 90.5596 48.2826C92.4796 48.2826 93.1196 49.8826 93.1196 51.4826C93.1196 55.0026 91.5196 59.9625 88.6396 59.9625ZM91.3596 44.1226C84.7996 44.1226 80.4796 50.0426 80.4796 56.6026C80.4796 60.7625 83.0396 64.1225 87.9996 64.1225C94.3996 64.1225 98.7196 58.3625 98.7196 51.6426C98.7196 47.8026 96.4796 44.1226 91.3596 44.1226ZM107.36 60.1225C105.92 60.1225 105.12 59.3225 105.12 59.3225L106.08 54.2026C106.72 50.8426 108.48 48.6026 110.4 48.6026C112 48.6026 112.64 50.2026 112.64 51.6426C112.48 55.1626 110.4 60.1225 107.36 60.1225ZM112.64 44.1226C108.96 44.1226 106.88 47.3226 106.88 47.3226L107.2 44.4426H102.4C102.24 46.3626 101.76 49.4026 101.28 51.6426L97.4396 71.4825H102.88L104.32 63.4825H104.48C104.48 63.4825 105.6 64.1225 107.68 64.1225C114.08 64.1225 118.24 57.5626 118.24 51.0026C118.24 47.4826 116.64 44.1226 112.64 44.1226ZM125.92 36.4426C124.16 36.4426 122.88 37.8826 122.88 39.6426C122.88 41.2426 123.84 42.3626 125.44 42.3626C127.2 42.3626 128.64 41.2426 128.64 39.1626C128.64 37.5626 127.52 36.4426 125.92 36.4426ZM118.4 63.8025H123.84L127.52 44.6026H122.08L118.4 63.8025ZM141.28 44.6026H137.44L137.6 43.6426C137.92 41.7226 139.04 40.1226 140.8 40.1226C141.76 40.1226 142.56 40.4426 142.56 40.4426L143.68 36.1226C143.68 36.1226 142.72 35.6426 140.8 35.6426C138.88 35.6426 136.96 36.1226 135.52 37.4026C133.6 39.0026 132.8 41.2426 132.32 43.4826L132.16 44.4426H129.6L128.8 48.6026H131.36L128.48 63.8025H133.92L136.8 48.6026H140.48L141.28 44.6026ZM154.24 44.6026C154.24 44.6026 150.88 53.0826 149.28 57.7225C149.12 56.2826 148 44.6026 148 44.6026H142.24L145.44 62.2025C145.44 62.5225 145.44 62.8425 145.28 63.1625C144.64 64.4425 143.52 65.5625 142.4 66.3625C141.44 67.1625 140.16 67.6425 139.36 67.9625L140.8 72.6025C141.92 72.4425 144.16 71.4825 146.08 69.7225C148.48 67.4825 150.88 63.8025 153.12 59.0025L159.68 44.7626L154.24 44.6026Z" fill="#1A1919"/>
</svg>
