<svg width="74" height="90" viewBox="0 0 74 90" fill="none" xmlns="http://www.w3.org/2000/svg">
<path d="M54.3941 1.1909C60.6192 1.1909 66.8452 1.18999 73.0702 1.19181C73.0739 2.58993 73.063 3.98896 73.0766 5.38799C71.4949 5.45681 69.8778 5.63339 68.4214 6.29351C66.9441 6.95545 65.7056 8.15979 65.0682 9.65119C57.4985 27.3976 49.9341 45.1458 42.3725 62.8959C42.2417 63.1874 42.1364 63.489 41.9839 63.7706C39.2763 63.7389 36.5678 63.7661 33.8602 63.7561C32.6653 61.3882 31.4895 59.0103 30.2846 56.6478C28.9036 60.3387 27.5144 64.0259 26.1333 67.7159C35.0651 67.7169 43.9969 67.7159 52.9286 67.7169C54.5639 67.7386 56.2482 67.6707 57.7781 67.0332C60.3204 66.0145 62.3443 64.0459 63.9914 61.9116C65.9799 59.3254 67.4889 56.4141 68.8336 53.4558C70.3418 53.4431 71.849 53.4603 73.3562 53.4576C70.4979 59.5463 67.6251 65.6296 64.7414 71.7066C44.1594 71.7075 23.5783 71.7066 2.99632 71.7066C3.49752 70.4017 3.97421 69.086 4.51173 67.7947C4.54442 67.6616 4.71058 67.6951 4.81136 67.6824C7.38093 67.6634 9.96776 67.5638 12.4892 67.0305C13.8012 66.7235 15.1587 66.3142 16.1683 65.3797C16.7022 64.8717 16.8684 64.1301 17.0454 63.4455C19.4761 56.9583 21.9104 50.4721 24.3428 43.9858C19.2019 33.0616 14.0437 22.1438 8.89998 11.2205C8.48594 10.2651 7.93934 9.31886 7.07948 8.69677C5.29985 7.36746 2.98724 7.19904 0.844418 7.11392C0.842602 5.54827 0.844418 3.98353 0.84351 2.41788C8.07009 2.41517 15.2958 2.41607 22.5223 2.41698C22.5232 3.98262 22.5241 5.54827 22.5214 7.11392C21.5799 7.17368 20.5802 7.15829 19.7276 7.62282C19.3045 7.82203 19.0557 8.32369 19.1646 8.78008C19.2981 9.52713 19.8901 10.0605 20.1897 10.7351C23.2414 17.2902 26.2932 23.8461 29.3539 30.3985C30.8875 26.1217 32.4211 21.8458 33.961 17.5718C34.1871 16.9778 34.267 16.2914 34.0091 15.6937C33.8066 15.222 33.3472 14.9304 32.8941 14.7339C32.0134 14.3717 31.0455 14.3753 30.1121 14.3083C30.5888 12.9871 31.0682 11.666 31.5621 10.3521C31.6765 10.2787 31.8354 10.3349 31.9671 10.3167C39.299 10.3213 46.6318 10.3167 53.9646 10.3195C53.458 11.647 52.954 12.9745 52.4528 14.3038C50.6868 14.3853 48.8663 14.4296 47.2102 15.1178C46.4511 15.4348 45.7329 15.9192 45.2844 16.6201C44.9729 17.1335 44.7795 17.7067 44.5707 18.2663C41.5072 26.5989 38.4155 34.9207 35.3865 43.266C37.0645 47.0483 38.8132 50.7981 40.5248 54.5651C46.7399 39.9282 52.9531 25.2895 59.1755 10.6554C59.595 9.77524 60.2778 8.97205 60.3313 7.95967C60.3831 7.16734 59.7938 6.48367 59.111 6.15859C57.6392 5.48126 55.9849 5.44776 54.3941 5.39071C54.3923 3.99077 54.3923 2.59084 54.3941 1.1909Z" fill="white"/>
<path d="M65.6957 80.0021C67.6578 82.0286 69.6045 84.0688 71.5476 86.1125C71.5448 84.2128 71.5557 82.3121 71.5539 80.4123C71.8899 80.4132 72.2258 80.4096 72.5627 80.405C72.5636 83.1171 72.5636 85.83 72.5627 88.542C70.5987 86.5255 68.6638 84.4817 66.7099 82.4551C66.7126 84.3667 66.7053 86.2792 66.7044 88.1916C66.3676 88.1943 66.0316 88.1934 65.6957 88.1934C65.6948 85.4624 65.6938 82.7322 65.6957 80.0021Z" fill="white"/>
<path d="M8.57583 80.2809C10.7377 79.9495 13.0249 81.6374 13.2174 83.836C13.399 85.0938 12.9096 86.405 11.9862 87.2716C10.468 88.753 7.73777 88.7258 6.26412 87.1919C5.46783 86.4222 5.01384 85.3129 5.06196 84.2055C5.08376 82.2785 6.68088 80.5571 8.57583 80.2809ZM8.57674 81.277C7.31828 81.4816 6.29409 82.5837 6.11794 83.8324C5.87823 85.2513 6.75625 86.778 8.13001 87.2417C9.33217 87.6944 10.7949 87.2679 11.5667 86.2447C12.5646 84.996 12.3957 82.9812 11.1681 81.9444C10.478 81.3187 9.48017 81.1122 8.57674 81.277Z" fill="white"/>
<path d="M24.1876 80.7002C25.2953 79.8707 27.1049 80.2139 27.7441 81.4672C27.4771 81.6175 27.2102 81.7687 26.9433 81.919C26.4629 81.1702 25.2926 80.9872 24.647 81.6229C24.3737 81.8221 24.4037 82.1871 24.4327 82.4868C24.5108 82.878 24.9285 83.0437 25.2363 83.2275C26.0298 83.644 26.9832 83.884 27.5407 84.6392C28.1627 85.4823 28.0601 86.7373 27.3818 87.5179C26.6727 88.3736 25.3761 88.5819 24.3846 88.1336C23.6237 87.7587 23.1534 86.9664 23.0008 86.1542C23.3413 86.0736 23.6836 85.9993 24.025 85.9232C24.0595 86.664 24.6361 87.4128 25.4206 87.4264C26.4793 87.5414 27.321 86.1686 26.7045 85.293C26.0462 84.3993 24.7768 84.3866 24.0196 83.6142C23.1279 82.887 23.2178 81.3196 24.1876 80.7002Z" fill="white"/>
<path d="M60.3313 80.2755C61.7478 80.0989 63.2114 80.7509 64.0813 81.8683C65.3352 83.4331 65.1345 85.9296 63.6464 87.2752C62.7965 88.1128 61.5471 88.4578 60.374 88.3337C59.2145 88.2577 58.1295 87.6093 57.4603 86.6712C56.7394 85.6706 56.5523 84.3331 56.8937 83.1569C57.3396 81.6329 58.7615 80.4747 60.3313 80.2755ZM60.1579 81.2906C58.5962 81.5559 57.4794 83.2148 57.7536 84.7578C57.927 86.242 59.3389 87.4499 60.8325 87.4219C61.8513 87.4391 62.8228 86.8632 63.3722 86.021C64.2066 84.8149 63.9869 83.0328 62.9118 82.0404C62.2081 81.3295 61.1213 81.0896 60.1579 81.2906Z" fill="white"/>
<path d="M1.65524 80.4069C1.97757 80.4051 2.2999 80.4051 2.62223 80.4069C2.62314 82.706 2.62132 85.006 2.62314 87.3051C3.42398 87.3069 4.2239 87.3051 5.02474 87.306C5.02655 87.6012 5.02655 87.8964 5.02564 88.1925C3.90157 88.1935 2.7784 88.1944 1.65524 88.1925C1.65615 85.5973 1.65615 83.0021 1.65524 80.4069Z" fill="white"/>
<path d="M13.9992 80.4132C14.3406 80.4105 14.682 80.4114 15.0243 80.4123C15.027 81.9444 15.0197 83.4775 15.0279 85.0096C15.0433 85.6833 15.1269 86.4241 15.6045 86.9429C16.3644 87.6864 17.8572 87.5804 18.3874 86.6169C18.6553 86.1642 18.7334 85.6281 18.7261 85.1101C18.7197 83.5445 18.7197 81.9789 18.7206 80.4123C19.062 80.4105 19.4034 80.4114 19.7448 80.4123C19.7448 82.0105 19.7485 83.6088 19.7439 85.207C19.7457 85.9324 19.6195 86.6993 19.1547 87.2825C18.155 88.6634 15.8378 88.7422 14.7428 87.4373C14.2225 86.894 14.0082 86.128 14.001 85.3909C13.9964 83.7319 14.0001 82.0721 13.9992 80.4132Z" fill="white"/>
<path d="M21.006 80.4078C21.342 80.4041 21.6788 80.405 22.0157 80.4069C22.0157 83.0021 22.0166 85.5973 22.0148 88.1934C21.6788 88.1934 21.342 88.1943 21.0051 88.1916C21.0069 85.5973 21.0069 83.0021 21.006 80.4078Z" fill="white"/>
<path d="M31.1163 80.4141C31.4859 80.4042 31.8572 80.4042 32.2277 80.406C33.0031 82.2985 33.7667 84.1956 34.5285 86.0935C35.2885 84.2019 36.0702 82.3193 36.813 80.4214C37.1934 80.3897 37.5747 80.4114 37.9561 80.406C36.822 83.1597 35.6834 85.9115 34.5394 88.6607C33.3754 85.9215 32.2531 83.1642 31.1163 80.4141Z" fill="white"/>
<path d="M38.4183 80.405C38.7542 80.4096 39.0902 80.4132 39.427 80.4123C39.4388 81.9209 39.4252 83.4304 39.4379 84.939C39.4615 85.6552 39.5169 86.4675 40.0653 86.9981C40.6982 87.5387 41.706 87.5722 42.3816 87.0914C42.7747 86.8125 42.9908 86.3489 43.0762 85.8871C43.2105 85.092 43.1624 84.2834 43.1715 83.4811C43.177 82.4588 43.1779 81.4364 43.176 80.4141C43.4993 80.4105 43.8234 80.4114 44.1476 80.4123C44.1621 81.8303 44.1503 83.2475 44.1539 84.6655C44.1766 85.5448 44.1485 86.4992 43.6119 87.2417C42.6721 88.5937 40.5093 88.7395 39.3199 87.6411C38.7251 87.0923 38.4264 86.2828 38.4219 85.4841C38.4128 83.7908 38.4201 82.0984 38.4183 80.405Z" fill="white"/>
<path d="M45.4151 80.4122C45.7656 80.4131 46.1161 80.4095 46.4675 80.4059C46.4675 83.0011 46.4665 85.5963 46.4675 88.1925C46.1143 88.1934 45.762 88.1934 45.4097 88.1925C45.406 85.599 45.4178 83.0056 45.4151 80.4122Z" fill="white"/>
<path d="M47.0976 80.4123C50.2455 80.415 53.3926 80.4069 56.5405 80.4078C56.5396 80.7184 56.5396 81.029 56.5405 81.3405C55.9367 81.3432 55.3338 81.3405 54.7309 81.3414C54.7282 83.6251 54.73 85.9088 54.73 88.1926C54.3786 88.1935 54.0282 88.1935 53.6768 88.1926C53.675 85.9088 53.6831 83.6251 53.6731 81.3414C52.4374 81.3432 51.2016 81.3405 49.9659 81.3423C49.9641 83.626 49.9659 85.9088 49.965 88.1926C49.6426 88.1935 49.3203 88.1935 48.9989 88.1926C48.998 85.9088 48.9998 83.626 48.998 81.3423C48.3642 81.3405 47.7314 81.3432 47.0976 81.3405C47.0967 81.0308 47.0967 80.7211 47.0976 80.4123Z" fill="white"/>
</svg>
