<svg width="276" height="64" viewBox="0 0 276 64" fill="none" xmlns="http://www.w3.org/2000/svg">
<g clip-path="url(#clip0_763_45914)">
<path d="M79.031 44.2464C75.006 44.2464 72.3009 40.8766 72.3009 31.9878C72.3009 23.099 75.006 19.7285 79.031 19.7285C83.056 19.7285 85.7611 23.0983 85.7611 31.9878C85.7611 40.8774 83.056 44.2464 79.031 44.2464ZM79.031 21.9094C76.7262 21.9094 74.8739 23.8917 74.8739 31.9902C74.8739 40.0887 76.7223 42.071 79.031 42.071C81.3397 42.071 83.1881 40.0894 83.1881 31.9902C83.1881 23.8909 81.3404 21.9117 79.031 21.9117V21.9094Z" fill="white"/>
<path d="M92.9191 20.0596L99.0546 37.6386H99.1199V20.0596H101.694V43.9149H98.9224L91.5332 23.1623H91.4671V43.9203H88.8934V20.065L92.9191 20.0596Z" fill="white"/>
<path d="M116.321 20.0596V22.2404H108.007V30.3689H114.144V32.5498H108.007V41.7371H116.713V43.9203H105.434V20.065L116.321 20.0596Z" fill="white"/>
<path d="M122.405 23.6279H118.446V20.0596H130.455V23.6279H126.496V43.9203H122.405V23.6279Z" fill="white"/>
<path d="M136.915 43.9203H132.824V20.0649H138.565C143.15 20.0649 145.493 22.0134 145.493 27.103C145.493 30.9368 144.009 32.4897 142.623 33.1177L146.087 43.9203H141.931L139.026 34.0388C138.325 34.1104 137.62 34.1438 136.915 34.1388V43.9203ZM136.915 30.7675H138.366C140.578 30.7675 141.402 29.9418 141.402 27.1C141.402 24.2581 140.578 23.4324 138.366 23.4324H136.915V30.7675Z" fill="white"/>
<path d="M148.858 43.9203V20.0649H159.814V23.6332H152.951V29.7802H158.23V33.3477H152.951V40.3543H160.275V43.9203H148.858Z" fill="white"/>
<path d="M163.035 43.9203V20.0649H173.989V23.6332H167.127V29.7802H172.406V33.3477H167.127V40.3543H174.452V43.9203H163.035Z" fill="white"/>
<path d="M177.151 20.0596H182.759C186.586 20.0596 189.093 22.6367 189.093 26.6005C189.093 30.5644 186.586 33.1415 182.759 33.1415H179.723V43.9149H177.15L177.151 20.0596ZM179.724 30.9645H182.428C185.002 30.9645 186.52 29.5794 186.52 26.6029C186.52 23.6263 185.002 22.2404 182.428 22.2404H179.724V30.9645Z" fill="white"/>
<path d="M194.293 20.0596V41.7371H202.014V43.9203H191.719V20.065L194.293 20.0596Z" fill="white"/>
<path d="M212.321 20.0596L217.567 43.9149H214.993L213.575 36.8422H207.506L206.085 43.9203H203.512L208.757 20.065L212.321 20.0596ZM207.865 34.6644H213.209L210.571 21.8433H210.505L207.865 34.6644Z" fill="white"/>
<path d="M223.811 20.0596L229.946 37.6386H230.011V20.0596H232.586V43.9149H229.814L222.428 23.1654H222.362V43.9203H219.79V20.065L223.811 20.0596Z" fill="white"/>
<path d="M247.117 20.0596V22.2404H242.232V43.9203H239.659V22.2427H234.776V20.0619L247.117 20.0596Z" fill="white"/>
<path d="M260.348 20.0596V22.2404H252.035V30.3689H258.171V32.5498H252.035V41.7371H260.746V43.9203H249.461V20.065L260.348 20.0596Z" fill="white"/>
<path d="M263.531 20.0596H267.953C272.966 20.0596 276.002 22.8345 276.002 31.9872C276.002 41.14 272.966 43.9149 267.953 43.9149H263.531V20.0596ZM266.105 41.7371H267.487C271.252 41.7371 273.427 40.1496 273.427 31.988C273.427 23.8264 271.25 22.2404 267.487 22.2404H266.105V41.7371Z" fill="white"/>
<path d="M31.948 0C23.4778 0.009776 15.3574 3.38433 9.36813 9.38337C3.37883 15.3824 0.0097601 23.5161 0 32C0.00955718 40.484 3.37857 48.6178 9.3679 54.6168C15.3572 60.6159 23.4778 63.9904 31.948 64C40.4182 63.9906 48.5389 60.6162 54.5283 54.6171C60.5177 48.6179 63.8866 40.4841 63.896 32C63.8864 23.516 60.5174 15.3822 54.5281 9.38315C48.5387 3.38406 40.4182 0.00957274 31.948 0ZM46.8003 55.7761C46.6405 55.7176 46.4999 55.6483 46.4999 55.596C46.5127 55.4622 46.4728 55.3288 46.3886 55.2241C46.3045 55.1194 46.1829 55.0518 46.0497 55.0358C45.8015 55.0358 44.7559 54.6195 44.4839 54.6195C44.3555 54.6212 44.2321 54.6702 44.1374 54.7572C44.0391 54.671 43.6081 54.3678 43.6081 54.2185C43.6254 54.04 43.5722 53.8618 43.4599 53.7222C43.3476 53.5825 43.1851 53.4924 43.0073 53.4713C42.6785 53.4713 41.9102 53.125 41.5806 53.125C41.251 53.125 38.2724 51.6152 37.9398 51.6152C37.8619 51.6168 37.7853 51.6353 37.7152 51.6695C37.6452 51.7036 37.5834 51.7526 37.5341 51.813C37.4925 51.7081 37.4216 51.6173 37.3299 51.5516C37.2383 51.4858 37.1297 51.4478 37.0171 51.4421C36.9521 51.4279 36.8938 51.392 36.8519 51.3403C36.81 51.2885 36.787 51.224 36.7866 51.1574C36.804 50.9795 36.7513 50.8019 36.6397 50.6625C36.5282 50.523 36.3667 50.4328 36.1896 50.4109C35.973 50.4109 35.4137 49.9492 35.0825 49.9492C35.0457 49.9492 34.0408 49.1166 33.7104 49.1166C33.4304 49.0376 33.1625 48.9203 32.9145 48.768C32.7224 44.4417 32.2299 41.1604 32.0409 39.4621C31.9449 38.601 31.8811 38.1324 31.8811 38.1324C31.7544 37.3151 31.6606 36.2855 31.5907 35.1081C31.1851 28.2516 31.5869 16.324 31.832 11.1589C31.8673 10.3671 31.9011 9.72682 31.9249 9.29435C31.9249 9.21739 31.9334 9.15198 31.9372 9.09272C31.9372 9.01115 31.9434 8.93882 31.948 8.88804C31.9526 8.79338 31.9549 8.74413 31.9549 8.74413C31.5906 9.40788 31.3751 10.1432 31.3234 10.8988C30.5651 15.3751 30.0891 19.8947 29.8982 24.4309C29.8214 25.94 29.7799 27.3736 29.7553 28.7103C29.6669 31.6825 29.7503 34.6573 30.005 37.6198C30.2624 41.172 30.4959 44.6225 30.8501 48.9473C30.7456 48.985 30.6358 49.0242 30.5205 49.0766C30.0058 49.2943 29.4449 49.6091 29.3796 49.8415C29.3297 50.0138 29.1591 50.2032 29.0239 50.2032C28.7635 50.2032 28.1419 51.1551 28.0736 51.1551C27.5121 51.3674 27.0454 51.7746 26.7583 52.3024C26.5749 52.5763 26.2936 52.7691 25.9723 52.8411C25.642 52.8411 25.012 53.5883 24.6816 53.5883C24.4511 53.5883 23.5476 53.833 23.2219 53.833C23.1009 53.8398 22.9847 53.8832 22.8888 53.9574C22.7928 54.0315 22.7214 54.133 22.6841 54.2486C22.4431 54.0466 22.1362 53.9406 21.8221 53.9507C21.2413 53.9507 20.4845 54.5063 20.334 54.5063C20.2262 54.5073 20.1215 54.5426 20.0351 54.6072C19.9483 54.5423 19.843 54.507 19.7347 54.5063C19.706 54.5068 19.6775 54.5098 19.6494 54.5156C19.6216 54.5099 19.5933 54.5068 19.5649 54.5063C19.2315 54.5063 18.348 55.5568 18.1344 55.5568C17.8832 55.6121 17.6407 55.7017 17.4137 55.823H17.161C13.1162 53.3055 9.77885 49.7969 7.46391 45.6286C5.14898 41.4603 3.9329 36.7698 3.9305 32C3.93904 24.5602 6.89345 17.4276 12.1456 12.1669C17.3978 6.90622 24.5188 3.94699 31.9464 3.93843C39.3745 3.94638 46.4961 6.90533 51.7488 12.1661C57.0014 17.4269 59.9561 24.5598 59.9647 32C59.9617 36.7557 58.752 41.4326 56.4493 45.5916C54.1465 49.7505 50.8263 53.2551 46.8003 55.7761Z" fill="white"/>
<path d="M28.0252 32.4615C26.7538 30.4766 24.795 29.0323 22.5251 28.4061C22.2439 28.3168 21.952 28.2352 21.6469 28.159C21.6469 28.159 17.4852 27.1794 15.7804 27.3272C15.7804 27.3272 15.8073 27.3403 15.8634 27.3649C16.0939 27.4688 16.584 27.7981 17.5828 28.316C19.8718 29.4867 22.0476 30.8672 24.0824 32.4399C26.4018 34.2768 28.5876 35.3541 29.3382 37.7828C29.3229 36.6119 29.1736 35.4467 28.8933 34.3099C28.6726 33.6637 28.3814 33.0438 28.0252 32.4615Z" fill="white"/>
<path d="M35.7724 17.994C37.1457 17.1303 38.596 16.3961 40.1047 15.8009C40.7632 15.5369 41.2364 15.3738 41.3878 15.3214C41.4239 15.3091 41.4423 15.3045 41.4423 15.3045C40.1469 15.2308 38.8473 15.2824 37.5618 15.4584C37.3658 15.4854 37.1776 15.52 36.9955 15.5592C35.5316 15.8135 34.2134 16.6013 33.2947 17.7709C32.4973 18.7897 32.1838 21.2153 32.1423 21.7632C32.9635 20.1819 34.2243 18.8728 35.7724 17.994Z" fill="white"/>
<path d="M33.6005 37.7639C33.8756 37.3907 34.1452 36.9836 34.461 36.5896C34.7913 36.2102 35.1025 35.7924 35.4828 35.4253L36.0382 34.8535L36.6314 34.3149C36.9125 34.0463 37.2206 33.8093 37.5249 33.5707C37.6317 33.4861 37.7377 33.4022 37.846 33.3191L37.8629 33.306C37.8669 33.3017 37.8715 33.298 37.8767 33.2953C38.0189 33.1875 38.1595 33.079 38.3039 32.9767C38.7065 32.6973 39.1106 32.4311 39.5201 32.2033C39.5969 32.1579 39.6783 32.1179 39.7567 32.0748C39.7612 32.073 39.7654 32.0704 39.769 32.0671L39.8043 32.0494C39.9442 31.9724 40.0832 31.8993 40.2215 31.8309L40.3913 31.74C40.7293 31.5692 41.0589 31.4269 41.3732 31.2983C39.7416 31.4362 38.1495 31.8753 36.6775 32.5935C36.2989 32.8206 35.9332 33.0686 35.5819 33.336C34.4632 34.1277 33.5724 35.2005 32.999 36.4465C32.8914 36.6962 32.8018 36.9534 32.7308 37.216C32.6735 37.4261 32.6286 37.6393 32.5964 37.8547C32.6333 38.3864 32.6832 38.8551 32.7454 39.2483C32.8046 39.1306 32.8607 39.0128 32.9229 38.8882C33.1334 38.5334 33.3554 38.1594 33.6005 37.7639Z" fill="white"/>
<path d="M43.0357 30.942C42.9274 30.9589 42.8183 30.9774 42.6969 31.002C42.5878 31.0282 42.4664 31.0589 42.3504 31.0889C42.0792 31.1728 41.7934 31.2898 41.4815 31.4191C41.1242 31.5822 40.7401 31.7692 40.3498 31.9924C40.1557 32.1078 39.957 32.2258 39.7536 32.3464C39.5539 32.471 39.3572 32.6142 39.1536 32.7504C38.7395 33.0143 38.3546 33.3498 37.9436 33.6584C37.5633 34.0062 37.1492 34.3271 36.7912 34.708L36.2395 35.2606C36.0685 35.456 35.8984 35.6502 35.7294 35.8431C35.3791 36.2186 35.0987 36.6411 34.7983 37.022C34.5148 37.416 34.2743 37.8231 34.03 38.1917C33.8218 38.5826 33.6228 38.9535 33.4399 39.2929L33.0251 40.2617C33.0013 40.3102 32.9844 40.3587 32.9644 40.4056C32.9314 40.5103 32.9083 40.5795 32.8983 40.6118C33.8356 40.3674 34.74 40.0106 35.5919 39.5491C36.8266 38.8928 37.9592 38.0596 38.9539 37.0759C40.2876 35.7439 41.3631 34.1758 42.1261 32.451C42.5741 31.6871 43.3025 31.1289 44.1559 30.8958L44.0859 30.8912C43.7351 30.875 43.3834 30.892 43.0357 30.942Z" fill="white"/>
<path d="M27.8277 15.1895C27.592 15.0113 27.3471 14.8456 27.094 14.6931C26.109 14.2124 25.0436 13.9186 23.9518 13.8267C24.1623 13.9121 24.382 14.0067 24.6087 14.1222L24.7231 14.1814C24.8153 14.2276 24.9083 14.2776 25.0012 14.3276C25.0087 14.333 25.0167 14.3376 25.0251 14.3415L25.0335 14.3461L25.1872 14.4307C25.4622 14.5846 25.7319 14.7624 26.0015 14.9486C26.0976 15.0179 26.1921 15.0895 26.2873 15.1626L26.2973 15.1695L26.3081 15.1772C26.3849 15.2326 26.4518 15.2895 26.5224 15.3472C26.7299 15.503 26.9294 15.6692 27.1202 15.8451L27.5189 16.2037C27.6426 16.333 27.7663 16.46 27.8884 16.5885C28.1435 16.834 28.3494 17.1149 28.5737 17.368C28.7835 17.632 28.9648 17.9028 29.1484 18.1545C29.2537 18.3269 29.4557 18.7232 29.5909 18.9579L29.7131 17.8036C29.6585 17.6127 29.5871 17.3573 29.551 17.2726C29.1692 16.4387 28.5748 15.7202 27.8277 15.1895Z" fill="white"/>
<path d="M29.4487 19.7746C29.3658 19.5796 29.2731 19.3636 29.1706 19.1266L28.7757 18.3886C28.6113 18.1408 28.4515 17.8707 28.2618 17.606C28.0597 17.3513 27.8715 17.0674 27.6379 16.8173L27.2968 16.4279L26.9273 16.0577C26.6868 15.803 26.4095 15.5883 26.1552 15.3552C25.8809 15.1489 25.6235 14.925 25.3454 14.748C25.2086 14.6557 25.078 14.5602 24.9443 14.4779C24.8107 14.3956 24.6755 14.3186 24.5456 14.2409C24.2836 14.0908 24.027 13.9662 23.7881 13.8561C23.5791 13.7707 23.3878 13.6914 23.2057 13.6353C23.1289 13.6153 23.0521 13.5953 22.9753 13.5783C22.8984 13.5614 22.8216 13.5483 22.7448 13.5383C22.5132 13.5039 22.2788 13.4921 22.0449 13.5029C22.0165 13.5029 21.9988 13.5029 21.9988 13.5029C22.5699 13.6596 23.0571 14.0338 23.3563 14.5456C23.8675 15.6996 24.5881 16.7485 25.4814 17.6391C26.1456 18.2983 26.903 18.856 27.7293 19.2944C28.2986 19.6046 28.904 19.8431 29.5317 20.0046C29.524 19.9839 29.5094 19.9369 29.4872 19.8677C29.4764 19.8384 29.4633 19.8076 29.4487 19.7746Z" fill="white"/>
</g>
<defs>
<clipPath id="clip0_763_45914">
<rect width="276" height="64" fill="white"/>
</clipPath>
</defs>
</svg>
