<svg width="42" height="30" viewBox="0 0 42 30" fill="none" xmlns="http://www.w3.org/2000/svg">
<path d="M11.4369 2.71353C12.6812 2.71353 13.6792 3.17459 14.4308 4.0967C15.1887 5.0188 15.5677 6.38917 15.5677 8.2078C15.5677 9.41167 15.3909 10.4266 15.0371 11.2527C14.6897 12.0723 14.2003 12.6935 13.5686 13.1161C12.9433 13.5324 12.2138 13.7405 11.38 13.7405C10.8495 13.7405 10.3884 13.67 9.99677 13.5292C9.60517 13.3883 9.27041 13.2058 8.99249 12.9817C8.71458 12.7511 8.4809 12.5014 8.29138 12.2324H8.15874C8.19034 12.4886 8.21874 12.7735 8.24403 13.0873C8.27558 13.3947 8.29138 13.6764 8.29138 13.9326V18.2646H6.05545V2.91524H7.87453L8.18719 4.38486H8.29138C8.4872 4.08389 8.72407 3.80534 9.00199 3.5492C9.2862 3.29305 9.62726 3.09134 10.0252 2.94406C10.4295 2.79038 10.9 2.71353 11.4369 2.71353ZM10.84 4.55776C10.2273 4.55776 9.73465 4.68263 9.362 4.93238C8.99564 5.17572 8.72722 5.5439 8.55669 6.03697C8.39246 6.53008 8.30403 7.14798 8.29138 7.89082V8.2078C8.29138 8.99545 8.37037 9.6646 8.52825 10.2153C8.69248 10.7596 8.9609 11.1759 9.3336 11.464C9.71255 11.7458 10.2242 11.8866 10.8684 11.8866C11.4116 11.8866 11.8601 11.7361 12.2138 11.4352C12.5738 11.1342 12.8423 10.7052 13.0191 10.1481C13.196 9.59095 13.2844 8.93458 13.2844 8.17897C13.2844 7.03272 13.0823 6.14264 12.678 5.50867C12.2801 4.87476 11.6674 4.55776 10.84 4.55776ZM22.2566 2.71353C23.5831 2.71353 24.5841 3.0113 25.26 3.60683C25.9422 4.20236 26.2832 5.13087 26.2832 6.39237V13.5484H24.701L24.2747 12.0404H24.1989C23.902 12.4245 23.5957 12.7415 23.2798 12.9913C22.964 13.241 22.5977 13.4267 22.1808 13.5484C21.7703 13.6764 21.2681 13.7405 20.6744 13.7405C20.0491 13.7405 19.4901 13.6252 18.9974 13.3947C18.5048 13.1578 18.1163 12.7992 17.8321 12.3189C17.5478 11.8386 17.4058 11.2303 17.4058 10.4939C17.4058 9.39885 17.8068 8.57598 18.609 8.02529C19.4175 7.47459 20.6365 7.17043 22.2661 7.1128L24.0852 7.04555V6.48842C24.0852 5.75201 23.9146 5.22692 23.5736 4.91318C23.2388 4.59938 22.7651 4.44249 22.1524 4.44249C21.6281 4.44249 21.1197 4.51934 20.627 4.67302C20.1344 4.82671 19.6543 5.01561 19.1869 5.23974L18.4669 3.64525C18.9785 3.3699 19.5596 3.14577 20.2102 2.97288C20.867 2.79998 21.5492 2.71353 22.2566 2.71353ZM24.0757 8.46716L22.7209 8.51516C21.6092 8.55358 20.8291 8.74568 20.3807 9.0915C19.9323 9.43727 19.708 9.91113 19.708 10.5131C19.708 11.0382 19.8628 11.4224 20.1723 11.6657C20.4817 11.9026 20.8891 12.0211 21.3945 12.0211C22.165 12.0211 22.8029 11.8002 23.3083 11.3583C23.8199 10.9101 24.0757 10.2538 24.0757 9.38927V8.46716ZM27.8181 2.91524H30.2435L32.3942 8.98582C32.489 9.26119 32.5742 9.53332 32.65 9.8023C32.7321 10.0648 32.8016 10.3242 32.8584 10.5803C32.9216 10.8365 32.9722 11.0926 33.01 11.3488H33.0669C33.13 11.0158 33.2185 10.6443 33.3322 10.2345C33.4521 9.81827 33.5848 9.40205 33.7301 8.98582L35.7955 2.91524H38.1925L33.6922 15.0084C33.4332 15.7 33.1142 16.2891 32.7353 16.7758C32.3626 17.2688 31.9205 17.6402 31.4088 17.89C30.8973 18.1461 30.313 18.2742 29.6561 18.2742C29.3403 18.2742 29.0655 18.255 28.8318 18.2166C28.5981 18.1845 28.3992 18.1493 28.2349 18.1109V16.3051C28.3676 16.3371 28.5349 16.3659 28.7371 16.3916C28.9392 16.4172 29.1476 16.43 29.3624 16.43C29.7603 16.43 30.1046 16.3499 30.3951 16.1898C30.6856 16.0298 30.932 15.8024 31.1341 15.5079C31.3362 15.2197 31.5036 14.8899 31.6363 14.5185L32.0058 13.5195L27.8181 2.91524Z" fill="#232F3E"/>
<path d="M36.8399 22.0817C18.9754 30.7013 7.88851 23.4896 0.791437 19.1093C0.352272 18.8333 -0.394154 19.1739 0.253473 19.928C2.61786 22.8345 10.3665 29.84 20.4806 29.84C30.6018 29.84 36.6229 24.2411 37.3761 23.2644C38.1243 22.296 37.596 21.7618 36.8399 22.0817ZM41.8571 19.2726C41.3773 18.6393 38.94 18.5212 37.406 18.7123C35.8697 18.8978 33.5637 19.8497 33.7642 20.4212C33.8671 20.6354 34.0771 20.5393 35.1325 20.4431C36.1907 20.3361 39.1554 19.9568 39.7731 20.7754C40.3938 21.5999 38.8276 25.527 38.5415 26.1603C38.2652 26.7936 38.6471 26.9569 39.1662 26.5351C39.6783 26.1135 40.6051 25.0215 41.2271 23.4761C41.8449 21.9224 42.2217 19.7549 41.8571 19.2726Z" fill="#FF9900"/>
<path d="M36.8399 22.0817C18.9754 30.7013 7.88851 23.4896 0.791437 19.1093C0.352272 18.8333 -0.394154 19.1739 0.253473 19.928C2.61786 22.8345 10.3665 29.84 20.4806 29.84C30.6018 29.84 36.6229 24.2411 37.3761 23.2644C38.1243 22.296 37.596 21.7618 36.8399 22.0817ZM41.8571 19.2726C41.3773 18.6393 38.94 18.5212 37.406 18.7123C35.8697 18.8978 33.5637 19.8497 33.7642 20.4212C33.8671 20.6354 34.0771 20.5393 35.1325 20.4431C36.1907 20.3361 39.1554 19.9568 39.7731 20.7754C40.3938 21.5999 38.8276 25.527 38.5415 26.1603C38.2652 26.7936 38.6471 26.9569 39.1662 26.5351C39.6783 26.1135 40.6051 25.0215 41.2271 23.4761C41.8449 21.9224 42.2217 19.7549 41.8571 19.2726Z" fill="#FF9900"/>
</svg>
