<svg width="38" height="24" viewBox="0 0 38 24" fill="none" xmlns="http://www.w3.org/2000/svg">
<path fill-rule="evenodd" clip-rule="evenodd" d="M19 20.7528C16.9876 22.4659 14.3771 23.5 11.5246 23.5C5.15973 23.5 0 18.3513 0 12C0 5.64873 5.15973 0.5 11.5246 0.5C14.3771 0.5 16.9876 1.53414 19 3.24719C21.0124 1.53414 23.6229 0.5 26.4754 0.5C32.8403 0.5 38 5.64873 38 12C38 18.3513 32.8403 23.5 26.4754 23.5C23.6229 23.5 21.0124 22.4659 19 20.7528Z" fill="#ED0006"/>
<path fill-rule="evenodd" clip-rule="evenodd" d="M19 20.7528C21.4779 18.6435 23.0492 15.5048 23.0492 12C23.0492 8.49515 21.4779 5.35651 19 3.24719C21.0124 1.53414 23.6229 0.5 26.4754 0.5C32.8403 0.5 38 5.64873 38 12C38 18.3513 32.8403 23.5 26.4754 23.5C23.6229 23.5 21.0124 22.4659 19 20.7528Z" fill="#F9A000"/>
<path fill-rule="evenodd" clip-rule="evenodd" d="M19 20.7528C21.4779 18.6435 23.0492 15.5048 23.0492 12C23.0492 8.49518 21.4779 5.35655 19 3.24724C16.5221 5.35655 14.9509 8.49518 14.9509 12C14.9509 15.5048 16.5221 18.6435 19 20.7528Z" fill="#FF5E00"/>
</svg>
