<svg width="43" height="14" viewBox="0 0 43 14" fill="none" xmlns="http://www.w3.org/2000/svg">
<path fill-rule="evenodd" clip-rule="evenodd" d="M10.7505 13.8909H7.02907L4.23849 3.03015C4.10604 2.53055 3.8248 2.08888 3.41111 1.88071C2.37871 1.35758 1.24106 0.941253 0 0.731278V0.313137H5.99485C6.82223 0.313137 7.44276 0.941253 7.54618 1.67074L8.99409 9.505L12.7137 0.313137H16.3316L10.7505 13.8909ZM18.4001 13.8909H14.8855L17.7795 0.313137H21.2941L18.4001 13.8909ZM25.841 4.07461C25.9444 3.34332 26.565 2.92518 27.2889 2.92518C28.4266 2.82019 29.6658 3.03016 30.7 3.55148L31.3206 0.628116C30.2863 0.209975 29.1487 0 28.1163 0C24.7052 0 22.2231 1.88073 22.2231 4.49094C22.2231 6.47666 23.9812 7.51929 25.2223 8.14741C26.565 8.77372 27.0821 9.19186 26.9787 9.81816C26.9787 10.7576 25.9444 11.1758 24.912 11.1758C23.671 11.1758 22.4299 10.8626 21.2941 10.3395L20.6735 13.2647C21.9146 13.786 23.2573 13.996 24.4983 13.996C28.3231 14.0991 30.7 12.2202 30.7 9.40002C30.7 5.84854 25.841 5.64038 25.841 4.07461ZM43 13.8909L40.2094 0.313137H37.212C36.5915 0.313137 35.9709 0.731278 35.7641 1.35758L30.5966 13.8909H34.2146L34.9367 11.907H39.382L39.7957 13.8909H43ZM37.7291 3.9696L38.7615 9.08685H35.8675L37.7291 3.9696Z" fill="#172B85"/>
</svg>
