<svg width="34" height="34" viewBox="0 0 34 34" fill="none" xmlns="http://www.w3.org/2000/svg">
<path d="M29.4999 33.25H29.2874C4.72494 31.8375 1.23744 11.1125 0.749943 4.7875C0.710662 4.29573 0.768804 3.80103 0.921037 3.33176C1.07327 2.8625 1.3166 2.42788 1.63709 2.05282C1.95758 1.67775 2.34893 1.36961 2.78871 1.14605C3.22849 0.922489 3.70806 0.787902 4.19994 0.750001H11.0874C11.5881 0.749516 12.0774 0.899388 12.492 1.1802C12.9065 1.46102 13.2272 1.85984 13.4124 2.325L15.3124 7C15.4954 7.45443 15.5408 7.9526 15.443 8.43261C15.3452 8.91263 15.1086 9.35334 14.7624 9.7L12.0999 12.3875C12.5158 14.7509 13.6477 16.9296 15.3423 18.6287C17.037 20.3278 19.2126 21.4654 21.5749 21.8875L24.2874 19.2C24.6393 18.8577 25.0842 18.6266 25.5665 18.5354C26.0489 18.4443 26.5474 18.4972 26.9999 18.6875L31.7124 20.575C32.1706 20.7661 32.5615 21.0893 32.8353 21.5033C33.1091 21.9174 33.2535 22.4036 33.2499 22.9V29.5C33.2499 30.4946 32.8549 31.4484 32.1516 32.1517C31.4483 32.8549 30.4945 33.25 29.4999 33.25ZM4.49994 3.25C4.16842 3.25 3.85048 3.3817 3.61606 3.61612C3.38164 3.85054 3.24994 4.16848 3.24994 4.5V4.6C3.82494 12 7.51244 29.5 29.4249 30.75C29.5892 30.7601 29.7538 30.7378 29.9093 30.6842C30.0649 30.6306 30.2083 30.5468 30.3314 30.4376C30.4545 30.3285 30.5548 30.1961 30.6267 30.048C30.6985 29.9 30.7404 29.7393 30.7499 29.575V22.9L26.0374 21.0125L22.4499 24.575L21.8499 24.5C10.9749 23.1375 9.49994 12.2625 9.49994 12.15L9.42494 11.55L12.9749 7.9625L11.0999 3.25H4.49994Z" fill="white"/>
</svg>
