<svg width="50" height="51" viewBox="0 0 50 51" fill="none" xmlns="http://www.w3.org/2000/svg">
<path d="M43.75 9.875H6.25C5.4212 9.875 4.62634 10.2042 4.04029 10.7903C3.45424 11.3763 3.125 12.1712 3.125 13V38C3.125 38.8288 3.45424 39.6237 4.04029 40.2097C4.62634 40.7958 5.4212 41.125 6.25 41.125H43.75C44.5788 41.125 45.3737 40.7958 45.9597 40.2097C46.5458 39.6237 46.875 38.8288 46.875 38V13C46.875 12.1712 46.5458 11.3763 45.9597 10.7903C45.3737 10.2042 44.5788 9.875 43.75 9.875ZM43.75 13V17.6875H6.25V13H43.75ZM6.25 38V20.8125H43.75V38H6.25Z" fill="black"/>
<path d="M9.375 31.75H25V34.875H9.375V31.75Z" fill="black"/>
</svg>
