<svg width="248" height="288" viewBox="0 0 248 288" fill="none" xmlns="http://www.w3.org/2000/svg">
<path d="M103.199 32.2351H103.171C103.059 32.6154 102.781 32.9433 102.363 33.2056C101.945 33.4548 101.401 33.5859 100.732 33.5859C100.203 33.5859 99.7011 33.4941 99.2552 33.3105C98.8093 33.1269 98.4331 32.8515 98.1126 32.4974C97.7921 32.1302 97.5413 31.6843 97.3601 31.1597C97.179 30.622 97.0954 30.0188 97.0954 29.3237C97.0954 28.6418 97.179 28.0254 97.3601 27.5008C97.5274 26.9631 97.7921 26.5303 98.1126 26.1762C98.4331 25.809 98.8233 25.5205 99.2831 25.3369C99.7429 25.1533 100.259 25.0615 100.816 25.0615C101.61 25.0615 102.265 25.232 102.795 25.5599C103.324 25.8877 103.714 26.3336 104.007 26.8713L103.143 27.3565C102.948 26.9107 102.641 26.5697 102.237 26.3205C101.847 26.0713 101.373 25.9533 100.816 25.9533C100.44 25.9533 100.091 26.0189 99.7708 26.15C99.4503 26.2812 99.1716 26.4517 98.9347 26.6877C98.7118 26.9238 98.5306 27.2123 98.4052 27.5401C98.2798 27.868 98.2241 28.2483 98.2241 28.6549V29.9794C98.2241 30.386 98.2798 30.7663 98.4052 31.1073C98.5306 31.4351 98.7118 31.7237 98.9347 31.9597C99.1716 32.1958 99.4503 32.3794 99.7847 32.5105C100.119 32.6417 100.509 32.6941 100.927 32.6941C101.092 32.6941 101.251 32.6823 101.408 32.66M92.5388 26.1238H92.4831L90.9921 30.1368H94.0298C94.0298 30.1368 93.9448 29.906 93.8138 29.5558M95.1585 33.4416L94.2806 31.0024H90.7413L89.8773 33.4416H88.8044L91.87 25.2058H93.2077C93.2077 25.2058 93.2676 25.3658 93.3693 25.6399M82.6593 28.7729H85.0839C85.5019 28.7729 85.8363 28.668 86.0732 28.4713C86.3101 28.2746 86.4216 27.986 86.4216 27.6188V27.2254C86.4216 26.8582 86.3101 26.5697 86.0732 26.373C85.8363 26.1762 85.5019 26.0713 85.0839 26.0713C85.0839 26.0713 84.3551 26.0713 83.696 26.0713M82.6593 32.5761H85.265C85.7109 32.5761 86.0593 32.4581 86.324 32.2482C86.5888 32.0253 86.7142 31.7105 86.7142 31.2909V30.8843C86.7142 30.4647 86.5888 30.163 86.324 29.9532C86.0593 29.7303 85.7109 29.6253 85.265 29.6253C85.265 29.6253 84.468 29.6253 83.7545 29.6253M81.6142 25.2058H85.2093C85.9339 25.2058 86.5191 25.3894 86.9232 25.7828C87.3412 26.1631 87.5503 26.6877 87.5503 27.3303C87.5503 27.6319 87.5085 27.8942 87.4109 28.1041C87.3134 28.3139 87.2019 28.4975 87.0626 28.6418C86.9232 28.7729 86.756 28.8778 86.5888 28.9434C86.4216 29.009 86.2683 29.0483 86.129 29.0745V29.1401C86.2822 29.1532 86.4634 29.1926 86.6585 29.2581C86.8535 29.3237 87.0347 29.4417 87.2158 29.5991C87.383 29.7434 87.5503 29.9532 87.6617 30.1893C87.7872 30.4253 87.8429 30.7138 87.8429 31.0548C87.8429 31.3958 87.7872 31.7105 87.6757 31.9991C87.5642 32.2876 87.397 32.5499 87.2019 32.7597C87.0068 32.9695 86.7699 33.14 86.4912 33.258C86.2126 33.3761 85.906 33.4416 85.5855 33.4416C85.5855 33.4416 83.3253 33.4416 82.2161 33.4416M75.5945 32.2351H75.5666C75.4551 32.6154 75.1904 32.9433 74.7584 33.2056C74.3404 33.4548 73.7969 33.5859 73.1281 33.5859C72.5846 33.5859 72.0969 33.4941 71.651 33.3105C71.2051 33.1269 70.8289 32.8515 70.5084 32.4974C70.1879 32.1302 69.9371 31.6843 69.7559 31.1597C69.5887 30.622 69.4912 30.0188 69.4912 29.3237C69.4912 28.6418 69.5887 28.0254 69.7559 27.5008C69.9231 26.9631 70.1879 26.5303 70.5084 26.1762C70.8289 25.809 71.233 25.5205 71.6928 25.3369C72.1527 25.1533 72.6543 25.0615 73.2117 25.0615C73.992 25.0615 74.6609 25.232 75.1904 25.5599C75.7199 25.8877 76.124 26.3336 76.4027 26.8713L75.5387 27.3565C75.3437 26.9107 75.0371 26.5697 74.633 26.3205C74.2428 26.0713 73.7551 25.9533 73.2117 25.9533C72.8215 25.9533 72.4871 26.0189 72.1666 26.15C71.8461 26.2812 71.5674 26.4517 71.3305 26.6877C71.1076 26.9238 70.9404 27.2123 70.815 27.5401C70.6895 27.868 70.6199 28.2483 70.6199 28.6549V29.9794C70.6199 30.386 70.6895 30.7663 70.815 31.1073C70.9404 31.4351 71.1076 31.7237 71.3305 31.9597C71.5674 32.1958 71.8461 32.3794 72.1805 32.5105C72.515 32.6417 72.8912 32.6941 73.3092 32.6941C73.4709 32.6941 73.6283 32.6836 73.7802 32.664M63.1789 28.4057L62.1338 26.5828H62.092V33.4416H61.0608V25.2058H62.2871L65.4781 30.2286L66.5371 32.0646H66.5649V25.2058C66.5649 25.2058 66.6402 25.2058 66.7489 25.2058M55.6264 33.4416V32.6154H56.8526V26.032H55.6264V25.2058H59.1379V26.032H57.9116C57.9116 26.032 57.9116 27.5192 57.9116 29.0785M49.4952 29.0483H51.9198C52.3378 29.0483 52.6583 28.9565 52.8813 28.7467C53.1182 28.5368 53.2436 28.2483 53.2436 27.868V27.2647C53.2436 26.8844 53.1182 26.5959 52.8813 26.3861C52.6583 26.1762 52.3378 26.0713 51.9198 26.0713C51.9198 26.0713 51.0963 26.0713 50.4093 26.0713M48.4362 33.4416V25.2058H51.9198C52.7001 25.2058 53.3132 25.4156 53.7313 25.8353C54.1493 26.2549 54.3723 26.832 54.3723 27.5664C54.3723 28.2877 54.1493 28.8778 53.7313 29.2975C53.6226 29.4063 53.5028 29.5008 53.369 29.5808M41.887 29.0483H44.3116C44.7296 29.0483 45.064 28.9565 45.287 28.7467C45.5239 28.5368 45.6354 28.2483 45.6354 27.868V27.2647C45.6354 26.8844 45.5239 26.5959 45.287 26.3861C45.064 26.1762 44.7296 26.0713 44.3116 26.0713C44.3116 26.0713 43.4922 26.0713 42.8067 26.0713M40.828 33.4416V25.2058H44.3116C45.0919 25.2058 45.705 25.4156 46.1231 25.8353C46.5411 26.2549 46.764 26.832 46.764 27.5664C46.764 28.2877 46.5411 28.8778 46.1231 29.2975C46.0144 29.4063 45.8945 29.5008 45.7608 29.5808M35.2263 32.6941C35.6025 32.6941 35.9509 32.6417 36.2714 32.5105C36.5919 32.3794 36.8566 32.2089 37.0796 31.9728C37.3165 31.7368 37.4976 31.4482 37.623 31.1204C37.7484 30.7925 37.8042 30.4122 37.8042 30.0057V28.6418C37.8042 28.2352 37.7484 27.8549 37.623 27.527C37.4976 27.1992 37.3165 26.9107 37.0796 26.6746C36.8566 26.4385 36.5919 26.2549 36.2714 26.1369C35.9509 26.0058 35.6025 25.9533 35.2263 25.9533C34.8501 25.9533 34.5017 26.0058 34.1812 26.1369C33.8607 26.2549 33.596 26.4385 33.3591 26.6746C33.1361 26.9107 32.955 27.1992 32.8296 27.527C32.771 27.6805 32.7264 27.847 32.6972 28.0214M35.2263 33.5859C34.655 33.5859 34.1394 33.4941 33.6796 33.3105C33.2337 33.1269 32.8435 32.8515 32.523 32.4974C32.2025 32.1302 31.9378 31.6843 31.7705 31.1597C31.6033 30.622 31.5058 30.0188 31.5058 29.3237C31.5058 28.6286 31.6033 28.0123 31.7705 27.4877C31.9378 26.9631 32.2025 26.5303 32.523 26.1631C32.8435 25.809 33.2337 25.5205 33.6796 25.3369C34.1394 25.1533 34.655 25.0615 35.2263 25.0615C35.7837 25.0615 36.2992 25.1533 36.7591 25.3369C37.2189 25.5205 37.5952 25.809 37.9156 26.1631C38.2361 26.5303 38.5009 26.9631 38.6681 27.4877C38.6834 27.5336 38.6974 27.5808 38.7099 27.628M28.5656 29.7171H24.1344V33.4416H23.0894V25.2058H24.1344V28.8385H28.5656V25.2058C28.5656 25.2058 28.6004 25.2058 28.6562 25.2058M18.2541 33.5859C17.5434 33.5859 16.9443 33.4548 16.4426 33.2056C15.941 32.9433 15.509 32.5892 15.1606 32.1433L15.941 31.5269C16.2475 31.9073 16.5959 32.2089 16.9721 32.4187C17.3484 32.6154 17.7803 32.7072 18.2959 32.7072C18.923 32.7072 19.3967 32.5761 19.7172 32.2876C20.0516 32.0122 20.2328 31.6187 20.2328 31.1466C20.2328 30.7532 20.0935 30.4516 19.8426 30.2417C19.5918 30.0319 19.1738 29.8614 18.6025 29.7434L17.8918 29.586C17.0975 29.4155 16.4844 29.1401 16.0525 28.7991C15.6344 28.445 15.4254 27.9598 15.4254 27.3172C15.4254 26.9631 15.4951 26.6353 15.6344 26.3467C15.7738 26.0713 15.9688 25.8222 16.2197 25.6386C16.4705 25.455 16.791 25.3107 17.1393 25.2189C17.5016 25.114 17.8918 25.0615 18.3098 25.0615C18.9787 25.0615 19.5361 25.1664 20.0098 25.4025C20.4836 25.6386 20.9016 25.9664 21.2221 26.4123L20.4279 26.95C20.191 26.6353 19.8984 26.3861 19.55 26.2025C19.2016 26.0189 18.7836 25.9402 18.268 25.9402C18.066 25.9402 17.8779 25.9559 17.7051 25.9861" fill="black"/>
<path d="M0.522461 0.491699H217.9V224.748C217.9 224.748 116.799 224.748 52.4946 224.748" stroke="black" stroke-width="0.999975"/>
<path d="M83.0845 53.6055H136.384V117.538C136.384 117.538 107.649 117.538 92.3763 117.538" stroke="black" stroke-width="0.999975"/>
<path d="M180.841 185.924H173.386V187.078H176.368V194.75H177.846C177.846 194.75 177.846 194.108 177.846 193.195M171.129 194.75H171.895V185.924H170.418V192.114L170.377 192.127L164.859 185.924H164.162C164.162 185.924 164.162 192.434 164.162 194.272M162.169 187.078V185.924H155.718V194.75H162.169V193.595H157.195V190.723C157.195 190.723 157.957 190.723 158.85 190.723M149.168 192.481L151.886 188.874L151.941 188.887V194.763H153.418V185.924H152.513L148.904 190.828L145.308 185.924H144.403C144.403 185.924 144.403 187.538 144.403 189.387M142.926 185.924H135.471V187.078H138.453V194.75H139.944C139.944 194.75 139.944 194.113 139.944 193.209M133.227 194.75H133.994V185.924H132.503V192.114L132.461 192.127L126.957 185.924H126.246C126.246 185.924 126.246 192.434 126.246 194.272M123.947 194.75V185.924H122.47C122.47 185.924 122.47 187.683 122.47 189.632M115.962 187.064C117.969 187.064 119.028 188.56 119.028 190.33C119.028 192.1 117.969 193.609 115.962 193.609C114.485 193.609 113.514 192.792 113.105 191.653M115.962 185.845C113.008 185.845 111.392 187.799 111.392 190.33C111.392 192.874 113.008 194.815 115.962 194.815C118.115 194.815 119.559 193.775 120.176 192.218M106.348 187.078C107.449 187.078 108.34 187.851 108.34 188.887C108.34 189.871 107.449 190.671 106.348 190.671H104.355C104.355 190.671 104.355 190.082 104.355 189.382M102.878 185.924V194.75H104.355V191.851H106.473C108.023 191.851 109.335 190.92 109.71 189.639M97.4854 187.078C98.5862 187.078 99.478 187.851 99.478 188.887C99.478 189.871 98.5862 190.671 97.4854 190.671H95.5067C95.5067 190.671 95.5067 190.085 95.5067 189.386M94.0157 185.924V194.75H95.5067V191.851H97.6108C99.1491 191.851 100.47 190.92 100.848 189.638M86.505 191.838L88.1911 188.022H88.2329C88.2329 188.022 89.3086 190.438 89.7489 191.425M86.087 192.94H90.3788L91.2288 194.815L92.7337 194.75L88.637 185.924H87.8009C87.8009 185.924 87.1878 187.248 86.4381 188.87M73.9779 185.924H72.5008V194.75H73.9779V190.933H75.0509L78.1164 194.815L79.8025 194.75L76.2353 190.369C76.2353 190.369 76.8122 189.525 77.4629 188.573M65.9934 187.064C68 187.064 69.059 188.56 69.059 190.33C69.059 192.1 68 193.609 65.9934 193.609C64.5164 193.609 63.5452 192.792 63.1355 191.653M65.9934 185.845C63.0393 185.845 61.4229 187.799 61.4229 190.33C61.4229 192.874 63.0393 194.815 65.9934 194.815C68.1477 194.815 69.5983 193.773 70.2212 192.216M55.2639 187.064C57.2705 187.064 58.3434 188.56 58.3434 190.33C58.3434 192.1 57.2705 193.609 55.2639 193.609C53.7896 193.609 52.8281 192.795 52.4199 191.661M55.2639 185.845C52.3098 185.845 50.7073 187.799 50.7073 190.33C50.7073 192.874 52.3098 194.815 55.2639 194.815C57.421 194.815 58.8729 193.771 59.493 192.211M48.645 188.192C48.645 186.92 47.6417 185.924 45.7327 185.924H41.8311V194.75H45.7327C45.8734 194.75 46.01 194.746 46.141 194.736M45.7884 190.723C46.736 190.723 47.5999 191.353 47.5999 192.127C47.5999 192.835 47.1262 193.595 45.6073 193.595H43.3081C43.3081 193.595 43.3081 193.012 43.3081 192.371M43.3081 189.622V187.078H45.6212C46.527 187.078 47.168 187.576 47.168 188.389C47.168 188.641 47.0746 188.876 46.9227 189.071" fill="black"/>
<path d="M15.1538 172.619H207.45V210.979C207.45 210.979 166.782 210.979 122.851 210.979" stroke="black" stroke-width="0.999975"/>
<path d="M21.4243 53.6055H74.7237V117.538C74.7237 117.538 45.9891 117.538 30.7162 117.538" stroke="black" stroke-width="0.999975"/>
<path d="M27.1724 108.193L48.5862 61.9651C48.5862 61.9651 60.6036 90.6827 65.6942 102.85" stroke="black" stroke-width="0.999975"/>
<path d="M88.832 108.194L129.59 62.9487C129.59 62.9487 129.59 88.2789 129.59 101.033" stroke="black" stroke-width="0.999975"/>
<path d="M144.744 53.6055H198.044V117.538C198.044 117.538 169.309 117.538 154.036 117.538" stroke="black" stroke-width="0.999975"/>
<path d="M150.492 108.193V61.9651H191.251C191.251 61.9651 187.249 66.5033 181.754 72.7363" stroke="black" stroke-width="0.999975"/>
<path d="M188.729 209.425L195.445 204.402L220.847 234.421L214.131 239.444C214.131 239.444 211.687 236.554 208.315 232.57" fill="black"/>
<path d="M179.629 193.005L183.238 226.447L214.716 202.854C214.716 202.854 214.459 202.782 213.988 202.649" fill="black"/>
<path d="M174.937 185.838C174.937 185.838 162.914 171.632 153.861 160.936" stroke="black" stroke-width="0.999975"/>
<path d="M159.71 203.788C159.71 203.788 140.842 199.995 126.634 197.138" stroke="black" stroke-width="0.999975"/>
<path d="M220.607 198.762C220.607 198.762 235.702 187.447 247.067 178.927" stroke="black" stroke-width="0.999975"/>
<path d="M203.719 186.487C203.719 186.487 207.753 168.729 210.791 155.358" stroke="black" stroke-width="0.999975"/>
<path d="M134.764 263.098C134.764 263.098 149.862 251.783 161.23 243.263" stroke="black" stroke-width="0.999975"/>
<path d="M180.779 287.492C180.779 287.492 184.813 269.73 187.851 256.355" stroke="black" stroke-width="0.999975"/>
</svg>
