<svg width="248" height="288" viewBox="0 0 248 288" fill="none" xmlns="http://www.w3.org/2000/svg">
<path d="M103.199 32.2352H103.171C103.059 32.6156 102.781 32.9434 102.363 33.2057C101.945 33.4549 101.401 33.586 100.732 33.586C100.203 33.586 99.7011 33.4942 99.2552 33.3106C98.8093 33.127 98.4331 32.8516 98.1126 32.4975C97.7921 32.1303 97.5413 31.6844 97.3601 31.1599C97.179 30.6222 97.0954 30.0189 97.0954 29.3238C97.0954 28.6419 97.179 28.0255 97.3601 27.5009C97.5274 26.9632 97.7921 26.5305 98.1126 26.1764C98.4331 25.8092 98.8233 25.5206 99.2831 25.337C99.7429 25.1534 100.259 25.0616 100.816 25.0616C101.61 25.0616 102.265 25.2321 102.795 25.56C103.324 25.8879 103.714 26.3337 104.007 26.8714L103.143 27.3567C102.948 26.9108 102.641 26.5698 102.237 26.3206C101.847 26.0715 101.373 25.9534 100.816 25.9534C100.44 25.9534 100.091 26.019 99.7708 26.1501C99.4503 26.2813 99.1716 26.4518 98.9347 26.6878C98.7118 26.9239 98.5306 27.2124 98.4052 27.5403C98.2798 27.8681 98.2241 28.2485 98.2241 28.655V29.9796C98.2241 30.3861 98.2798 30.7664 98.4052 31.1074C98.5306 31.4353 98.7118 31.7238 98.9347 31.9598C99.1716 32.1959 99.4503 32.3795 99.7847 32.5106C100.119 32.6418 100.509 32.6942 100.927 32.6942C101.092 32.6942 101.251 32.6824 101.408 32.6601M92.5388 26.1239H92.4831L90.9921 30.1369H94.0298C94.0298 30.1369 93.9448 29.9061 93.8138 29.556M95.1585 33.4418L94.2806 31.0025H90.7413L89.8773 33.4418H88.8044L91.87 25.2059H93.2077C93.2077 25.2059 93.2676 25.3659 93.3693 25.64M82.6593 28.773H85.0839C85.5019 28.773 85.8363 28.6681 86.0732 28.4714C86.3101 28.2747 86.4216 27.9862 86.4216 27.619V27.2255C86.4216 26.8583 86.3101 26.5698 86.0732 26.3731C85.8363 26.1764 85.5019 26.0715 85.0839 26.0715C85.0839 26.0715 84.3551 26.0715 83.696 26.0715M82.6593 32.5762H85.265C85.7109 32.5762 86.0593 32.4582 86.324 32.2484C86.5888 32.0254 86.7142 31.7107 86.7142 31.291V30.8844C86.7142 30.4648 86.5888 30.1632 86.324 29.9533C86.0593 29.7304 85.7109 29.6255 85.265 29.6255C85.265 29.6255 84.468 29.6255 83.7545 29.6255M81.6142 25.2059H85.2093C85.9339 25.2059 86.5191 25.3895 86.9232 25.7829C87.3412 26.1633 87.5503 26.6878 87.5503 27.3304C87.5503 27.6321 87.5085 27.8944 87.4109 28.1042C87.3134 28.314 87.2019 28.4976 87.0626 28.6419C86.9232 28.773 86.756 28.8779 86.5888 28.9435C86.4216 29.0091 86.2683 29.0484 86.129 29.0747V29.1402C86.2822 29.1533 86.4634 29.1927 86.6585 29.2583C86.8535 29.3238 87.0347 29.4419 87.2158 29.5992C87.383 29.7435 87.5503 29.9533 87.6617 30.1894C87.7872 30.4254 87.8429 30.714 87.8429 31.0549C87.8429 31.3959 87.7872 31.7107 87.6757 31.9992C87.5642 32.2877 87.397 32.55 87.2019 32.7598C87.0068 32.9696 86.7699 33.1401 86.4912 33.2582C86.2126 33.3762 85.906 33.4418 85.5855 33.4418C85.5855 33.4418 83.3253 33.4418 82.2161 33.4418M75.5945 32.2352H75.5666C75.4551 32.6156 75.1904 32.9434 74.7584 33.2057C74.3404 33.4549 73.7969 33.586 73.1281 33.586C72.5846 33.586 72.0969 33.4942 71.651 33.3106C71.2051 33.127 70.8289 32.8516 70.5084 32.4975C70.1879 32.1303 69.9371 31.6844 69.7559 31.1599C69.5887 30.6222 69.4912 30.0189 69.4912 29.3238C69.4912 28.6419 69.5887 28.0255 69.7559 27.5009C69.9231 26.9632 70.1879 26.5305 70.5084 26.1764C70.8289 25.8092 71.233 25.5206 71.6928 25.337C72.1527 25.1534 72.6543 25.0616 73.2117 25.0616C73.992 25.0616 74.6609 25.2321 75.1904 25.56C75.7199 25.8879 76.124 26.3337 76.4027 26.8714L75.5387 27.3567C75.3437 26.9108 75.0371 26.5698 74.633 26.3206C74.2428 26.0715 73.7551 25.9534 73.2117 25.9534C72.8215 25.9534 72.4871 26.019 72.1666 26.1501C71.8461 26.2813 71.5674 26.4518 71.3305 26.6878C71.1076 26.9239 70.9404 27.2124 70.815 27.5403C70.6895 27.8681 70.6199 28.2485 70.6199 28.655V29.9796C70.6199 30.3861 70.6895 30.7664 70.815 31.1074C70.9404 31.4353 71.1076 31.7238 71.3305 31.9598C71.5674 32.1959 71.8461 32.3795 72.1805 32.5106C72.515 32.6418 72.8912 32.6942 73.3092 32.6942C73.4709 32.6942 73.6283 32.6838 73.7802 32.6641M63.1789 28.4058L62.1338 26.5829H62.092V33.4418H61.0608V25.2059H62.2871L65.4781 30.2287L66.5371 32.0647H66.5649V25.2059C66.5649 25.2059 66.6402 25.2059 66.7489 25.2059M55.6264 33.4418V32.6156H56.8526V26.0321H55.6264V25.2059H59.1379V26.0321H57.9116C57.9116 26.0321 57.9116 27.5193 57.9116 29.0786M49.4952 29.0484H51.9198C52.3378 29.0484 52.6583 28.9566 52.8813 28.7468C53.1182 28.537 53.2436 28.2485 53.2436 27.8681V27.2649C53.2436 26.8845 53.1182 26.596 52.8813 26.3862C52.6583 26.1764 52.3378 26.0715 51.9198 26.0715C51.9198 26.0715 51.0963 26.0715 50.4093 26.0715M48.4362 33.4418V25.2059H51.9198C52.7001 25.2059 53.3132 25.4157 53.7313 25.8354C54.1493 26.2551 54.3723 26.8321 54.3723 27.5665C54.3723 28.2878 54.1493 28.8779 53.7313 29.2976C53.6226 29.4065 53.5028 29.5009 53.369 29.5809M41.887 29.0484H44.3116C44.7296 29.0484 45.064 28.9566 45.287 28.7468C45.5239 28.537 45.6354 28.2485 45.6354 27.8681V27.2649C45.6354 26.8845 45.5239 26.596 45.287 26.3862C45.064 26.1764 44.7296 26.0715 44.3116 26.0715C44.3116 26.0715 43.4922 26.0715 42.8067 26.0715M40.828 33.4418V25.2059H44.3116C45.0919 25.2059 45.705 25.4157 46.1231 25.8354C46.5411 26.2551 46.764 26.8321 46.764 27.5665C46.764 28.2878 46.5411 28.8779 46.1231 29.2976C46.0144 29.4065 45.8945 29.5009 45.7608 29.5809M35.2263 32.6942C35.6025 32.6942 35.9509 32.6418 36.2714 32.5106C36.5919 32.3795 36.8566 32.209 37.0796 31.9729C37.3165 31.7369 37.4976 31.4484 37.623 31.1205C37.7484 30.7926 37.8042 30.4123 37.8042 30.0058V28.6419C37.8042 28.2353 37.7484 27.855 37.623 27.5272C37.4976 27.1993 37.3165 26.9108 37.0796 26.6747C36.8566 26.4387 36.5919 26.2551 36.2714 26.137C35.9509 26.0059 35.6025 25.9534 35.2263 25.9534C34.8501 25.9534 34.5017 26.0059 34.1812 26.137C33.8607 26.2551 33.596 26.4387 33.3591 26.6747C33.1361 26.9108 32.955 27.1993 32.8296 27.5272C32.771 27.6806 32.7264 27.8471 32.6972 28.0216M35.2263 33.586C34.655 33.586 34.1394 33.4942 33.6796 33.3106C33.2337 33.127 32.8435 32.8516 32.523 32.4975C32.2025 32.1303 31.9378 31.6844 31.7705 31.1599C31.6033 30.6222 31.5058 30.0189 31.5058 29.3238C31.5058 28.6288 31.6033 28.0124 31.7705 27.4878C31.9378 26.9632 32.2025 26.5305 32.523 26.1633C32.8435 25.8092 33.2337 25.5206 33.6796 25.337C34.1394 25.1534 34.655 25.0616 35.2263 25.0616C35.7837 25.0616 36.2992 25.1534 36.7591 25.337C37.2189 25.5206 37.5952 25.8092 37.9156 26.1633C38.2361 26.5305 38.5009 26.9632 38.6681 27.4878C38.6834 27.5337 38.6974 27.5809 38.7099 27.6281M28.5656 29.7173H24.1344V33.4418H23.0894V25.2059H24.1344V28.8386H28.5656V25.2059C28.5656 25.2059 28.6004 25.2059 28.6562 25.2059M18.2541 33.586C17.5434 33.586 16.9443 33.4549 16.4426 33.2057C15.941 32.9434 15.509 32.5893 15.1606 32.1434L15.941 31.5271C16.2475 31.9074 16.5959 32.209 16.9721 32.4188C17.3484 32.6156 17.7803 32.7074 18.2959 32.7074C18.923 32.7074 19.3967 32.5762 19.7172 32.2877C20.0516 32.0123 20.2328 31.6189 20.2328 31.1467C20.2328 30.7533 20.0935 30.4517 19.8426 30.2418C19.5918 30.032 19.1738 29.8615 18.6025 29.7435L17.8918 29.5861C17.0975 29.4156 16.4844 29.1402 16.0525 28.7993C15.6344 28.4452 15.4254 27.9599 15.4254 27.3173C15.4254 26.9632 15.4951 26.6354 15.6344 26.3469C15.7738 26.0715 15.9688 25.8223 16.2197 25.6387C16.4705 25.4551 16.791 25.3108 17.1393 25.219C17.5016 25.1141 17.8918 25.0616 18.3098 25.0616C18.9787 25.0616 19.5361 25.1666 20.0098 25.4026C20.4836 25.6387 20.9016 25.9665 21.2221 26.4124L20.4279 26.9501C20.191 26.6354 19.8984 26.3862 19.55 26.2026C19.2016 26.019 18.7836 25.9403 18.268 25.9403C18.066 25.9403 17.8779 25.956 17.7051 25.9862" fill="white"/>
<path d="M0.522461 0.491821H217.9V224.749C217.9 224.749 116.799 224.749 52.4946 224.749" stroke="white" stroke-width="0.999975"/>
<path d="M83.0845 53.6056H136.384V117.538C136.384 117.538 107.649 117.538 92.3763 117.538" stroke="white" stroke-width="0.999975"/>
<path d="M180.841 185.924H173.386V187.078H176.368V194.75H177.846C177.846 194.75 177.846 194.108 177.846 193.196M171.129 194.75H171.895V185.924H170.418V192.114L170.377 192.127L164.859 185.924H164.162C164.162 185.924 164.162 192.434 164.162 194.272M162.169 187.078V185.924H155.718V194.75H162.169V193.596H157.195V190.724C157.195 190.724 157.957 190.724 158.85 190.724M149.168 192.481L151.886 188.874L151.941 188.888V194.763H153.418V185.924H152.513L148.904 190.828L145.308 185.924H144.403C144.403 185.924 144.403 187.538 144.403 189.387M142.926 185.924H135.471V187.078H138.453V194.75H139.944C139.944 194.75 139.944 194.114 139.944 193.209M133.227 194.75H133.994V185.924H132.503V192.114L132.461 192.127L126.957 185.924H126.246C126.246 185.924 126.246 192.434 126.246 194.272M123.947 194.75V185.924H122.47C122.47 185.924 122.47 187.684 122.47 189.632M115.962 187.065C117.969 187.065 119.028 188.56 119.028 190.33C119.028 192.101 117.969 193.609 115.962 193.609C114.485 193.609 113.514 192.792 113.105 191.653M115.962 185.845C113.008 185.845 111.392 187.799 111.392 190.33C111.392 192.874 113.008 194.815 115.962 194.815C118.115 194.815 119.559 193.775 120.176 192.219M106.348 187.078C107.449 187.078 108.34 187.851 108.34 188.888C108.34 189.871 107.449 190.671 106.348 190.671H104.355C104.355 190.671 104.355 190.082 104.355 189.382M102.878 185.924V194.75H104.355V191.851H106.473C108.023 191.851 109.335 190.92 109.71 189.639M97.4854 187.078C98.5862 187.078 99.478 187.851 99.478 188.888C99.478 189.871 98.5862 190.671 97.4854 190.671H95.5067C95.5067 190.671 95.5067 190.085 95.5067 189.386M94.0157 185.924V194.75H95.5067V191.851H97.6108C99.1491 191.851 100.47 190.92 100.848 189.638M86.505 191.838L88.1911 188.022H88.2329C88.2329 188.022 89.3086 190.438 89.7489 191.425M86.087 192.94H90.3788L91.2288 194.815L92.7337 194.75L88.637 185.924H87.8009C87.8009 185.924 87.1878 187.248 86.4381 188.87M73.9779 185.924H72.5008V194.75H73.9779V190.933H75.0509L78.1164 194.815L79.8025 194.75L76.2353 190.369C76.2353 190.369 76.8122 189.525 77.4629 188.573M65.9934 187.065C68 187.065 69.059 188.56 69.059 190.33C69.059 192.101 68 193.609 65.9934 193.609C64.5164 193.609 63.5452 192.792 63.1355 191.653M65.9934 185.845C63.0393 185.845 61.4229 187.799 61.4229 190.33C61.4229 192.874 63.0393 194.815 65.9934 194.815C68.1477 194.815 69.5983 193.773 70.2212 192.216M55.2639 187.065C57.2705 187.065 58.3434 188.56 58.3434 190.33C58.3434 192.101 57.2705 193.609 55.2639 193.609C53.7896 193.609 52.8281 192.796 52.4199 191.661M55.2639 185.845C52.3098 185.845 50.7073 187.799 50.7073 190.33C50.7073 192.874 52.3098 194.815 55.2639 194.815C57.421 194.815 58.8729 193.771 59.493 192.211M48.645 188.192C48.645 186.92 47.6417 185.924 45.7327 185.924H41.8311V194.75H45.7327C45.8734 194.75 46.01 194.746 46.141 194.737M45.7884 190.724C46.736 190.724 47.5999 191.353 47.5999 192.127C47.5999 192.835 47.1262 193.596 45.6073 193.596H43.3081C43.3081 193.596 43.3081 193.012 43.3081 192.371M43.3081 189.622V187.078H45.6212C46.527 187.078 47.168 187.576 47.168 188.389C47.168 188.641 47.0746 188.876 46.9227 189.071" fill="white"/>
<path d="M15.1538 172.619H207.45V210.979C207.45 210.979 166.782 210.979 122.851 210.979" stroke="white" stroke-width="0.999975"/>
<path d="M21.4243 53.6056H74.7237V117.538C74.7237 117.538 45.9891 117.538 30.7162 117.538" stroke="white" stroke-width="0.999975"/>
<path d="M27.1724 108.194L48.5862 61.9653C48.5862 61.9653 60.6036 90.683 65.6942 102.85" stroke="white" stroke-width="0.999975"/>
<path d="M88.832 108.194L129.59 62.949C129.59 62.949 129.59 88.2792 129.59 101.033" stroke="white" stroke-width="0.999975"/>
<path d="M144.744 53.6056H198.044V117.538C198.044 117.538 169.309 117.538 154.036 117.538" stroke="white" stroke-width="0.999975"/>
<path d="M150.492 108.194V61.9653H191.251C191.251 61.9653 187.249 66.5036 181.754 72.7365" stroke="white" stroke-width="0.999975"/>
<path d="M188.729 209.425L195.445 204.402L220.847 234.421L214.131 239.444C214.131 239.444 211.687 236.555 208.315 232.57" fill="white"/>
<path d="M179.629 193.005L183.238 226.447L214.716 202.854C214.716 202.854 214.459 202.782 213.988 202.649" fill="white"/>
<path d="M174.937 185.838C174.937 185.838 162.914 171.632 153.861 160.936" stroke="white" stroke-width="0.999975"/>
<path d="M159.71 203.788C159.71 203.788 140.842 199.995 126.634 197.138" stroke="white" stroke-width="0.999975"/>
<path d="M220.607 198.762C220.607 198.762 235.702 187.447 247.067 178.927" stroke="white" stroke-width="0.999975"/>
<path d="M203.719 186.487C203.719 186.487 207.753 168.73 210.791 155.358" stroke="white" stroke-width="0.999975"/>
<path d="M134.764 263.098C134.764 263.098 149.862 251.783 161.23 243.263" stroke="white" stroke-width="0.999975"/>
<path d="M180.779 287.492C180.779 287.492 184.813 269.73 187.851 256.355" stroke="white" stroke-width="0.999975"/>
</svg>
