<svg width="244" height="96" viewBox="0 0 244 96" fill="none" xmlns="http://www.w3.org/2000/svg">
<path d="M122.783 87.0705C122.65 87.0705 122.557 87.0305 122.497 86.9705C122.443 86.9039 122.417 86.8305 122.417 86.7239V86.6439C122.417 86.5372 122.443 86.4572 122.497 86.3905C122.557 86.3305 122.65 86.2972 122.783 86.2972C122.91 86.2972 122.997 86.3305 123.057 86.3905C123.117 86.4572 123.15 86.5372 123.15 86.6439V86.7239C123.15 86.8139 123.126 86.8799 123.083 86.9385M122.663 85.8906L122.517 84.0306V82.8106H123.043V84.0306C123.043 84.0306 122.997 84.6493 122.957 85.1732M118.99 86.9972V82.8106H121.544V83.2506H119.497V84.6573H121.424V85.1039H119.497V86.5572H121.544C121.544 86.5572 121.544 86.5685 121.544 86.5872M116.964 83.2506V86.9972H116.464V83.2506H115.13V82.8106C115.13 82.8106 117.279 82.8106 118.036 82.8106M111.964 82.8106V85.4039C111.964 85.8039 112.044 86.1039 112.19 86.3105C112.337 86.5172 112.59 86.6172 112.964 86.6172C113.337 86.6172 113.597 86.5172 113.744 86.3105C113.89 86.1039 113.97 85.8039 113.97 85.4039V82.8106H114.47V85.2839C114.47 85.5906 114.45 85.8439 114.39 86.0706C114.337 86.2972 114.25 86.4839 114.13 86.6305C114.01 86.7772 113.857 86.8905 113.657 86.9639C113.464 87.0372 113.23 87.0705 112.95 87.0705C112.67 87.0705 112.437 87.0372 112.244 86.9639C112.05 86.8905 111.904 86.7772 111.784 86.6305C111.67 86.4839 111.584 86.2972 111.53 86.0706C111.484 85.8439 111.464 85.5906 111.464 85.2839C111.464 85.2839 111.464 85.2166 111.464 85.1032M108.81 86.6172C108.99 86.6172 109.15 86.5905 109.304 86.5239C109.457 86.4572 109.59 86.3705 109.697 86.2506C109.81 86.1306 109.897 85.9839 109.957 85.8172C110.017 85.6506 110.044 85.4572 110.044 85.2506V84.5573C110.044 84.3506 110.017 84.1573 109.957 83.9906C109.897 83.8239 109.81 83.6773 109.697 83.5573C109.59 83.4373 109.457 83.344 109.304 83.284C109.15 83.2173 108.99 83.1906 108.81 83.1906C108.631 83.1906 108.464 83.2173 108.311 83.284C108.157 83.344 108.031 83.4373 107.917 83.5573C107.811 83.6773 107.724 83.8239 107.664 83.9906C107.604 84.1573 107.571 84.3506 107.571 84.5573V85.2506C107.571 85.4572 107.604 85.6506 107.664 85.8172C107.683 85.8679 107.703 85.9172 107.726 85.9639M108.81 87.0705C108.537 87.0705 108.291 87.0239 108.071 86.9305C107.857 86.8372 107.664 86.6972 107.511 86.5172C107.357 86.3305 107.237 86.1039 107.157 85.8372C107.077 85.5639 107.031 85.2572 107.031 84.9039C107.031 84.5506 107.077 84.2373 107.157 83.9706C107.237 83.7039 107.357 83.4839 107.511 83.2973C107.664 83.1173 107.857 82.9706 108.071 82.8773C108.291 82.784 108.537 82.7373 108.81 82.7373C109.077 82.7373 109.324 82.784 109.544 82.8773C109.764 82.9706 109.944 83.1173 110.097 83.2973C110.25 83.4839 110.377 83.7039 110.457 83.9706C110.537 84.2373 110.584 84.5506 110.584 84.9039C110.584 85.2572 110.537 85.5639 110.457 85.8372C110.41 85.9939 110.347 86.1372 110.272 86.2666M105.131 84.7639C105.331 84.7639 105.484 84.7173 105.591 84.6106C105.704 84.5039 105.757 84.3573 105.757 84.1639V83.8573C105.757 83.6639 105.704 83.5173 105.591 83.4106C105.484 83.304 105.331 83.2506 105.131 83.2506H103.964V84.7639C103.964 84.7639 104.101 84.7639 104.283 84.7639M103.964 86.9972H103.464V82.8106H105.131C105.497 82.8106 105.791 82.9173 105.991 83.1173C106.197 83.324 106.304 83.6173 106.304 83.9973C106.304 84.3039 106.224 84.5573 106.084 84.7573C105.944 84.9506 105.737 85.0906 105.464 85.1506L106.424 86.9972H105.851L104.944 85.1972C104.944 85.1972 104.759 85.1972 104.551 85.1972M98.8174 84.4373L98.3108 83.5106H98.2974V86.9972H97.8041V82.8106H98.3841L99.9174 85.3639L100.417 86.2972H100.437V82.8106H100.931V86.9972C100.931 86.9972 100.921 86.9972 100.905 86.9972M94.3042 86.9972V82.8106H96.8641V83.2506H94.8108V84.6573H96.7441V85.1039H94.8108V86.5572H96.8641C96.8641 86.5572 96.8641 86.5685 96.8641 86.5885" fill="white"/>
<path d="M76.2482 73.9975H141.247C147.046 73.9975 151.746 79.7974 151.746 84.4972C151.746 90.2971 147.046 94.997 141.247 94.997H76.2482C74.2868 94.997 72.4513 94.3335 70.8804 93.274" stroke="white" stroke-width="0.999975"/>
<path d="M176.246 58.9979H243.744V94.997H176.246C176.246 94.997 176.246 91.9485 176.246 87.6256" stroke="white" stroke-width="0.999975"/>
<path d="M243.744 58.9979C243.744 41.7333 225.089 30.9186 210.105 39.4884C210.105 39.4884 196.394 47.3307 186.358 53.071" stroke="white" stroke-width="0.999975"/>
<path d="M188.495 51.9981V37.4984H196.495C196.495 37.4984 196.495 40.2203 196.495 42.7883" stroke="white" stroke-width="0.999975"/>
<path d="M192.245 74.4975H205.745V94.997H192.245C192.245 94.997 192.245 89.2921 192.245 83.9018" stroke="white" stroke-width="0.999975"/>
<path d="M214.245 63.9977H235.744V84.4972H214.245C214.245 84.4972 214.245 80.2453 214.245 75.6144" stroke="white" stroke-width="0.999975"/>
<path d="M205.745 84.7473C205.745 84.7473 203.543 84.7473 202.514 84.7473" stroke="white" stroke-width="0.999975"/>
<path d="M235.994 74.2475C235.994 74.2475 223.075 74.2475 217.037 74.2475" stroke="white" stroke-width="0.999975"/>
<path d="M224.994 84.7472C224.994 84.7472 224.994 72.415 224.994 66.6517" stroke="white" stroke-width="0.999975"/>
<path d="M9.50001 66.6843C9.52668 66.4243 9.55335 66.171 9.58001 65.911C9.64668 65.3044 9.70668 64.6977 9.77334 64.091C9.80667 63.7711 9.84667 63.4444 9.88 63.1244C9.88 63.0711 9.89334 63.0577 9.94667 63.0577C10.2 63.0577 10.4533 63.0577 10.7066 63.0577C10.76 63.0577 10.7733 63.0711 10.7733 63.1311C10.7733 63.6577 10.7733 64.1777 10.7733 64.7044C10.7733 66.251 10.7733 67.7976 10.7733 69.3443C10.7733 69.4043 10.7466 69.4376 10.6867 69.4376C10.5467 69.4376 10.4 69.4376 10.26 69.4376C10.2133 69.4376 10.1933 69.4242 10.1933 69.3709C10.1933 68.4776 10.1933 67.571 10.1933 66.6777C10.1933 66.251 10.1933 65.8177 10.1933 65.391C10.1933 65.371 10.1867 65.3577 10.18 65.3444C10.1667 65.4777 10.1533 65.6177 10.14 65.751C10.0933 66.151 10.0533 66.5443 10.0133 66.9443C9.96667 67.3576 9.92667 67.7776 9.88 68.1909C9.84001 68.5909 9.80001 68.9909 9.75334 69.3909C9.75334 69.4043 9.73334 69.4309 9.72001 69.4309C9.56001 69.4309 9.40668 69.4376 9.24002 69.4376C9.09336 68.051 8.94669 66.671 8.8067 65.291C8.80003 65.291 8.79336 65.291 8.79336 65.291C8.79336 65.311 8.79336 65.331 8.79336 65.351C8.79336 66.6843 8.79336 68.011 8.79336 69.3443C8.79336 69.4043 8.7667 69.4376 8.7067 69.4376C8.5667 69.4376 8.42004 69.4309 8.28004 69.4376C8.22005 69.4376 8.21338 69.4242 8.21338 69.3643C8.21338 68.4243 8.21338 67.491 8.21338 66.551C8.21338 65.721 8.21338 64.8904 8.21338 64.0604" fill="white"/>
<path d="M15.0663 66.431C15.0863 66.4643 15.1063 66.4843 15.1196 66.5043C15.233 66.6843 15.3396 66.851 15.4463 67.031C15.4596 67.051 15.4663 67.091 15.4596 67.111C15.3996 67.291 15.3663 67.471 15.3663 67.6643C15.3663 67.9643 15.3663 68.271 15.373 68.5709C15.373 68.6443 15.393 68.7109 15.4263 68.7709C15.4996 68.9176 15.6596 68.9176 15.7396 68.7709C15.7729 68.7176 15.7929 68.6576 15.7929 68.5976C15.7929 68.2376 15.7996 67.8843 15.7929 67.531C15.7863 67.3043 15.7196 67.091 15.6063 66.891C15.5263 66.7577 15.4463 66.631 15.3663 66.4977C15.1996 66.2443 15.033 65.991 14.873 65.7377C14.733 65.5043 14.6796 65.251 14.673 64.9777C14.6663 64.611 14.6663 64.2511 14.673 63.8844C14.6796 63.4644 14.893 63.1511 15.2596 63.0444C15.4929 62.9778 15.7329 62.9844 15.9596 63.0644C16.2796 63.1777 16.4863 63.4711 16.4929 63.8311C16.4996 64.2377 16.4996 64.6377 16.4929 65.0444C16.4863 65.2844 16.4263 65.511 16.3063 65.7177C16.2396 65.831 16.1796 65.9443 16.0996 66.0777C16.0863 66.051 16.0796 66.0377 16.0729 66.0243C15.9529 65.8377 15.8396 65.651 15.7196 65.4644C15.7063 65.4377 15.7063 65.4044 15.7129 65.3844C15.7663 65.231 15.7996 65.071 15.7996 64.9044C15.7996 64.5644 15.7996 64.2244 15.7929 63.8844C15.7929 63.8377 15.7796 63.7977 15.7663 63.7511C15.7396 63.6577 15.6796 63.6111 15.5929 63.6111C15.4929 63.6111 15.4396 63.6511 15.4063 63.7444C15.393 63.7977 15.373 63.8577 15.373 63.9111C15.373 64.2644 15.3663 64.611 15.373 64.971C15.3796 65.1777 15.4329 65.3844 15.5396 65.5577C15.7196 65.851 15.9063 66.131 16.0929 66.4177C16.2129 66.611 16.3396 66.8043 16.4129 67.0243C16.4663 67.1843 16.4996 67.351 16.4996 67.5176C16.4996 67.8843 16.4996 68.251 16.4996 68.6176C16.4996 68.7509 16.4729 68.8776 16.4196 69.0043C16.3129 69.2576 16.1263 69.4109 15.8663 69.4643C15.7543 69.4876 15.6429 69.4996 15.5309 69.4963" fill="white"/>
<path d="M13.2731 69.4376V69.3509C13.2731 68.6976 13.2664 68.0443 13.2731 67.391C13.2731 67.151 13.2464 66.9176 13.2064 66.6843C13.1064 66.091 13.0131 65.5043 12.9131 64.9177C12.8331 64.411 12.7464 63.9044 12.6664 63.3977C12.6464 63.2911 12.6264 63.1844 12.6064 63.0644C12.6331 63.0644 12.6531 63.0577 12.6731 63.0577C12.8664 63.0577 13.0531 63.0577 13.2398 63.0577C13.2864 63.0577 13.3064 63.0711 13.3131 63.1177C13.3864 63.7044 13.4598 64.2844 13.5331 64.871C13.5598 65.0644 13.5798 65.2577 13.6064 65.451C13.6131 65.451 13.6198 65.451 13.6264 65.451C13.6331 65.431 13.6398 65.411 13.6398 65.391C13.6998 64.891 13.7664 64.391 13.8331 63.8911C13.8664 63.6311 13.8997 63.3644 13.9331 63.1044C13.9331 63.0911 13.9597 63.0644 13.9731 63.0644C14.1864 63.0644 14.3931 63.0644 14.6064 63.0644C14.6131 63.0644 14.6197 63.0644 14.6331 63.0711C14.6131 63.2044 14.5931 63.3311 14.5664 63.4644C14.4797 63.9977 14.3864 64.5377 14.2997 65.0777C14.2064 65.6643 14.1064 66.2377 14.0131 66.8243C13.9864 66.9776 13.9731 67.131 13.9731 67.2843C13.9731 67.317 13.9724 67.349 13.9724 67.3816" fill="white"/>
<path d="M6.5 69.4309V63.0644C6.52667 63.0644 6.54 63.0577 6.56667 63.0577C7.00665 63.0577 7.44664 63.0577 7.88663 63.0577C7.93996 63.0577 7.95996 63.0711 7.95996 63.1311C7.95996 63.2844 7.95996 63.4444 7.95996 63.5977C7.95996 63.6511 7.94663 63.6711 7.8933 63.6711C7.68664 63.6711 7.47998 63.6644 7.27331 63.6644C7.24665 63.6644 7.22665 63.6644 7.19998 63.6644V65.971C7.21998 65.971 7.23998 65.971 7.25998 65.971C7.41998 65.971 7.57997 65.971 7.73997 65.971C7.76663 65.971 7.7933 65.971 7.7933 66.0177C7.7933 66.1843 7.7933 66.3443 7.7933 66.5177H7.19332V68.8243C7.21998 68.8243 7.23998 68.8309 7.26665 68.8309C7.36131 68.8309 7.45731 68.8309 7.55331 68.8309" fill="white"/>
<path d="M11.713 67.211C11.773 66.4843 11.833 65.771 11.893 65.0444C11.8997 65.0444 11.913 65.0444 11.9197 65.0444C11.9724 65.6763 12.0304 66.309 12.0844 66.9456M12.373 63.0711C12.3597 63.0711 12.353 63.0644 12.353 63.0644C12.0797 63.0644 11.7997 63.0577 11.5264 63.0577C11.493 63.0577 11.4797 63.0777 11.4797 63.1111C11.4664 63.2911 11.4464 63.4711 11.433 63.6511C11.3997 64.0644 11.3597 64.471 11.3264 64.8844C11.2797 65.4177 11.2397 65.9443 11.1931 66.4777C11.1531 66.9443 11.1131 67.4043 11.0731 67.8643C11.0264 68.3643 10.9864 68.8776 10.9397 69.3776C10.9331 69.4309 10.9531 69.4376 10.9997 69.4376C11.1331 69.4376 11.2731 69.4376 11.4064 69.4376C11.4464 69.4376 11.4864 69.4376 11.533 69.4376C11.533 69.4176 11.533 69.4043 11.533 69.3909C11.573 68.8643 11.6197 68.3443 11.6597 67.8176C11.6597 67.7643 11.6797 67.751 11.733 67.751C11.8397 67.751 11.953 67.751 12.0597 67.751C12.1464 67.751 12.1464 67.7576 12.153 67.8443C12.1997 68.3576 12.2464 68.8576 12.2864 69.3709C12.293 69.4242 12.3064 69.4376 12.353 69.4376C12.5197 69.4376 12.693 69.4376 12.8597 69.4376C12.893 69.4376 12.9197 69.4376 12.9597 69.4376C12.845 68.1703 12.7277 66.9096 12.611 65.6503" fill="white"/>
<path d="M0.5 95.497V64.7477C0.5 52.458 10.4598 42.4983 22.7494 42.4983C35.0391 42.4983 44.9989 52.458 44.9989 64.7477V95.497C44.9989 95.497 35.2186 95.497 24.8279 95.497" stroke="white" stroke-width="0.999975"/>
<path d="M22.7494 42.7483V38.3734C22.7494 37.1984 21.7994 36.2484 20.6245 36.2484C19.4495 36.2484 18.4995 37.1984 18.4995 38.3734C18.4995 38.3734 18.4995 38.4934 18.4995 38.6759" stroke="white" stroke-width="0.999975"/>
<path d="M22.7495 43.7482C22.7495 43.7482 22.7495 73.9915 22.7495 88.1251" stroke="white" stroke-width="0.999975"/>
<path d="M21.4995 25.2487C74.6092 -2.95758 136.817 -6.81098 192.413 13.6885" stroke="white" stroke-width="0.999975"/>
</svg>
