<svg width="50" height="50" viewBox="0 0 50 50" fill="none" xmlns="http://www.w3.org/2000/svg">
<path d="M39.0625 3.125C35.5996 3.13072 32.2189 4.18142 29.3628 6.13966C26.5067 8.09791 24.3081 10.8725 23.0545 14.1006C22.0503 12.6438 20.7073 11.4526 19.141 10.6295C17.5747 9.80635 15.8319 9.37585 14.0625 9.375H9.375V14.0625C9.37823 16.9623 10.5316 19.7424 12.5821 21.7929C14.6326 23.8434 17.4127 24.9968 20.3125 25H21.875V39.1395C18.286 39.4905 14.9316 41.0814 12.3891 43.6386L14.5984 45.8481C15.9055 44.5413 17.4861 43.5405 19.2264 42.918C20.9668 42.2955 22.8235 42.0666 24.6629 42.248C26.5023 42.4293 28.2786 43.0163 29.8639 43.9667C31.4491 44.917 32.8039 46.2071 33.8306 47.7441L36.4269 46.0053C35.146 44.0912 33.457 42.4845 31.4812 41.3008C29.5055 40.1171 27.292 39.3858 25 39.1594V25H26.5625C31.1193 24.9948 35.488 23.1824 38.7102 19.9602C41.9324 16.738 43.7448 12.3693 43.75 7.8125V3.125H39.0625ZM20.3125 21.875C18.2412 21.8726 16.2554 21.0488 14.7908 19.5842C13.3262 18.1196 12.5024 16.1338 12.5 14.0625V12.5H14.0625C16.1338 12.5022 18.1197 13.3261 19.5843 14.7907C21.0489 16.2553 21.8728 18.2412 21.875 20.3125V21.875H20.3125ZM40.625 7.8125C40.6209 11.5408 39.138 15.1153 36.5016 17.7516C33.8653 20.388 30.2908 21.8709 26.5625 21.875H25V20.3125C25.0041 16.5842 26.487 13.0097 29.1234 10.3734C31.7597 7.73704 35.3342 6.25414 39.0625 6.25H40.625V7.8125Z" fill="black"/>
</svg>
