<svg width="32" height="33" viewBox="0 0 32 33" fill="none" xmlns="http://www.w3.org/2000/svg">
<path d="M22.406 11.5341C23.2013 11.5341 23.846 10.8893 23.846 10.0941C23.846 9.29876 23.2013 8.65405 22.406 8.65405C21.6107 8.65405 20.966 9.29876 20.966 10.0941C20.966 10.8893 21.6107 11.5341 22.406 11.5341Z" fill="white"/>
<path d="M16 10.3378C14.7812 10.3378 13.5898 10.6992 12.5765 11.3763C11.5631 12.0534 10.7733 13.0158 10.3069 14.1418C9.84047 15.2678 9.71844 16.5068 9.95621 17.7022C10.194 18.8975 10.7809 19.9955 11.6427 20.8573C12.5045 21.7191 13.6025 22.306 14.7978 22.5438C15.9932 22.7815 17.2322 22.6595 18.3582 22.1931C19.4842 21.7267 20.4466 20.9369 21.1237 19.9235C21.8008 18.9101 22.1622 17.7187 22.1622 16.5C22.1622 14.8657 21.513 13.2983 20.3573 12.1426C19.2017 10.987 17.6343 10.3378 16 10.3378ZM16 20.5C15.2089 20.5 14.4355 20.2654 13.7777 19.8258C13.1199 19.3863 12.6072 18.7616 12.3045 18.0307C12.0017 17.2998 11.9225 16.4955 12.0769 15.7196C12.2312 14.9437 12.6122 14.231 13.1716 13.6715C13.731 13.1121 14.4437 12.7312 15.2196 12.5768C15.9956 12.4225 16.7998 12.5017 17.5307 12.8045C18.2616 13.1072 18.8864 13.6199 19.3259 14.2777C19.7654 14.9355 20 15.7088 20 16.5C20 17.5608 19.5786 18.5782 18.8284 19.3284C18.0783 20.0785 17.0609 20.5 16 20.5Z" fill="white"/>
<path d="M16 6.6622C19.2041 6.6622 19.5837 6.6744 20.849 6.7322C21.61 6.74126 22.3637 6.88103 23.0773 7.1454C23.5948 7.34509 24.0648 7.65087 24.457 8.0431C24.8492 8.43532 25.155 8.9053 25.3547 9.4228C25.6191 10.1364 25.7588 10.8901 25.7679 11.6511C25.8256 12.9164 25.8379 13.296 25.8379 16.5001C25.8379 19.7042 25.8257 20.0838 25.7679 21.3491C25.7588 22.1101 25.6191 22.8638 25.3547 23.5774C25.155 24.0949 24.8492 24.5649 24.457 24.9571C24.0648 25.3493 23.5948 25.6551 23.0773 25.8548C22.3637 26.1192 21.61 26.2589 20.849 26.268C19.5838 26.3257 19.2044 26.338 16 26.338C12.7956 26.338 12.4162 26.3258 11.151 26.268C10.39 26.2589 9.63631 26.1192 8.9227 25.8548C8.4052 25.6551 7.93522 25.3493 7.543 24.9571C7.15077 24.5649 6.84499 24.0949 6.6453 23.5774C6.38093 22.8638 6.24116 22.1101 6.2321 21.3491C6.1744 20.0838 6.1621 19.7042 6.1621 16.5001C6.1621 13.296 6.1743 12.9164 6.2321 11.6511C6.24116 10.8901 6.38093 10.1364 6.6453 9.4228C6.84497 8.90528 7.15076 8.43529 7.54298 8.04304C7.93521 7.6508 8.40519 7.345 8.9227 7.1453C9.63631 6.88093 10.39 6.74116 11.151 6.7321C12.4163 6.6744 12.7959 6.6621 16 6.6621M16 4.5C12.741 4.5 12.3323 4.5138 11.0524 4.5722C10.0571 4.59218 9.07229 4.78079 8.14 5.13C7.34273 5.43831 6.61868 5.9098 6.01424 6.51424C5.4098 7.11868 4.93831 7.84273 4.63 8.64C4.28073 9.57245 4.09213 10.5574 4.0722 11.5529C4.0138 12.8323 4 13.241 4 16.5C4 19.759 4.0138 20.1677 4.0722 21.4476C4.09214 22.4431 4.28075 23.428 4.63 24.3605C4.93831 25.1578 5.4098 25.8818 6.01424 26.4863C6.61868 27.0907 7.34273 27.5622 8.14 27.8705C9.07245 28.2198 10.0574 28.4084 11.0529 28.4283C12.3323 28.4862 12.741 28.5 16 28.5C19.259 28.5 19.6677 28.4862 20.9476 28.4278C21.9431 28.4079 22.928 28.2193 23.8605 27.87C24.6578 27.5617 25.3818 27.0902 25.9863 26.4858C26.5907 25.8813 27.0622 25.1573 27.3705 24.36C27.7198 23.4275 27.9084 22.4426 27.9283 21.4471C27.9862 20.1677 28 19.759 28 16.5C28 13.241 27.9862 12.8323 27.9278 11.5524C27.9078 10.5571 27.7192 9.57229 27.37 8.64C27.0616 7.84283 26.5901 7.11887 25.9857 6.51452C25.3812 5.91017 24.6572 5.43876 23.86 5.1305C22.9275 4.78124 21.9426 4.59264 20.9471 4.5727C19.6677 4.5138 19.259 4.5 16 4.5Z" fill="white"/>
</svg>
