<svg width="32" height="33" viewBox="0 0 32 33" fill="none" xmlns="http://www.w3.org/2000/svg">
<path d="M26.67 4.5H5.33C4.97807 4.50262 4.6413 4.64358 4.39244 4.89244C4.14358 5.1413 4.00262 5.47807 4 5.83V27.17C4.00262 27.5219 4.14358 27.8587 4.39244 28.1076C4.6413 28.3564 4.97807 28.4974 5.33 28.5H16.82V19.22H13.7V15.59H16.82V12.92C16.82 9.82 18.71 8.13 21.49 8.13C22.42 8.13 23.35 8.13 24.28 8.27V11.5H22.37C20.86 11.5 20.57 12.22 20.57 13.27V15.58H24.17L23.7 19.21H20.57V28.5H26.67C27.0219 28.4974 27.3587 28.3564 27.6076 28.1076C27.8564 27.8587 27.9974 27.5219 28 27.17V5.83C27.9974 5.47807 27.8564 5.1413 27.6076 4.89244C27.3587 4.64358 27.0219 4.50262 26.67 4.5Z" fill="white"/>
</svg>
