<svg width="51" height="34" viewBox="0 0 51 34" fill="none" xmlns="http://www.w3.org/2000/svg">
<g clip-path="url(#clip0_555_46588)">
<path d="M15.283 19.2076C15.4234 17.9044 15.5631 16.6013 15.7041 15.2988C16.0371 12.2143 16.372 9.13054 16.7044 6.04611C16.88 4.41397 17.0594 2.78182 17.2193 1.1484C17.2451 0.887259 17.3238 0.806612 17.5781 0.809172C18.8685 0.820053 20.1589 0.821333 21.4493 0.808532C21.7232 0.805972 21.8069 0.884059 21.8056 1.16888C21.7962 3.836 21.8025 6.50311 21.8025 9.17022C21.8025 17.0218 21.8006 24.874 21.8 32.7256C21.8 33.0345 21.6455 33.189 21.3367 33.189C20.6128 33.1896 19.8889 33.1819 19.165 33.1973C18.9069 33.203 18.8238 33.1243 18.8238 32.8555C18.8314 28.3002 18.8295 23.7449 18.8301 19.1897C18.8301 17.0135 18.8326 14.8373 18.8333 12.6604C18.8333 12.5766 18.8232 12.4928 18.781 12.4076C18.708 13.0957 18.635 13.7844 18.5613 14.4724C18.3448 16.4969 18.1276 18.5214 17.9123 20.5466C17.6876 22.6562 17.466 24.7658 17.2413 26.8748C17.0254 28.8993 16.8082 30.9244 16.5835 32.9483C16.5741 33.0315 16.4878 33.173 16.435 33.1736C15.6198 33.1883 14.804 33.1838 13.968 33.1838C13.2309 26.1464 12.497 19.1436 11.763 12.1401C11.741 12.1414 11.7196 12.1426 11.6975 12.1433C11.6975 12.2438 11.6975 12.3443 11.6975 12.4447C11.6975 19.2082 11.6988 25.9723 11.6988 32.7358C11.6988 33.0383 11.553 33.1896 11.2613 33.1896C10.5374 33.1896 9.81289 33.1755 9.08962 33.196C8.79503 33.2043 8.72327 33.1064 8.72327 32.8164C8.73145 28.0583 8.72956 23.3001 8.72893 18.5426C8.72893 12.7923 8.72767 7.04204 8.72704 1.29177C8.72704 0.97644 8.87728 0.81856 9.17775 0.818133C10.4474 0.818133 11.7164 0.824534 12.9861 0.812372C13.2391 0.809812 13.3279 0.886619 13.3531 1.1452C13.5746 3.40524 13.8075 5.664 14.0392 7.92275C14.2941 10.4043 14.5522 12.8857 14.8084 15.3672C14.933 16.5763 15.0577 17.7847 15.1829 18.9938C15.1905 19.0642 15.2062 19.134 15.2182 19.2037C15.2396 19.2057 15.261 19.2069 15.2824 19.2089L15.283 19.2076Z" fill="white"/>
<path d="M43.6887 17.9275C43.807 18.0875 43.8932 18.1905 43.965 18.3032C44.5252 19.1916 45.0867 20.0787 45.6337 20.9754C45.7005 21.0842 45.7344 21.2654 45.6942 21.3812C45.3775 22.2971 45.2265 23.2387 45.229 24.2071C45.2328 25.7323 45.2265 27.2582 45.2611 28.7828C45.2693 29.1323 45.3668 29.5099 45.5267 29.8191C45.9132 30.5628 46.7366 30.5647 47.1394 29.828C47.2874 29.5586 47.3919 29.2251 47.3956 28.9198C47.4196 27.118 47.4353 25.315 47.3988 23.5139C47.3749 22.356 47.0331 21.2666 46.4395 20.2714C46.0372 19.5967 45.6268 18.9266 45.2032 18.2661C44.3779 16.9808 43.5225 15.7154 42.7149 14.4193C41.9822 13.2442 41.697 11.9206 41.6775 10.5464C41.6517 8.70107 41.6529 6.85515 41.6775 5.00923C41.7064 2.87464 42.8187 1.27834 44.6939 0.739415C45.8742 0.400185 47.0834 0.407226 48.2549 0.829022C49.8651 1.40955 50.9389 2.91945 50.9729 4.73272C51.0107 6.79114 51.0094 8.85084 50.9685 10.9093C50.9446 12.117 50.6242 13.2685 50.0161 14.3208C49.6875 14.8891 49.3495 15.4524 48.9517 16.1264C48.89 16.0009 48.8636 15.9318 48.8252 15.8703C48.2259 14.9192 47.6204 13.9719 47.0312 13.0138C46.9651 12.9062 46.9393 12.7219 46.9808 12.6048C47.2571 11.8239 47.4177 11.0187 47.424 10.1943C47.4378 8.46681 47.4208 6.73866 47.4026 5.01115C47.4 4.78137 47.3402 4.54583 47.2697 4.32501C47.1161 3.84113 46.826 3.62479 46.3753 3.62223C45.8616 3.61903 45.5607 3.81616 45.4046 4.31029C45.3221 4.57079 45.2592 4.85113 45.2573 5.12316C45.246 6.92555 45.2233 8.72923 45.2661 10.531C45.2913 11.5743 45.5506 12.5926 46.1002 13.4836C47.0135 14.964 47.9892 16.4041 48.9227 17.8718C49.5484 18.8556 50.2056 19.824 50.577 20.9505C50.8426 21.7556 50.9817 22.5845 50.9849 23.4326C50.9918 25.2996 50.9893 27.1667 50.9861 29.0337C50.9849 29.7128 50.8615 30.3695 50.5965 30.9961C50.0539 32.2788 49.0921 33.061 47.7639 33.3419C46.7819 33.55 45.7785 33.5583 44.7978 33.3189C43.0831 32.9003 41.9041 31.5075 41.7341 29.7224C41.6825 29.1822 41.668 28.6369 41.6706 28.0935C41.6794 26.3231 41.6756 24.5521 41.7329 22.7829C41.7688 21.6712 42.1068 20.6247 42.6664 19.6614C42.995 19.0956 43.3299 18.5336 43.688 17.9256L43.6887 17.9275Z" fill="white"/>
<path d="M34.5392 33.1915V32.7537C34.5392 29.4363 34.5185 26.1188 34.5499 22.8021C34.5613 21.5879 34.4089 20.4038 34.2088 19.2152C33.7033 16.2223 33.2142 13.2262 32.7175 10.2314C32.292 7.66731 31.8652 5.10325 31.4391 2.53919C31.3472 1.9849 31.2572 1.43061 31.159 0.834078C31.2937 0.825757 31.3931 0.813596 31.4932 0.813596C32.4582 0.813596 33.4232 0.822557 34.3882 0.810396C34.6274 0.807196 34.7174 0.885923 34.747 1.12402C35.1196 4.08492 35.4992 7.04454 35.8775 10.0042C36.0028 10.9854 36.1318 11.9666 36.2583 12.9478C36.2848 12.9529 36.3112 12.958 36.3383 12.9631C36.3635 12.8633 36.3987 12.7647 36.4113 12.6636C36.7367 10.1162 37.0597 7.56875 37.3838 5.02068C37.5519 3.69897 37.7175 2.37725 37.8981 1.0581C37.9101 0.96849 38.0372 0.825757 38.1121 0.825117C39.1923 0.812956 40.2725 0.819997 41.3527 0.825117C41.3804 0.825117 41.4074 0.849439 41.4616 0.875042C41.3539 1.53174 41.2457 2.191 41.1368 2.85025C40.6848 5.58265 40.2335 8.31505 39.7802 11.0474C39.2886 14.0109 38.785 16.9718 38.3111 19.9378C38.1889 20.7021 38.1027 21.481 38.0977 22.2542C38.075 25.763 38.0838 29.2724 38.0951 32.7818C38.0964 33.1019 38.0221 33.2043 37.6954 33.1959C36.7833 33.1735 35.8706 33.1902 34.9578 33.1908C34.8345 33.1908 34.7105 33.1908 34.5386 33.1908L34.5392 33.1915Z" fill="white"/>
<path d="M-3.66743e-06 33.1588V0.831533C0.117708 0.825133 0.229125 0.814252 0.340542 0.814252C2.58588 0.812972 4.83058 0.817452 7.07592 0.808491C7.35225 0.807211 7.46304 0.867377 7.45423 1.17716C7.4322 1.96571 7.43597 2.75618 7.45297 3.54537C7.45864 3.82251 7.38562 3.91404 7.10235 3.90956C6.05365 3.89228 5.00432 3.90188 3.95498 3.90124C3.83098 3.90124 3.70634 3.90124 3.55401 3.90124V15.5944C3.65976 15.6015 3.77055 15.6155 3.8807 15.6155C4.68832 15.6162 5.49656 15.6143 6.30418 15.6143C6.45085 15.6143 6.60444 15.5906 6.60318 15.8274C6.59752 16.6582 6.60066 17.4896 6.60066 18.3735H3.54142V30.0878C3.67927 30.0942 3.80202 30.1045 3.92477 30.1045C5.08929 30.1058 6.25382 30.1109 7.41772 30.1006C7.65062 30.0987 7.72805 30.1672 7.72427 30.4085C7.71168 31.2406 7.71546 32.0727 7.72238 32.9047C7.72427 33.0999 7.68084 33.194 7.46304 33.1934C5.03957 33.1883 2.61609 33.1915 0.192615 33.1908C0.132186 33.1908 0.0723859 33.1723 -0.00189209 33.1608L-3.66743e-06 33.1588Z" fill="white"/>
<path d="M29.968 0.862318C29.8963 0.837996 29.8761 0.825835 29.8566 0.825835C28.451 0.822634 27.0454 0.822634 25.6398 0.814954C25.4522 0.813674 25.4144 0.912242 25.4018 1.07098C25.3256 1.98434 25.2438 2.8977 25.1651 3.81106C24.9857 5.90404 24.8095 7.99702 24.6276 10.0894C24.3934 12.7872 24.1517 15.485 23.9181 18.1829C23.7148 20.53 23.5209 22.8783 23.3189 25.226C23.0998 27.7754 22.8808 30.3247 22.6491 32.8734C22.6239 33.1538 22.7259 33.196 22.9588 33.1928C23.6405 33.1826 24.3223 33.189 25.0046 33.189C25.2212 33.189 25.4377 33.189 25.6555 33.189C25.6719 33.0808 25.6851 33.0187 25.6901 32.956C25.9022 30.2991 26.1175 27.6423 26.3177 24.9841C26.3385 24.7114 26.4071 24.6148 26.6847 24.6263C27.2399 24.6487 27.7963 24.6346 28.3522 24.6353C28.8085 24.6353 28.8142 24.6353 28.8526 25.0878C29.0729 27.68 29.2951 30.2716 29.5009 32.8651C29.5224 33.1359 29.6117 33.2011 29.8591 33.1973C30.719 33.1851 31.5795 33.1928 32.4393 33.1928C32.5936 33.1928 32.7478 33.1928 32.9448 33.1928C31.949 22.3829 30.9582 11.6223 29.9674 0.862958L29.968 0.862318ZM26.5877 21.8978C26.9012 18.2123 27.2122 14.548 27.5238 10.883C27.5622 10.8798 27.6006 10.8766 27.639 10.8728C27.9524 14.5397 28.2659 18.2066 28.5813 21.8971H26.5877V21.8978Z" fill="white"/>
</g>
<defs>
<clipPath id="clip0_555_46588">
<rect width="51" height="33" fill="white" transform="translate(0 0.5)"/>
</clipPath>
</defs>
</svg>
