<svg width="105" height="53" viewBox="0 0 105 53" fill="none" xmlns="http://www.w3.org/2000/svg">
<g clip-path="url(#clip0_432_23837)">
<path d="M31.4653 30.0462C31.7543 27.9532 32.042 25.8603 32.3323 23.7684C33.0179 18.8146 33.7074 13.8618 34.3916 8.90806C34.7532 6.28674 35.1226 3.66542 35.4518 1.04204C35.5049 0.622631 35.6669 0.493107 36.1905 0.497219C38.8472 0.514694 41.504 0.51675 44.1607 0.496191C44.7245 0.492079 44.8968 0.617491 44.8942 1.07494C44.8748 5.35848 44.8878 9.64203 44.8878 13.9256C44.8878 26.5357 44.8839 39.1468 44.8826 51.7569C44.8826 52.253 44.5646 52.5011 43.9287 52.5011C42.4384 52.5021 40.948 52.4898 39.4576 52.5145C38.9263 52.5237 38.7552 52.3973 38.7552 51.9655C38.7708 44.6495 38.7669 37.3334 38.7682 30.0174C38.7682 26.5223 38.7733 23.0272 38.7746 19.5311C38.7746 19.3964 38.7539 19.2618 38.6671 19.125C38.5167 20.2301 38.3664 21.3362 38.2148 22.4413C37.769 25.6927 37.3218 28.9442 36.8786 32.1967C36.416 35.5849 35.9598 38.973 35.4971 42.3602C35.0526 45.6117 34.6055 48.8642 34.1428 52.1146C34.1234 52.2482 33.9458 52.4754 33.837 52.4764C32.1587 52.5001 30.4791 52.4929 28.758 52.4929C27.2404 41.1904 25.7293 29.9434 24.2182 18.6953C24.1729 18.6974 24.1288 18.6995 24.0834 18.7005C24.0834 18.8619 24.0834 19.0233 24.0834 19.1847C24.0834 30.0472 24.086 40.9108 24.086 51.7733C24.086 52.2592 23.7858 52.5021 23.1853 52.5021C21.695 52.5021 20.2033 52.4795 18.7142 52.5124C18.1077 52.5258 17.96 52.3685 17.96 51.9028C17.9768 44.2609 17.9729 36.619 17.9716 28.9781C17.9716 19.7428 17.969 10.5076 17.9677 1.27231C17.9677 0.765861 18.277 0.512296 18.8957 0.51161C21.5096 0.51161 24.1223 0.52189 26.7363 0.502359C27.2573 0.498247 27.44 0.621603 27.4919 1.0369C27.9481 4.66666 28.4276 8.29436 28.9045 11.9221C29.4294 15.9075 29.9607 19.8929 30.4882 23.8784C30.7448 25.8202 31.0014 27.761 31.2593 29.7028C31.2748 29.8159 31.3072 29.928 31.3318 30.04C31.3759 30.0431 31.42 30.0451 31.464 30.0482L31.4653 30.0462Z" fill="#231F20"/>
<path d="M89.9471 27.9894C90.1908 28.2464 90.3683 28.4119 90.516 28.5928C91.6695 30.0196 92.8255 31.4444 93.9517 32.8846C94.0891 33.0593 94.159 33.3503 94.0761 33.5363C93.4242 35.0073 93.1132 36.5195 93.1184 38.0748C93.1261 40.5245 93.1132 42.9751 93.1845 45.4238C93.2013 45.985 93.4022 46.5915 93.7314 47.088C94.5271 48.2825 96.2222 48.2856 97.0517 47.1024C97.3562 46.6696 97.5713 46.1341 97.5791 45.6437C97.6284 42.75 97.6608 39.8542 97.5856 36.9615C97.5363 35.1019 96.8326 33.3523 95.6105 31.7538C94.7824 30.6703 93.9374 29.5941 93.0652 28.5332C91.3662 26.469 89.605 24.4367 87.9422 22.3551C86.4337 20.4678 85.8466 18.3419 85.8065 16.1349C85.7533 13.1712 85.7559 10.2066 85.8065 7.24191C85.8661 3.81364 88.1561 1.24988 92.0168 0.384333C94.4467 -0.16049 96.9363 -0.149183 99.3481 0.528249C102.663 1.46062 104.874 3.88559 104.944 6.79783C105.022 10.1038 105.019 13.4118 104.935 16.7177C104.886 18.6575 104.226 20.5068 102.974 22.1968C102.298 23.1096 101.602 24.0142 100.783 25.0967C100.656 24.8952 100.601 24.7842 100.522 24.6855C99.2885 23.1579 98.0418 21.6366 96.8287 20.0977C96.6927 19.925 96.6395 19.6289 96.7251 19.4408C97.294 18.1867 97.6245 16.8935 97.6374 15.5695C97.6659 12.795 97.631 10.0195 97.5934 7.245C97.5882 6.87596 97.4651 6.49766 97.3199 6.14301C97.0037 5.36587 96.4063 5.01842 95.4783 5.0143C94.4208 5.00916 93.8013 5.32578 93.4799 6.11937C93.3102 6.53775 93.1806 6.988 93.1767 7.42489C93.1534 10.3196 93.1067 13.2165 93.1948 16.1102C93.2467 17.7858 93.7806 19.4213 94.912 20.8522C96.7925 23.2299 98.8012 25.5428 100.723 27.9C102.011 29.48 103.364 31.0353 104.129 32.8445C104.676 34.1377 104.962 35.4689 104.969 36.831C104.983 39.8295 104.978 42.8281 104.971 45.8267C104.969 46.9174 104.715 47.9721 104.169 48.9785C103.052 51.0385 101.072 52.2947 98.3373 52.746C96.3155 53.0801 94.2497 53.0934 92.2306 52.709C88.7004 52.0367 86.273 49.7998 85.9231 46.9328C85.8168 46.0652 85.787 45.1894 85.7922 44.3166C85.8104 41.4733 85.8026 38.6289 85.9205 35.7876C85.9944 34.002 86.6903 32.3213 87.8424 30.7742C88.5189 29.8654 89.2084 28.9629 89.9458 27.9863L89.9471 27.9894Z" fill="#231F20"/>
<path d="M71.1098 52.5042V51.801C71.1098 46.4731 71.067 41.1451 71.1318 35.8182C71.1551 33.8681 70.8415 31.9664 70.4294 30.0574C69.3887 25.2506 68.3818 20.4387 67.3592 15.6289C66.4831 11.5108 65.6045 7.39278 64.7271 3.27474C64.5379 2.38452 64.3526 1.4943 64.1504 0.536231C64.4277 0.522868 64.6325 0.503336 64.8386 0.503336C66.8253 0.503336 68.812 0.517728 70.7987 0.498197C71.2912 0.493057 71.4765 0.619497 71.5375 1.0019C72.3047 5.75728 73.0862 10.5106 73.865 15.2639C74.1229 16.8398 74.3886 18.4157 74.6491 19.9916C74.7035 19.9998 74.758 20.008 74.8137 20.0162C74.8655 19.8559 74.9381 19.6976 74.964 19.5351C75.634 15.4438 76.2989 11.3525 76.9663 7.26017C77.3123 5.13742 77.6532 3.01466 78.0251 0.89602C78.0497 0.752105 78.3115 0.522868 78.4657 0.52184C80.6896 0.502308 82.9135 0.513616 85.1374 0.52184C85.1945 0.52184 85.2502 0.560903 85.3616 0.602021C85.14 1.65672 84.9171 2.71552 84.6929 3.77433C83.7624 8.16273 82.8332 12.5511 81.9001 16.9395C80.8879 21.699 79.8511 26.4544 78.8753 31.218C78.6239 32.4454 78.4463 33.6964 78.4359 34.9382C78.3893 40.5735 78.4074 46.2099 78.4308 51.8462C78.4333 52.3602 78.2804 52.5247 77.6078 52.5113C75.7299 52.4754 73.8508 52.5021 71.9716 52.5031C71.7176 52.5031 71.4623 52.5031 71.1085 52.5031L71.1098 52.5042Z" fill="#231F20"/>
<path d="M-1.8321e-05 52.4527V0.533132C0.242329 0.522853 0.471717 0.505377 0.701105 0.505377C5.32385 0.503321 9.9453 0.510517 14.5681 0.496126C15.137 0.49407 15.3651 0.590699 15.3469 1.08824C15.3016 2.35469 15.3094 3.62423 15.3443 4.89172C15.356 5.33683 15.2057 5.48383 14.6225 5.47663C12.4634 5.44888 10.303 5.4643 8.1426 5.46327C7.88729 5.46327 7.63069 5.46327 7.31706 5.46327V24.2432C7.53479 24.2545 7.76288 24.2771 7.98968 24.2771C9.65241 24.2782 11.3164 24.2751 12.9792 24.2751C13.2811 24.2751 13.5974 24.2371 13.5948 24.6174C13.5831 25.9517 13.5896 27.287 13.5896 28.7067H7.29114V47.5205C7.57496 47.5308 7.82768 47.5473 8.08039 47.5473C10.478 47.5493 12.8755 47.5575 15.2718 47.5411C15.7513 47.538 15.9107 47.648 15.9029 48.0356C15.877 49.3719 15.8848 50.7083 15.899 52.0446C15.9029 52.3582 15.8135 52.5093 15.3651 52.5082C10.3756 52.5 5.38606 52.5052 0.39655 52.5041C0.272137 52.5041 0.149019 52.4743 -0.00390625 52.4558L-1.8321e-05 52.4527Z" fill="#231F20"/>
<path d="M61.6991 0.581949C61.5513 0.542886 61.5098 0.523355 61.4697 0.523355C58.5758 0.518215 55.6818 0.518215 52.7879 0.505879C52.4017 0.503823 52.324 0.66213 52.298 0.917067C52.1412 2.38398 51.9728 3.85089 51.8108 5.3178C51.4414 8.67926 51.0785 12.0407 50.704 15.4011C50.2219 19.734 49.7242 24.0669 49.2434 28.3998C48.8248 32.1694 48.4257 35.941 48.0097 39.7116C47.5587 43.806 47.1077 47.9004 46.6307 51.9937C46.5789 52.444 46.7888 52.5118 47.2684 52.5067C48.6719 52.4902 50.0754 52.5005 51.4803 52.5005C51.9261 52.5005 52.3719 52.5005 52.8203 52.5005C52.854 52.3268 52.8812 52.2271 52.8916 52.1263C53.3283 47.8592 53.7716 43.5921 54.1837 39.323C54.2265 38.8851 54.3677 38.7299 54.9392 38.7484C56.0823 38.7843 57.2279 38.7617 58.3723 38.7628C59.3119 38.7628 59.3235 38.7628 59.4026 39.4895C59.8562 43.6528 60.3137 47.815 60.7374 51.9804C60.7815 52.4152 60.9655 52.5201 61.4749 52.5139C63.2452 52.4944 65.0168 52.5067 66.7871 52.5067C67.1046 52.5067 67.4221 52.5067 67.8277 52.5067C65.7775 35.1453 63.7376 17.8631 61.6978 0.582977L61.6991 0.581949ZM54.7397 34.3661C55.3851 28.4471 56.0253 22.562 56.6668 16.6758C56.7458 16.6707 56.8249 16.6655 56.9039 16.6594C57.5493 22.5486 58.1947 28.4378 58.844 34.3651H54.7397V34.3661Z" fill="#231F20"/>
</g>
<defs>
<clipPath id="clip0_432_23837">
<rect width="105" height="53" fill="white"/>
</clipPath>
</defs>
</svg>
